<svg width="60" height="60" viewBox="0 0 60 60" fill="none" xmlns="http://www.w3.org/2000/svg">
<circle cx="30" cy="30" r="30" fill="#1C203F"/>
<path d="M19.7239 46L24.5133 37.7354L29.3027 29.5L34.0628 21.2354L34.8513 19.9259L35.2018 21.2354L36.6619 26.6772L35.0265 29.5L30.2372 37.7354L25.477 46H31.2009L35.9903 37.7354L38.4726 33.4577L39.6407 37.7354L41.8602 46H47L44.7805 37.7354L42.5611 29.5L41.977 27.3757L45.5398 21.2354H40.3416L40.1664 20.6243L38.3558 13.873L38.1221 13H33.1283L33.0115 13.1746L28.3389 21.2354L23.5496 29.5L18.7894 37.7354L14 46H19.7239Z" fill="white"/>
</svg>
