<svg width="60" height="60" viewBox="0 0 60 60" fill="none" xmlns="http://www.w3.org/2000/svg">
<path d="M30 60C46.5685 60 60 46.5685 60 30C60 13.4315 46.5685 0 30 0C13.4315 0 0 13.4315 0 30C0 46.5685 13.4315 60 30 60Z" fill="url(#paint0_linear_4352_16979)"/>
<path d="M23.6474 21.1155C23.7296 20.9396 23.9062 20.8273 24.1003 20.8273H37.7949C37.9891 20.8273 38.1657 20.9396 38.2479 21.1155L46.5786 38.934C46.6406 39.0666 46.5438 39.2187 46.3974 39.2187H15.4979C15.3515 39.2187 15.2547 39.0666 15.3167 38.934L23.6474 21.1155Z" fill="url(#paint1_radial_4352_16979)"/>
<path d="M21.7986 18.3195L13.2886 35.7312L41.3622 35.7311L34.5149 18.3195H21.7986Z" fill="url(#paint2_linear_4352_16979)"/>
<defs>
<linearGradient id="paint0_linear_4352_16979" x1="2.55776" y1="9.03414" x2="55.8613" y2="55.4728" gradientUnits="userSpaceOnUse">
<stop stop-color="#ADB7CE"/>
<stop offset="0.515625" stop-color="#F3F7FF"/>
<stop offset="0.761689" stop-color="#A7AEBF"/>
<stop offset="1" stop-color="#909AB4"/>
</linearGradient>
<radialGradient id="paint1_radial_4352_16979" cx="0" cy="0" r="1" gradientUnits="userSpaceOnUse" gradientTransform="translate(23.913 23.3893) rotate(49.6989) scale(20.7556 35.581)">
<stop stop-color="#B5BED2"/>
<stop offset="1" stop-color="#8890A7"/>
</radialGradient>
<linearGradient id="paint2_linear_4352_16979" x1="13.7142" y1="29.4969" x2="26.1698" y2="38.3052" gradientUnits="userSpaceOnUse">
<stop stop-color="#FAFBFF"/>
<stop offset="1" stop-color="#DCE7ED" stop-opacity="0"/>
</linearGradient>
</defs>
</svg>
