<svg width="60" height="60" viewBox="0 0 60 60" fill="none" xmlns="http://www.w3.org/2000/svg">
<path d="M30 60C46.5685 60 60 46.5685 60 30C60 13.4315 46.5685 0 30 0C13.4315 0 0 13.4315 0 30C0 46.5685 13.4315 60 30 60Z" fill="#2E3148"/>
<path d="M30.0002 47.4074C39.614 47.4074 47.4076 39.6138 47.4076 30C47.4076 20.3861 39.614 12.5926 30.0002 12.5926C20.3863 12.5926 12.5928 20.3861 12.5928 30C12.5928 39.6138 20.3863 47.4074 30.0002 47.4074Z" fill="#1B1E36"/>
<path d="M30.0619 3.8273C26.8236 3.8273 24.1978 15.5729 24.1978 30.0619C24.1978 44.551 26.8236 56.2966 30.0619 56.2966C33.3002 56.2966 35.9261 44.551 35.9261 30.0619C35.9261 15.5729 33.3002 3.8273 30.0619 3.8273ZM30.4668 54.816C30.0965 55.31 29.7262 54.9394 29.7262 54.9394C28.2348 53.2114 27.4891 50.0012 27.4891 50.0012C24.8806 41.6062 25.5014 23.5815 25.5014 23.5815C26.7274 9.2717 28.9574 5.8913 29.7163 5.14082C29.7938 5.06423 29.8958 5.01742 30.0044 5.00864C30.1131 4.99986 30.2213 5.02967 30.3101 5.09282C31.4112 5.87306 32.3347 9.1361 32.3347 9.1361C35.0618 19.2595 34.8149 28.7657 34.8149 28.7657C35.0618 37.0373 33.4483 46.2965 33.4483 46.2965C32.2063 53.3333 30.4668 54.816 30.4668 54.816Z" fill="#6F7390"/>
<path d="M52.8173 17.0062C51.205 14.1962 39.7112 17.7641 27.1373 24.9742C14.5635 32.1842 5.69404 40.3075 7.30516 43.1162C8.91628 45.925 20.4113 42.3583 32.9852 35.1482C45.559 27.9382 54.4285 19.8149 52.8173 17.0062ZM8.79268 42.7308C8.1754 42.653 8.31484 42.1457 8.31484 42.1457C9.07204 39.9926 11.4816 37.7482 11.4816 37.7482C17.468 31.3075 33.4126 22.8766 33.4126 22.8766C46.4336 16.8185 50.4781 17.0741 51.5041 17.3566C51.6094 17.386 51.7009 17.4517 51.7624 17.5421C51.8239 17.6325 51.8514 17.7417 51.8401 17.8505C51.7167 19.1945 49.34 21.6185 49.34 21.6185C41.9211 29.0246 33.5521 33.5419 33.5521 33.5419C26.5001 37.8739 17.6657 41.0801 17.6657 41.0801C10.9436 43.5024 8.79292 42.7308 8.79292 42.7308H8.79268Z" fill="#6F7390"/>
<path d="M52.7603 43.2097C54.3851 40.4073 45.538 32.2468 33.0083 24.9825C20.4787 17.7182 8.98633 14.1062 7.36297 16.9135C5.73962 19.7208 14.5853 27.8764 27.1221 35.1407C39.6589 42.405 51.1369 46.0172 52.7603 43.2097ZM8.43961 17.9964C8.19961 17.4274 8.70625 17.2903 8.70625 17.2903C10.9493 16.8667 14.1 17.832 14.1 17.832C22.6716 19.7839 37.9559 29.3579 37.9559 29.3579C49.7238 37.5925 51.5286 41.2197 51.7991 42.2492C51.8266 42.3549 51.8159 42.4668 51.7689 42.5653C51.7219 42.6638 51.6417 42.7425 51.5423 42.7876C50.3152 43.3494 47.0286 42.5123 47.0286 42.5123C36.899 39.7962 28.7978 34.8198 28.7978 34.8198C21.5188 30.8939 14.3213 24.8532 14.3213 24.8532C8.85217 20.2483 8.44129 18.0026 8.44129 18.0026L8.43961 17.9964Z" fill="#6F7390"/>
<path d="M30 33.0864C31.7045 33.0864 33.0864 31.7046 33.0864 30C33.0864 28.2954 31.7045 26.9136 30 26.9136C28.2954 26.9136 26.9136 28.2954 26.9136 30C26.9136 31.7046 28.2954 33.0864 30 33.0864Z" fill="#B7B9C8"/>
<path d="M42.6544 19.9999C43.6431 19.9999 44.4446 19.1708 44.4446 18.1481C44.4446 17.1253 43.6431 16.2962 42.6544 16.2962C41.6657 16.2962 40.8643 17.1253 40.8643 18.1481C40.8643 19.1708 41.6657 19.9999 42.6544 19.9999Z" fill="#B7B9C8"/>
<path d="M13.2716 26.2963C14.2603 26.2963 15.0618 25.4672 15.0618 24.4445C15.0618 23.4217 14.2603 22.5926 13.2716 22.5926C12.2829 22.5926 11.4814 23.4217 11.4814 24.4445C11.4814 25.4672 12.2829 26.2963 13.2716 26.2963Z" fill="#B7B9C8"/>
<path d="M26.3581 49.0123C27.3468 49.0123 28.1483 48.1832 28.1483 47.1605C28.1483 46.1377 27.3468 45.3086 26.3581 45.3086C25.3694 45.3086 24.5679 46.1377 24.5679 47.1605C24.5679 48.1832 25.3694 49.0123 26.3581 49.0123Z" fill="#B7B9C8"/>
</svg>
