<svg width="60" height="60" viewBox="0 0 60 60" fill="none" xmlns="http://www.w3.org/2000/svg">
<g clip-path="url(#clip0_2498_16632)">
<path d="M48.5029 10.2926H11.457V43.9628H48.5029V10.2926Z" fill="white"/>
<path fill-rule="evenodd" clip-rule="evenodd" d="M60.02 30.0399C60.02 46.6086 46.5887 60.0399 30.02 60.0399C13.4515 60.0399 0.0200195 46.6086 0.0200195 30.0399C0.0200195 13.4714 13.4515 0.039917 30.02 0.039917C46.5887 0.039917 60.02 13.4714 60.02 30.0399ZM21.5189 41.9784H15.6967C14.4733 41.9784 13.869 41.9784 13.5005 41.7427C13.1025 41.4847 12.8593 41.0572 12.8299 40.5855C12.8077 40.1508 13.1099 39.62 13.7142 38.5588L28.0899 13.2197C28.7016 12.1437 29.0111 11.6057 29.4017 11.4068C29.8218 11.193 30.3229 11.193 30.743 11.4068C31.1336 11.6057 31.4432 12.1437 32.0548 13.2197L35.0102 18.3786L35.0252 18.405C35.6859 19.5593 36.0209 20.1447 36.1672 20.7591C36.3293 21.4297 36.3293 22.1372 36.1672 22.8079C36.0198 23.4269 35.6882 24.0166 35.0175 25.1883L27.4663 38.5367L27.4468 38.5709C26.7818 39.7347 26.4447 40.3246 25.9777 40.7696C25.4691 41.2562 24.8574 41.6097 24.1868 41.809C23.5751 41.9784 22.8897 41.9784 21.5189 41.9784ZM36.2218 41.9784H44.5642C45.795 41.9784 46.4142 41.9784 46.7829 41.7355C47.1807 41.4775 47.4312 41.0424 47.4536 40.5711C47.4748 40.1504 47.1791 39.6403 46.5999 38.6407C46.5799 38.6067 46.56 38.5721 46.5396 38.5368L42.3608 31.3881L42.3132 31.3076C41.726 30.3146 41.4296 29.8132 41.0489 29.6194C40.6291 29.4056 40.1349 29.4056 39.7151 29.6194C39.3318 29.8183 39.0223 30.3416 38.4106 31.3955L34.2466 38.5442L34.2324 38.5688C33.6228 39.621 33.3182 40.1468 33.3402 40.5783C33.3696 41.05 33.6128 41.4847 34.0108 41.7427C34.3719 41.9784 34.991 41.9784 36.2218 41.9784Z" fill="#E84142"/>
</g>
<defs>
<clipPath id="clip0_2498_16632">
<rect width="60" height="60" fill="white"/>
</clipPath>
</defs>
</svg>
