<svg width="60" height="60" viewBox="0 0 60 60" fill="none" xmlns="http://www.w3.org/2000/svg">
<path fill-rule="evenodd" clip-rule="evenodd" d="M30 0C46.566 0 60 13.434 60 30C60 46.566 46.566 60 30 60C13.434 60 0 46.566 0 30C0 13.434 13.434 0 30 0Z" fill="#0055D5"/>
<path fill-rule="evenodd" clip-rule="evenodd" d="M16.3199 19.848C16.3199 19.848 13.0919 17.268 12.8699 23.64C12.6479 28.578 12.6539 38.166 14.9399 42.696C15.9059 44.4 17.1959 43.878 19.5959 42.18C21.6839 40.638 29.2379 33.678 32.4359 30.624C35.6339 27.57 42.1199 18.81 43.4699 24.762C44.0039 27.264 44.6639 29.388 44.1599 34.938C44.0039 36.648 43.2719 37.944 39.9359 35.628C37.4159 34.008 35.0219 32.268 35.0219 32.268C35.0219 32.268 34.5599 31.44 33.4679 32.784C32.6099 33.858 32.1779 34.122 33.5519 34.938C34.9319 35.754 41.9099 40.566 44.5859 41.316C46.7939 41.958 48.0539 41.946 48.1199 37.608C48.1079 34.164 47.9099 24.306 46.6559 20.106C45.7079 17.49 44.3159 16.302 41.3099 19.242C38.3039 22.182 28.8239 31.374 23.6399 35.538C20.2019 38.118 18.7319 40.446 17.4359 36.144C16.5239 32.886 15.3419 22.746 19.0739 24.678C21.4079 25.794 22.5719 25.788 21.6599 26.49C20.7479 27.186 18.1259 29.592 18.1259 29.592C18.1259 29.592 17.3159 30.246 17.6939 31.662C18.0719 32.652 18.0719 33.144 20.1059 31.23C22.1399 29.316 23.6399 27.87 23.6399 27.87C23.6399 27.87 23.9639 27.36 24.9299 28.302C25.8959 29.244 26.0519 29.508 26.0519 29.508C26.0519 29.508 26.3099 30.21 27.3419 28.992C28.3799 27.774 29.0459 27.03 27.0839 25.89C25.1279 24.738 16.3199 19.848 16.3199 19.848Z" fill="white"/>
</svg>
