<svg width="61" height="60" viewBox="0 0 61 60" fill="none" xmlns="http://www.w3.org/2000/svg">
<circle cx="30.2227" cy="30" r="30" fill="#F0B90B"/>
<path d="M17.8245 30L17.8444 37.3497L24.0291 41.0245V45.3274L14.2249 39.5212V27.8508L17.8245 30ZM17.8245 22.6503V26.9332L14.2227 24.7817V20.4989L17.8245 18.3474L21.444 20.4989L17.8245 22.6503ZM26.612 20.4989L30.2138 18.3474L33.8333 20.4989L30.2138 22.6503L26.612 20.4989Z" fill="white"/>
<path d="M20.4277 35.8263V31.5234L24.0296 33.6748V37.9577L20.4277 35.8263ZM26.6125 42.5657L30.2143 44.7171L33.8338 42.5657V46.8485L30.2143 49L26.6125 46.8485V42.5657ZM38.9995 20.4989L42.6014 18.3474L46.2209 20.4989V24.7817L42.6014 26.9332V22.6503L38.9995 20.4989ZM42.6014 37.3497L42.6213 30L46.2231 27.8485V39.5189L36.4189 45.3252V41.0223L42.6014 37.3497Z" fill="white"/>
<path d="M40.0179 35.8263L36.416 37.9577V33.6748L40.0179 31.5234V35.8263Z" fill="white"/>
<path d="M40.0186 24.1737L40.0384 28.4766L33.8361 32.1514V39.5189L30.2342 41.6503L26.6323 39.5189V32.1514L20.4299 28.4766V24.1737L24.0473 22.0223L30.2121 25.7149L36.4145 22.0223L40.034 24.1737H40.0186ZM20.4277 16.8263L30.2143 11L40.0186 16.8263L36.4167 18.9777L30.2143 15.2851L24.0296 18.9777L20.4277 16.8263Z" fill="white"/>
</svg>
