<svg width="60" height="60" viewBox="0 0 60 60" fill="none" xmlns="http://www.w3.org/2000/svg">
<path d="M30 60C46.5685 60 60 46.5685 60 30C60 13.4315 46.5685 0 30 0C13.4315 0 0 13.4315 0 30C0 46.5685 13.4315 60 30 60Z" fill="#AD745B"/>
<path fill-rule="evenodd" clip-rule="evenodd" d="M25.5736 15C25.5004 15 25.4331 15.04 25.398 15.1042L20.1617 24.7042C20.089 24.8375 20.1854 25 20.3372 25H39.6634C39.8152 25 39.9117 24.8375 39.839 24.7042L34.6026 15.1042C34.5676 15.04 34.5003 15 34.4271 15H25.5736ZM12.8978 30.1042C12.9328 30.04 13.0002 30 13.0734 30H21.9268C22 30 22.0674 30.04 22.1024 30.1042L27.3388 39.7042C27.4115 39.8375 27.315 40 27.1632 40H7.837C7.68519 40 7.58873 39.8375 7.66142 39.7042L12.8978 30.1042ZM37.8975 30.1042C37.9326 30.04 37.9999 30 38.0731 30H46.9266C46.9998 30 47.0671 30.04 47.1022 30.1042L52.3385 39.7042C52.4112 39.8375 52.3148 40 52.1629 40H32.8368C32.6849 40 32.5885 39.8375 32.6612 39.7042L37.8975 30.1042Z" fill="#FBC09F"/>
</svg>
