<svg width="61" height="60" viewBox="0 0 61 60" fill="none" xmlns="http://www.w3.org/2000/svg">
<path d="M60.2227 30C60.2227 46.5685 46.7912 60 30.2227 60C13.6541 60 0.222656 46.5685 0.222656 30C0.222656 13.4315 13.6541 0 30.2227 0C46.7912 0 60.2227 13.4315 60.2227 30Z" fill="#E3F2FF"/>
<g clip-path="url(#clip0_1985_14928)">
<path d="M30.2214 17.8092C34.4578 17.8092 37.892 15.8372 37.892 13.4046C37.892 10.972 34.4578 9 30.2214 9C25.985 9 22.5508 10.972 22.5508 13.4046C22.5508 15.8372 25.985 17.8092 30.2214 17.8092Z" fill="#E6007A"/>
<path d="M30.2214 50.997C34.4578 50.997 37.892 49.025 37.892 46.5924C37.892 44.1598 34.4578 42.1878 30.2214 42.1878C25.985 42.1878 22.5508 44.1598 22.5508 46.5924C22.5508 49.025 25.985 50.997 30.2214 50.997Z" fill="#E6007A"/>
<path d="M19.5312 23.9062C21.6494 20.284 21.6356 16.3611 19.5005 15.1439C17.3654 13.9268 13.9174 15.8765 11.7992 19.4986C9.68099 23.1208 9.69474 27.0437 11.8299 28.2609C13.965 29.478 17.413 27.5283 19.5312 23.9062Z" fill="#E6007A"/>
<path d="M48.6393 40.4981C50.7574 36.876 50.7449 32.9537 48.6112 31.7374C46.4775 30.5211 43.0306 32.4714 40.9125 36.0935C38.7943 39.7157 38.8069 43.638 40.9406 44.8543C43.0742 46.0706 46.5211 44.1203 48.6393 40.4981Z" fill="#E6007A"/>
<path d="M19.5024 44.8533C21.6376 43.6362 21.6513 39.7132 19.5332 36.091C17.415 32.4689 13.967 30.5192 11.8318 31.7364C9.69669 32.9535 9.68295 36.8765 11.8011 40.4986C13.9193 44.1207 17.3673 46.0704 19.5024 44.8533Z" fill="#E6007A"/>
<path d="M48.6131 28.2618C50.7468 27.0455 50.7594 23.1232 48.6412 19.5011C46.523 15.8789 43.0762 13.9286 40.9425 15.1449C38.8088 16.3612 38.7962 20.2835 40.9144 23.9057C43.0326 27.5278 46.4794 29.4781 48.6131 28.2618Z" fill="#E6007A"/>
</g>
<defs>
<clipPath id="clip0_1985_14928">
<rect width="40" height="42" fill="white" transform="translate(10.2227 9)"/>
</clipPath>
</defs>
</svg>
