<svg width="60" height="60" viewBox="0 0 60 60" fill="none" xmlns="http://www.w3.org/2000/svg">
<circle cx="30" cy="30" r="30" fill="#E3F2FF"/>
<g clip-path="url(#clip0_2498_16618)">
<path fill-rule="evenodd" clip-rule="evenodd" d="M40.8393 19.1437C40.6983 19.0031 40.6138 18.8625 40.6138 18.6656C40.6138 18.4688 40.6983 18.3281 40.8393 18.1875C41.1212 17.9344 41.5723 17.9344 41.8824 18.1875C42.0233 18.3281 42.1079 18.4688 42.1079 18.6656C42.1079 18.8625 42.0233 19.0031 41.8824 19.1437C41.7414 19.2562 41.5441 19.3406 41.3749 19.3406C41.1776 19.3687 40.9803 19.3125 40.8393 19.1437Z" fill="#0D022B"/>
<path fill-rule="evenodd" clip-rule="evenodd" d="M39.0352 21.0844C38.9225 20.9438 38.8379 20.8031 38.8379 20.6063C38.8379 20.4094 38.9225 20.2688 39.0352 20.1281C39.2889 19.875 39.74 19.875 39.9937 20.1281C40.1065 20.2688 40.1911 20.4094 40.1911 20.6063C40.1911 20.8031 40.1065 20.9438 39.9937 21.0844C39.8528 21.1969 39.7118 21.2813 39.5145 21.2813C39.3171 21.2813 39.1762 21.1969 39.0352 21.0844Z" fill="#0D022B"/>
<path fill-rule="evenodd" clip-rule="evenodd" d="M37.0621 22.9406C36.9493 22.8281 36.8647 22.6594 36.8647 22.4625C36.8647 22.2656 36.9493 22.125 37.0621 21.9844C37.3158 21.7313 37.7669 21.7313 38.0206 21.9844C38.1333 22.0969 38.2179 22.2656 38.2179 22.4625C38.2179 22.6594 38.1333 22.8 38.0206 22.9406C37.8796 23.0813 37.7387 23.1375 37.5413 23.1375C37.344 23.1375 37.1748 23.0531 37.0621 22.9406Z" fill="#0D022B"/>
<path fill-rule="evenodd" clip-rule="evenodd" d="M35.1733 24.825C35.0323 24.7125 34.9478 24.5438 34.9478 24.3469C34.9478 24.15 35.0323 24.0094 35.1733 23.8688C35.4552 23.6156 35.9063 23.6156 36.2164 23.8688C36.3573 23.9813 36.4419 24.15 36.4419 24.3469C36.4419 24.5438 36.3573 24.7125 36.2164 24.825C36.0754 24.9656 35.8781 25.0219 35.7089 25.0219C35.5116 25.0219 35.3424 24.9938 35.1733 24.825Z" fill="#0D022B"/>
<path fill-rule="evenodd" clip-rule="evenodd" d="M33.3687 26.7094C33.2278 26.5969 33.1714 26.4281 33.1714 26.2313C33.1714 26.0344 33.256 25.8938 33.3687 25.7531C33.6224 25.5 34.0735 25.5 34.3272 25.7531C34.4682 25.8656 34.5246 26.0344 34.5246 26.2313C34.5246 26.4281 34.44 26.5969 34.3272 26.7094C34.2145 26.85 34.0453 26.9063 33.848 26.9063C33.6788 26.9344 33.4815 26.8781 33.3687 26.7094Z" fill="#0D022B"/>
<path fill-rule="evenodd" clip-rule="evenodd" d="M31.1982 28.1156C31.1982 27.9187 31.2828 27.7781 31.3956 27.6375C31.6493 27.3844 32.1004 27.3844 32.3541 27.6375C32.495 27.7781 32.5514 27.9187 32.5514 28.1156C32.5514 28.3125 32.4668 28.4531 32.3541 28.5937C32.2413 28.7062 32.0722 28.7906 31.8748 28.7906C31.6775 28.7906 31.5365 28.7062 31.3956 28.5937C31.2546 28.4812 31.1982 28.3125 31.1982 28.1156Z" fill="#0D022B"/>
<path fill-rule="evenodd" clip-rule="evenodd" d="M27.6744 32.2781C27.5616 32.1656 27.4771 31.9969 27.4771 31.8C27.4771 31.6031 27.5616 31.4625 27.6744 31.3219C27.9281 31.0687 28.3792 31.0687 28.6329 31.3219C28.7738 31.4625 28.8302 31.6031 28.8302 31.8C28.8302 31.9969 28.7456 32.1375 28.6329 32.2781C28.5201 32.4187 28.351 32.475 28.1536 32.475C27.9845 32.5031 27.8153 32.4469 27.6744 32.2781Z" fill="#0D022B"/>
<path fill-rule="evenodd" clip-rule="evenodd" d="M25.7289 34.1625C25.588 34.05 25.5034 33.8812 25.5034 33.6844C25.5034 33.4875 25.588 33.3469 25.7289 33.2062C26.0109 32.9531 26.4619 32.9531 26.772 33.2062C26.913 33.3469 26.9975 33.4875 26.9975 33.6844C26.9975 33.8812 26.913 34.0219 26.772 34.1625C26.6311 34.3031 26.4337 34.3594 26.2646 34.3594C26.039 34.3875 25.8699 34.3031 25.7289 34.1625Z" fill="#0D022B"/>
<path fill-rule="evenodd" clip-rule="evenodd" d="M23.8966 36.075C23.7838 35.9625 23.6992 35.7937 23.6992 35.5969C23.6992 35.4 23.7838 35.2312 23.8966 35.1187C24.1503 34.8656 24.6013 34.8656 24.8551 35.1187C24.9678 35.2312 25.0524 35.4 25.0524 35.5969C25.0524 35.7937 24.9678 35.9344 24.8551 36.075C24.7141 36.2156 24.5731 36.2719 24.3758 36.2719C24.1785 36.2719 24.0657 36.1875 23.8966 36.075Z" fill="#0D022B"/>
<path fill-rule="evenodd" clip-rule="evenodd" d="M22.0079 37.9594C21.8669 37.8469 21.8105 37.6781 21.8105 37.4812C21.8105 37.2844 21.8951 37.1437 22.0079 37.0031C22.2616 36.75 22.7127 36.75 22.9664 37.0031C23.0791 37.1437 23.1637 37.2844 23.1637 37.4812C23.1637 37.6781 23.0791 37.8469 22.9664 37.9594C22.8254 38.1 22.6845 38.1562 22.4871 38.1562C22.318 38.1562 22.1206 38.1 22.0079 37.9594Z" fill="#0D022B"/>
<path fill-rule="evenodd" clip-rule="evenodd" d="M20.0624 39.8437C19.9215 39.7312 19.8369 39.5625 19.8369 39.3656C19.8369 39.1687 19.9215 39.0281 20.0624 38.8875C20.3444 38.6344 20.7954 38.6344 21.0491 38.8875C21.1901 39.0281 21.2747 39.1687 21.2747 39.3656C21.2747 39.5625 21.1901 39.7312 21.0491 39.8437C20.9082 39.9562 20.7108 40.0406 20.5417 40.0406C20.3444 40.0406 20.1752 39.9844 20.0624 39.8437Z" fill="#0D022B"/>
<path fill-rule="evenodd" clip-rule="evenodd" d="M18.2022 41.7281C18.0613 41.5875 18.0049 41.4469 18.0049 41.25C18.0049 41.0531 18.0895 40.9125 18.2022 40.7719C18.4559 40.5187 18.907 40.5187 19.1607 40.7719C19.3017 40.9125 19.3581 41.0531 19.3581 41.25C19.3581 41.4469 19.2735 41.5875 19.1607 41.7281C19.048 41.8406 18.8788 41.925 18.6815 41.925C18.5405 41.9531 18.3714 41.8688 18.2022 41.7281Z" fill="#0D022B"/>
<path fill-rule="evenodd" clip-rule="evenodd" d="M19.1607 19.1437C19.2735 19.0031 19.3581 18.8625 19.3581 18.6656C19.3581 18.4688 19.2735 18.3281 19.1607 18.1875C18.907 17.9344 18.4559 17.9344 18.2022 18.1875C18.0613 18.3281 18.0049 18.4688 18.0049 18.6656C18.0049 18.8625 18.0895 19.0031 18.2022 19.1437C18.315 19.2562 18.4841 19.3406 18.6815 19.3406C18.8788 19.3687 19.048 19.3125 19.1607 19.1437Z" fill="#0D022B"/>
<path fill-rule="evenodd" clip-rule="evenodd" d="M21.0494 21.0844C21.1903 20.9438 21.2749 20.8031 21.2749 20.6063C21.2749 20.4094 21.1903 20.2688 21.0494 20.1281C20.7674 19.875 20.3164 19.875 20.0063 20.1281C19.8653 20.2688 19.7808 20.4094 19.7808 20.6063C19.7808 20.8031 19.8653 20.9438 20.0063 21.0844C20.1472 21.1969 20.3446 21.2813 20.5137 21.2813C20.7111 21.2531 20.9084 21.1969 21.0494 21.0844Z" fill="#0D022B"/>
<path fill-rule="evenodd" clip-rule="evenodd" d="M22.9664 22.9406C23.0791 22.8281 23.1637 22.6594 23.1637 22.4625C23.1637 22.2656 23.0791 22.125 22.9664 21.9844C22.7127 21.7313 22.2616 21.7313 22.0079 21.9844C21.8951 22.0969 21.8105 22.2656 21.8105 22.4625C21.8105 22.6594 21.8951 22.8 22.0079 22.9406C22.1488 23.0813 22.2898 23.1375 22.4871 23.1375C22.6563 23.1375 22.8254 23.0531 22.9664 22.9406Z" fill="#0D022B"/>
<path fill-rule="evenodd" clip-rule="evenodd" d="M24.8551 24.825C24.9678 24.7125 25.0524 24.5438 25.0524 24.3469C25.0524 24.15 24.9678 24.0094 24.8551 23.8688C24.6013 23.6156 24.1503 23.6156 23.8966 23.8688C23.7838 23.9813 23.6992 24.15 23.6992 24.3469C23.6992 24.5438 23.7838 24.7125 23.8966 24.825C24.0375 24.9656 24.1785 25.0219 24.3758 25.0219C24.545 25.0219 24.7141 24.9938 24.8551 24.825Z" fill="#0D022B"/>
<path fill-rule="evenodd" clip-rule="evenodd" d="M26.7156 26.7094C26.8566 26.5969 26.9412 26.4281 26.9412 26.2313C26.9412 26.0344 26.8566 25.8938 26.7156 25.7531C26.4619 25.5 25.9827 25.5 25.7289 25.7531C25.588 25.8656 25.5034 26.0344 25.5034 26.2313C25.5034 26.4281 25.588 26.5969 25.7289 26.7094C25.8699 26.85 26.0672 26.9063 26.2364 26.9063C26.4055 26.9344 26.6029 26.8781 26.7156 26.7094Z" fill="#0D022B"/>
<path fill-rule="evenodd" clip-rule="evenodd" d="M28.8302 28.1156C28.8302 27.9187 28.7456 27.7781 28.6329 27.6375C28.3792 27.3844 27.9281 27.3844 27.6744 27.6375C27.5334 27.7781 27.4771 27.9187 27.4771 28.1156C27.4771 28.3125 27.5616 28.4531 27.6744 28.5937C27.7872 28.7062 27.9563 28.7906 28.1536 28.7906C28.351 28.7906 28.4919 28.7062 28.6329 28.5937C28.7738 28.4812 28.8302 28.3125 28.8302 28.1156Z" fill="#0D022B"/>
<path fill-rule="evenodd" clip-rule="evenodd" d="M30.5216 30.5063C30.6625 30.3656 30.7189 30.225 30.7189 30.0281C30.7189 29.8312 30.6343 29.6906 30.5216 29.55C30.2678 29.2969 29.8168 29.2969 29.5631 29.55C29.4221 29.6906 29.3657 29.8312 29.3657 30.0281C29.3657 30.225 29.4503 30.3656 29.5631 30.5063C29.6758 30.6188 29.845 30.7031 30.0423 30.7031C30.2396 30.7031 30.4088 30.6188 30.5216 30.5063Z" fill="#0D022B"/>
<path fill-rule="evenodd" clip-rule="evenodd" d="M32.4105 32.2781C32.5514 32.1656 32.636 31.9969 32.636 31.8C32.636 31.6031 32.5514 31.4625 32.4105 31.3219C32.1285 31.0687 31.6775 31.0687 31.4238 31.3219C31.2828 31.4625 31.1982 31.6031 31.1982 31.8C31.1982 31.9969 31.2828 32.1375 31.4238 32.2781C31.5647 32.4187 31.7621 32.475 31.9312 32.475C32.0722 32.5031 32.2695 32.4469 32.4105 32.2781Z" fill="#0D022B"/>
<path fill-rule="evenodd" clip-rule="evenodd" d="M34.3272 34.1625C34.44 34.05 34.5246 33.8812 34.5246 33.6844C34.5246 33.4875 34.44 33.3469 34.3272 33.2062C34.0735 32.9531 33.6224 32.9531 33.3687 33.2062C33.256 33.3469 33.1714 33.4875 33.1714 33.6844C33.1714 33.8812 33.256 34.0219 33.3687 34.1625C33.5097 34.3031 33.6506 34.3594 33.848 34.3594C33.9889 34.3875 34.1863 34.3031 34.3272 34.1625Z" fill="#0D022B"/>
<path fill-rule="evenodd" clip-rule="evenodd" d="M36.2159 36.075C36.3287 35.9625 36.4132 35.7937 36.4132 35.5969C36.4132 35.4 36.3287 35.2312 36.2159 35.1187C35.9622 34.8656 35.5111 34.8656 35.2574 35.1187C35.1446 35.2312 35.0601 35.4 35.0601 35.5969C35.0601 35.7937 35.1446 35.9344 35.2574 36.075C35.3984 36.2156 35.5393 36.2719 35.7366 36.2719C35.934 36.2719 36.0749 36.1875 36.2159 36.075Z" fill="#0D022B"/>
<path fill-rule="evenodd" clip-rule="evenodd" d="M37.9923 37.9594C38.1332 37.8469 38.1896 37.6781 38.1896 37.4812C38.1896 37.2844 38.105 37.1437 37.9923 37.0031C37.7385 36.75 37.2875 36.75 37.0338 37.0031C36.921 37.1437 36.8364 37.2844 36.8364 37.4812C36.8364 37.6781 36.921 37.8469 37.0338 37.9594C37.1747 38.1 37.3157 38.1562 37.513 38.1562C37.6822 38.1562 37.8795 38.1 37.9923 37.9594Z" fill="#0D022B"/>
<path fill-rule="evenodd" clip-rule="evenodd" d="M39.9937 39.8437C40.1347 39.7312 40.1911 39.5625 40.1911 39.3656C40.1911 39.1687 40.1065 39.0281 39.9937 38.8875C39.74 38.6344 39.2889 38.6344 39.0352 38.8875C38.8943 39.0281 38.8379 39.1687 38.8379 39.3656C38.8379 39.5625 38.9225 39.7312 39.0352 39.8437C39.148 39.9562 39.3171 40.0406 39.5145 40.0406C39.7118 40.0406 39.881 39.9844 39.9937 39.8437Z" fill="#0D022B"/>
<path fill-rule="evenodd" clip-rule="evenodd" d="M41.8826 41.7281C42.0236 41.5875 42.1082 41.4469 42.1082 41.25C42.1082 41.0531 42.0236 40.9125 41.8826 40.7719C41.6007 40.5187 41.1497 40.5187 40.8959 40.7719C40.755 40.9125 40.6704 41.0531 40.6704 41.25C40.6704 41.4469 40.755 41.5875 40.8959 41.7281C41.0369 41.8406 41.2342 41.925 41.4034 41.925C41.5443 41.9531 41.7135 41.8688 41.8826 41.7281Z" fill="#0D022B"/>
<path fill-rule="evenodd" clip-rule="evenodd" d="M23.6431 19.6781C25.5601 18.4125 27.6745 17.8219 30.0143 17.7938C32.2978 17.7938 34.4121 18.4125 36.3855 19.6781L40.445 15.6281C37.2594 13.2094 33.8201 12 30.0143 12C26.2085 12 22.7128 13.2094 19.6118 15.6281L23.6431 19.6781Z" fill="#0D022B"/>
<path fill-rule="evenodd" clip-rule="evenodd" d="M19.5834 36.3C18.2866 34.3312 17.6664 32.25 17.6664 30C17.6664 27.7219 18.2866 25.6125 19.5834 23.7L15.5521 19.6781C13.184 22.7719 12 26.2031 12 30.0281C12 33.7969 13.184 37.2562 15.5803 40.4062L19.5834 36.3Z" fill="#0D022B"/>
<path fill-rule="evenodd" clip-rule="evenodd" d="M36.3572 40.3219C34.4402 41.6156 32.3259 42.2906 30.0424 42.3188C27.7025 42.3188 25.56 41.7 23.643 40.35L19.5835 44.3719C22.7127 46.8187 26.2084 48.0281 30.0424 48C33.8482 47.9719 37.2875 46.7344 40.3885 44.3719L36.3572 40.3219Z" fill="#0D022B"/>
<path fill-rule="evenodd" clip-rule="evenodd" d="M40.332 23.6437C41.6288 25.6125 42.3054 27.75 42.249 30.0562C42.2208 32.3062 41.5724 34.3594 40.332 36.2437L44.3915 40.2656C46.7878 37.1719 48.0282 33.7406 48.0282 29.9719C48.0564 26.1469 46.8442 22.6594 44.3915 19.5375L40.332 23.6437Z" fill="#0D022B"/>
<path fill-rule="evenodd" clip-rule="evenodd" d="M44.5607 41.5875C46.1112 41.5875 47.408 42.8531 47.408 44.4281C47.408 45.975 46.1394 47.2687 44.5607 47.2687C43.0102 47.2687 41.7134 46.0031 41.7134 44.4281C41.7134 42.8531 42.982 41.5875 44.5607 41.5875Z" fill="#0D022B"/>
<path fill-rule="evenodd" clip-rule="evenodd" d="M15.5237 41.5875C17.0742 41.5875 18.3428 42.8531 18.3428 44.4281C18.3428 45.975 17.0742 47.2687 15.5237 47.2687C13.9732 47.2687 12.7046 46.0031 12.7046 44.4281C12.7046 42.8531 13.9732 41.5875 15.5237 41.5875Z" fill="#0D022B"/>
<path fill-rule="evenodd" clip-rule="evenodd" d="M44.617 12.6188C46.1675 12.6188 47.4361 13.8844 47.4361 15.4594C47.4361 17.0344 46.1675 18.3 44.617 18.3C43.0665 18.3 41.7979 17.0344 41.7979 15.4594C41.7979 13.8844 43.0665 12.6188 44.617 12.6188Z" fill="#0D022B"/>
<path fill-rule="evenodd" clip-rule="evenodd" d="M15.4674 12.6188C17.0179 12.6188 18.3147 13.8844 18.3147 15.4312C18.3147 16.9781 17.0461 18.2437 15.4674 18.2437C13.9169 18.2437 12.6201 16.9781 12.6201 15.4312C12.6201 13.8844 13.8887 12.6188 15.4674 12.6188Z" fill="#0D022B"/>
</g>
<defs>
<clipPath id="clip0_2498_16618">
<rect width="36" height="36" fill="white" transform="translate(12 12)"/>
</clipPath>
</defs>
</svg>
