<svg width="61" height="60" viewBox="0 0 61 60" fill="none" xmlns="http://www.w3.org/2000/svg">
<path d="M30.2227 60C46.7912 60 60.2227 46.5685 60.2227 30C60.2227 13.4315 46.7912 0 30.2227 0C13.6541 0 0.222656 13.4315 0.222656 30C0.222656 46.5685 13.6541 60 30.2227 60Z" fill="#E3F2FF"/>
<path d="M30.2195 7.99988L29.9136 9.00259V38.0963L30.2195 38.3908L44.2148 30.408L30.2195 7.99988Z" fill="#343434"/>
<path d="M30.2193 7.99988L16.2236 30.408L30.2193 38.3908V24.2695V7.99988Z" fill="#8C8C8C"/>
<path d="M30.2198 40.9477L30.0474 41.1506V51.5142L30.2198 51.9999L44.2236 32.9691L30.2198 40.9477Z" fill="#3C3C3B"/>
<path d="M30.2193 51.9999V40.9477L16.2236 32.9691L30.2193 51.9999Z" fill="#8C8C8C"/>
<path d="M30.2188 38.3907L44.214 30.408L30.2188 24.2695V38.3907Z" fill="#141414"/>
<path d="M16.2236 30.408L30.2193 38.3907V24.2695L16.2236 30.408Z" fill="#393939"/>
</svg>
