<svg width="60" height="60" viewBox="0 0 60 60" fill="none" xmlns="http://www.w3.org/2000/svg">
<mask id="mask0_2498_16623" style="mask-type:alpha" maskUnits="userSpaceOnUse" x="0" y="0" width="60" height="60">
<path fill-rule="evenodd" clip-rule="evenodd" d="M0 0H60V60H0V0Z" fill="white"/>
</mask>
<g mask="url(#mask0_2498_16623)">
<path fill-rule="evenodd" clip-rule="evenodd" d="M30 60C13.5 60 0 46.5 0 29.85C0.15 13.35 13.5 -0.15 30.15 1.6694e-07C46.65 0.15 60 13.5 60 30.3C59.85 46.65 46.5 60 30 60Z" fill="#0090FF"/>
<path fill-rule="evenodd" clip-rule="evenodd" d="M32.8501 26.4L31.9501 31.2L40.5001 32.4L39.9001 34.65L31.5001 33.45C30.9001 35.4 30.6001 37.5 29.8501 39.3C29.1001 41.4 28.3501 43.5 27.4501 45.45C26.2501 48 24.1501 49.8 21.3001 50.25C19.6501 50.55 17.8501 50.4 16.5001 49.35C16.0501 49.05 15.6001 48.45 15.6001 48C15.6001 47.4 15.9001 46.65 16.3501 46.35C16.6501 46.2 17.4001 46.35 17.8501 46.5C18.3001 46.95 18.7501 47.55 19.0501 48.15C19.9501 49.35 21.1501 49.5 22.3501 48.6C23.7001 47.4 24.4501 45.75 24.9001 44.1C25.8001 40.5 26.7001 37.05 27.4501 33.45V32.85L19.5001 31.65L19.8001 29.4L28.0501 30.6L29.1001 25.95L20.5501 24.6L20.8501 22.2L29.7001 23.4C30.0001 22.5 30.1501 21.75 30.4501 21C31.2001 18.3 31.9501 15.6 33.7501 13.2C35.5501 10.8 37.6501 9.3 40.8001 9.45C42.1501 9.45 43.5001 9.9 44.4001 10.95C44.5501 11.1 44.8501 11.4 44.8501 11.7C44.8501 12.3 44.8501 13.05 44.4001 13.5C43.8001 13.95 43.0501 13.8 42.4501 13.2C42.0001 12.75 41.7001 12.3 41.2501 11.85C40.3501 10.65 39.0001 10.5 37.9501 11.55C37.2001 12.3 36.4501 13.35 36.0001 14.4C34.9501 17.55 34.2001 20.85 33.1501 24.15L41.4001 25.35L40.8001 27.6L32.8501 26.4Z" fill="white"/>
</g>
</svg>
