<svg width="60" height="60" viewBox="0 0 60 60" fill="none" xmlns="http://www.w3.org/2000/svg">
<path d="M30 60C46.5685 60 60 46.5685 60 30C60 13.4315 46.5685 0 30 0C13.4315 0 0 13.4315 0 30C0 46.5685 13.4315 60 30 60Z" fill="#13B5EC"/>
<path fill-rule="evenodd" clip-rule="evenodd" d="M32.15 23.5188L39.725 19.1V27.9375L32.15 23.5188ZM39.725 42.4562L29.625 48.3479L19.525 42.4562V32.1458L29.625 38.0375L39.725 32.1458V42.4562ZM19.525 19.1L27.1 23.5188L19.525 27.9375V19.1ZM30.8875 25.6229L38.4625 30.0417L30.8875 34.4604V25.6229ZM28.3625 34.4604L20.7875 30.0417L28.3625 25.6229V34.4604ZM38.4625 16.9958L29.625 22.0458L20.7875 16.9958L29.625 11.7354L38.4625 16.9958ZM17 16.1542V43.7188L29.625 50.8729L42.25 43.7188V16.1542L29.625 9L17 16.1542Z" fill="white"/>
</svg>
