<svg width="60" height="60" viewBox="0 0 60 60" fill="none" xmlns="http://www.w3.org/2000/svg">
<circle cx="30" cy="30" r="30" fill="url(#paint0_linear_2498_16628)"/>
<g clip-path="url(#clip0_2498_16628)">
<path d="M20.1774 16.002C28.7838 15.9993 37.3907 15.9993 45.9982 16.002C46.0008 18.7567 46.0008 21.5109 45.9982 24.2646C37.3915 24.2672 28.7846 24.2672 20.1774 24.2646C20.1746 21.5099 20.1746 18.7557 20.1774 16.002Z" fill="#02A6C2"/>
<path d="M10.0108 27.3732C12.7874 27.359 15.5646 27.359 18.3422 27.3732C18.3566 30.1227 18.3566 32.8726 18.3422 35.623C15.5647 35.6372 12.7876 35.6374 10.0108 35.6237C9.9964 32.8738 9.9964 30.1236 10.0108 27.3732Z" fill="#5FCADE"/>
<path d="M20.1835 27.3732C26.3955 27.3602 32.607 27.3602 38.8182 27.3732C38.8314 30.1227 38.8314 32.8727 38.8182 35.6231C32.6063 35.6359 26.3948 35.6359 20.1835 35.6231C20.1706 32.8735 20.1706 30.1235 20.1835 27.3732Z" fill="#5FCADE"/>
<path d="M20.1914 38.747C22.9634 38.7172 25.7348 38.7172 28.5058 38.747C28.5346 41.49 28.5351 44.2344 28.5071 46.9801C25.7351 47.0072 22.9637 47.0067 20.1929 46.9786C20.1641 44.2358 20.1636 41.4919 20.1914 38.747Z" fill="#ABEBF4"/>
</g>
<defs>
<linearGradient id="paint0_linear_2498_16628" x1="4.5" y1="50.5" x2="45.5" y2="22.5" gradientUnits="userSpaceOnUse">
<stop stop-color="#111F2B"/>
<stop offset="1" stop-color="#14343A"/>
</linearGradient>
<clipPath id="clip0_2498_16628">
<rect width="36" height="31" fill="white" transform="translate(10 16)"/>
</clipPath>
</defs>
</svg>
