<svg width="60" height="60" viewBox="0 0 60 60" fill="none" xmlns="http://www.w3.org/2000/svg">
<path d="M37.9896 15.6062C39.7306 13.8653 42.5907 13.8653 44.3316 15.6062C46.0725 17.3472 46.0725 20.2073 44.3316 21.9482C43.3057 22.9741 41.9378 23.4093 40.5389 23.2228C40.4767 23.2228 40.4145 23.2228 40.3212 23.2228C39.9171 23.1606 39.4819 23.2228 39.0466 23.4093C38.456 23.6891 38.0518 24.1554 37.8342 24.715C37.6166 25.2746 37.6477 25.8964 37.8964 26.456C39.3886 29.6891 38.7047 33.6062 36.1554 36.1244C33.6062 38.6736 29.7202 39.3575 26.487 37.8653C25.8964 37.5855 25.2746 37.5855 24.715 37.8031C24.1554 38.0207 23.6891 38.4249 23.4404 38.9845C23.285 39.3575 23.1917 39.7306 23.2228 40.1347C23.2228 40.1969 23.2228 40.2902 23.2228 40.3523C23.4715 41.7824 22.9741 43.2435 21.9793 44.2694C20.2383 46.0104 17.3782 46.0104 15.6373 44.2694C14.7979 43.43 14.3316 42.3109 14.3316 41.0984C14.3316 39.9171 14.7979 38.7668 15.6373 37.9275C16.6632 36.9016 18.0311 36.4663 19.4301 36.6529C19.4611 36.6529 19.4611 36.6529 19.4922 36.6529C19.6477 36.6839 19.8031 36.715 19.9585 36.715C20.3005 36.715 20.6114 36.6529 20.9223 36.4974C21.513 36.2176 21.9171 35.7513 22.1036 35.2228C22.3212 34.6632 22.3212 34.0104 22.0415 33.4197C20.5492 30.1554 21.2332 26.2694 23.7824 23.7513C26.3316 21.2021 30.2176 20.5181 33.4508 22.0104C34.0104 22.2902 34.6632 22.2902 35.2228 22.0725C35.7824 21.8549 36.2487 21.4508 36.5285 20.8912C36.7461 20.456 36.7772 19.9585 36.715 19.4922C36.4974 18.0933 36.9637 16.6321 37.9896 15.6062ZM33.544 33.513C35.4715 31.5855 35.4715 28.4456 33.544 26.487C31.6166 24.5596 28.4767 24.5596 26.5181 26.487C24.5907 28.4145 24.5907 31.5544 26.5181 33.513C28.4767 35.4404 31.6166 35.4404 33.544 33.513ZM30 0C46.57 0 60 13.4301 60 30C60 46.57 46.57 60 30 60C13.4301 60 0 46.57 0 30C0 13.4301 13.4301 0 30 0ZM45.9793 23.6269C48.6218 20.9845 48.6218 16.6943 45.9793 14.0207C43.3368 11.3782 39.0466 11.3782 36.3731 14.0207C35.3782 15.0155 34.7876 16.228 34.5078 17.4715C29.6891 15.6684 24.1865 16.8187 20.5181 20.487C16.8497 24.1554 15.6995 29.6891 17.5337 34.5078C16.2591 34.7565 15.0466 35.3782 14.0518 36.3731C11.4093 39.0155 11.4093 43.3057 14.0518 45.9793C16.6943 48.6218 20.9845 48.6218 23.658 45.9793C24.6528 44.9845 25.2746 43.7409 25.5233 42.4663C27.0155 43.0259 28.57 43.3057 30.1244 43.3057C33.5751 43.3057 36.9637 41.9689 39.4819 39.4508C43.1503 35.7824 44.3005 30.3109 42.5285 25.5233C43.772 25.2124 44.9845 24.5907 45.9793 23.6269Z" fill="#38A2FF"/>
</svg>
