<svg width="60" height="60" viewBox="0 0 60 60" fill="none" xmlns="http://www.w3.org/2000/svg">
<circle cx="30" cy="30" r="30" fill="#E3F2FF"/>
<g clip-path="url(#clip0_2498_16622)">
<path d="M41.8204 18C39.2563 18 36.4486 19.3943 33.4871 22.1446C32.0896 23.4366 30.8589 24.8437 29.9614 25.9566C29.9614 25.9566 31.3973 27.6068 32.9742 29.3849C33.8332 28.3103 35.0512 26.8521 36.4742 25.5345C39.1024 23.0784 40.8204 22.5795 41.8076 22.5795C45.4999 22.5795 48.4999 25.6752 48.4999 29.5C48.4999 33.2864 45.4999 36.3821 41.8076 36.4205C41.6281 36.4205 41.423 36.3949 41.1666 36.3437C42.2435 36.8426 43.4101 37.2008 44.4999 37.2008C51.2691 37.2008 52.6024 32.5317 52.6794 32.1991C52.8717 31.342 52.9871 30.4466 52.9871 29.5256C52.9742 23.168 47.9742 18 41.8204 18Z" fill="url(#paint0_linear_2498_16622)"/>
<path d="M18.1667 41C20.7308 41 23.5385 39.6057 26.5 36.8554C27.8974 35.5634 29.1282 34.1563 30.0257 33.0434C30.0257 33.0434 28.5898 31.3932 27.0128 29.6151C26.1539 30.6897 24.9359 32.1479 23.5128 33.4655C20.8846 35.896 19.1539 36.4205 18.1795 36.4205C14.4872 36.4205 11.4872 33.3248 11.4872 29.5C11.4872 25.7136 14.4872 22.6179 18.1795 22.5795C18.359 22.5795 18.5641 22.6051 18.8205 22.6563C17.7436 22.1574 16.5769 21.7992 15.4872 21.7992C8.71795 21.7864 7.38462 26.4555 7.30769 26.8009C7.11538 27.658 7 28.5534 7 29.4744C7 35.832 12 41 18.1667 41Z" fill="url(#paint1_linear_2498_16622)"/>
<path fill-rule="evenodd" clip-rule="evenodd" d="M23.3206 25.6368C22.577 24.9205 18.9616 21.9911 15.5 21.8888C9.32055 21.7353 7.51286 26.2125 7.34619 26.7881C8.5385 21.7736 12.9488 18.0256 18.1795 18C22.4488 18 26.7693 22.183 29.9616 25.9566L29.9744 25.9438C29.9744 25.9438 31.4103 27.594 32.9872 29.3721C32.9872 29.3721 34.7821 31.4828 36.6795 33.3376C37.4231 34.0539 41.0257 36.9449 44.4872 37.0473C50.8334 37.2264 52.5898 32.4933 52.6795 32.1351C51.5129 37.188 47.0898 40.9488 41.8334 40.9744C37.5641 40.9744 33.2436 36.7914 30.0385 33.0178C30.0385 33.0306 30.0257 33.0306 30.0257 33.0434C30.0257 33.0434 28.5898 31.3932 27.0129 29.6151C27.0257 29.6151 25.2308 27.4917 23.3206 25.6368ZM7.34619 26.8393C7.34619 26.8265 7.34619 26.8137 7.35901 26.8009C7.34619 26.8137 7.34619 26.8265 7.34619 26.8393Z" fill="#29ABE2"/>
</g>
<defs>
<linearGradient id="paint0_linear_2498_16622" x1="35.8185" y1="19.8224" x2="51.5883" y2="35.7574" gradientUnits="userSpaceOnUse">
<stop offset="0.21" stop-color="#F15A24"/>
<stop offset="0.6841" stop-color="#FBB03B"/>
</linearGradient>
<linearGradient id="paint1_linear_2498_16622" x1="24.1726" y1="39.1802" x2="8.40284" y2="23.2452" gradientUnits="userSpaceOnUse">
<stop offset="0.21" stop-color="#ED1E79"/>
<stop offset="0.8929" stop-color="#522785"/>
</linearGradient>
<clipPath id="clip0_2498_16622">
<rect width="46" height="23" fill="white" transform="translate(7 18)"/>
</clipPath>
</defs>
</svg>
