<svg width="60" height="60" viewBox="0 0 60 60" fill="none" xmlns="http://www.w3.org/2000/svg">
<path d="M30 60C46.5685 60 60 46.5685 60 30C60 13.4315 46.5685 0 30 0C13.4315 0 0 13.4315 0 30C0 46.5685 13.4315 60 30 60Z" fill="#969593"/>
<path d="M22.4665 19.9543C22.5002 19.886 22.5698 19.8427 22.646 19.8427H37.354C37.4302 19.8427 37.4998 19.886 37.5334 19.9543L46.3107 37.7873C46.3761 37.9202 46.2794 38.0756 46.1312 38.0756H13.8687C13.7206 38.0756 13.6239 37.9202 13.6893 37.7873L22.4665 19.9543Z" fill="#C2C0BC"/>
<path d="M22.4665 19.9543C22.5002 19.886 22.5698 19.8427 22.646 19.8427H36.8859C37.0774 19.8427 37.1594 20.0857 37.0071 20.2017L14.2232 37.5607C14.0553 37.6886 13.8293 37.5027 13.9226 37.3132L22.4665 19.9543Z" fill="#F5F9FE"/>
</svg>
