<svg width="61" height="60" viewBox="0 0 61 60" fill="none" xmlns="http://www.w3.org/2000/svg">
<path d="M30.2228 56.7531C44.998 56.7531 56.9758 44.7754 56.9758 30.0001C56.9758 15.2248 44.998 3.24707 30.2228 3.24707C15.4475 3.24707 3.46973 15.2248 3.46973 30.0001C3.46973 44.7754 15.4475 56.7531 30.2228 56.7531Z" fill="white"/>
<path d="M30.2227 0C24.2892 0 18.489 1.75947 13.5556 5.05591C8.62209 8.35235 4.77691 13.0377 2.50628 18.5195C0.235655 24.0013 -0.358445 30.0333 0.799111 35.8527C1.95667 41.6721 4.81389 47.0176 9.00947 51.2132C13.205 55.4088 18.5505 58.266 24.37 59.4236C30.1894 60.5811 36.2214 59.987 41.7032 57.7164C47.185 55.4458 51.8703 51.6006 55.1668 46.6671C58.4632 41.7336 60.2227 35.9334 60.2227 30C60.2341 26.0718 59.4718 22.1798 57.9791 18.5462C56.4864 14.9126 54.2926 11.6086 51.5231 8.82287C48.7535 6.0371 45.4624 3.82413 41.8375 2.3103C38.2127 0.796472 34.3252 0.0114303 30.397 0H30.2227ZM30.7311 31.017L27.6077 41.5496H44.3147C44.4254 41.5458 44.5357 41.5637 44.6394 41.6025C44.7431 41.6413 44.8382 41.7002 44.9192 41.7757C45.0001 41.8513 45.0654 41.9421 45.1112 42.0429C45.1571 42.1437 45.1826 42.2525 45.1864 42.3632V42.6392L43.7336 47.6513C43.6695 47.8884 43.5268 48.0966 43.3288 48.2418C43.1308 48.387 42.8893 48.4605 42.644 48.4504H17.075L21.3607 33.8499L16.5665 35.3027L17.6561 31.9613L22.4503 30.5085L28.4793 10.0242C28.5457 9.78852 28.689 9.58181 28.8865 9.43701C29.0839 9.2922 29.3242 9.21764 29.5689 9.22518H36.0338C36.1445 9.2213 36.2548 9.23927 36.3585 9.27807C36.4623 9.31686 36.5573 9.37572 36.6383 9.45128C36.7192 9.52684 36.7845 9.61761 36.8303 9.71842C36.8762 9.81922 36.9017 9.92807 36.9055 10.0387V10.3148L31.8207 27.6029L36.6149 26.1501L35.598 29.6368L30.7311 31.017Z" fill="#345D9D"/>
</svg>
