<svg width="60" height="60" viewBox="0 0 60 60" fill="none" xmlns="http://www.w3.org/2000/svg">
<path d="M30 60C46.5685 60 60 46.5685 60 30C60 13.4315 46.5685 0 30 0C13.4315 0 0 13.4315 0 30C0 46.5685 13.4315 60 30 60Z" fill="#172852"/>
<path d="M24.165 13.407C27.678 12.093 31.632 12.09 35.211 13.17C39.87 14.616 43.803 18.132 45.858 22.545C46.425 23.802 46.968 25.113 47.022 26.511C44.403 24.993 41.532 24.009 38.655 23.112C34.053 21.453 29.235 20.301 24.879 18.021C23.865 17.415 22.572 16.794 22.296 15.531C22.185 14.439 23.34 13.83 24.165 13.407Z" fill="#FFD83D"/>
<path d="M13.5601 24.027C14.5771 21.267 16.2451 18.705 18.5101 16.806C19.0861 21.543 21.1021 26.121 24.4321 29.565C28.4251 33.714 34.1131 36.261 39.9001 36.165C42.1981 36.237 44.4451 35.706 46.6861 35.277C44.4811 43.245 35.7481 48.534 27.6571 47.262C22.7731 46.638 18.2641 43.746 15.5431 39.663C12.4741 35.151 11.7001 29.16 13.5601 24.027Z" fill="#FFD83D"/>
<path d="M38.6548 23.112C41.5318 24.009 44.4028 24.993 47.0218 26.511L47.1988 26.604C47.4418 28.431 47.6188 30.294 47.2948 32.124C45.9778 31.566 44.9098 30.585 43.7938 29.718C41.6458 27.93 39.4528 25.884 38.6548 23.112Z" fill="#FF6F03"/>
</svg>
