<svg width="60" height="60" viewBox="0 0 60 60" fill="none" xmlns="http://www.w3.org/2000/svg">
<circle cx="30" cy="30" r="30" fill="#07105E"/>
<path fill-rule="evenodd" clip-rule="evenodd" d="M26.5498 27.6433L30.4573 36.4453L36.2731 33.0401L36.2775 33.0383V26.2225L26.5498 27.6433Z" fill="#2BBDF7"/>
<path fill-rule="evenodd" clip-rule="evenodd" d="M43.802 21.1122L40.172 19.7234L36.2925 19.4051V40.586L42.1126 43.993L46.7064 34.4442L43.809 25.2109L43.802 21.1122Z" fill="#2891F9"/>
<path fill-rule="evenodd" clip-rule="evenodd" d="M43.4372 19.4122L42.0891 22.8184H42.0874V43.9966L47.9084 40.5904V19.4122H43.4372Z" fill="#2BBDF7"/>
<path fill-rule="evenodd" clip-rule="evenodd" d="M42.1135 16L36.2925 19.4088L42.1135 22.8167L47.9345 19.4088L42.1135 16Z" fill="#2B6DEF"/>
<path fill-rule="evenodd" clip-rule="evenodd" d="M30.4614 29.6279V29.6262L24.6412 23.0113L13 19.4051V40.5833L18.8193 43.9912L20.4824 32.2712L24.6412 33.0385V33.0349L30.4623 36.4419V29.6279H30.4614Z" fill="#2891F9"/>
<path fill-rule="evenodd" clip-rule="evenodd" d="M18.8228 16L13 19.4079L30.4596 29.6342L33.0979 28.0899L36.2798 26.2255L18.8228 16Z" fill="#2B6DEF"/>
<path fill-rule="evenodd" clip-rule="evenodd" d="M18.8241 29.6276H18.8232V43.99L24.6443 40.583V33.0355L18.8241 29.6276Z" fill="#2BBDF7"/>
</svg>
