<svg width="60" height="60" viewBox="0 0 60 60" fill="none" xmlns="http://www.w3.org/2000/svg">
<circle cx="30" cy="30" r="30" fill="#E3F2FF"/>
<path d="M39.04 16.5333L32.7802 25.8333C32.3474 26.4667 33.1798 27.2333 33.7791 26.7L39.939 21.3333C40.1054 21.2 40.3385 21.3 40.3385 21.5333V38.3C40.3385 38.5333 40.0388 38.6333 39.9057 38.4667L21.2597 16.1333C20.6604 15.4 19.7947 15 18.8291 15H18.1632C16.4317 15 15 16.4333 15 18.2V41.8C15 43.5667 16.4317 45 18.1964 45C19.2952 45 20.3274 44.4333 20.9267 43.4667L27.1865 34.1667C27.6193 33.5333 26.7869 32.7667 26.1876 33.3L20.0277 38.6333C19.8613 38.7667 19.6282 38.6667 19.6282 38.4333V21.7C19.6282 21.4667 19.9279 21.3667 20.061 21.5333L38.707 43.8667C39.3063 44.6 40.2053 45 41.1376 45H41.8036C43.5683 45 45 43.5667 45 41.8V18.2C45 16.4333 43.5683 15 41.8036 15C40.6715 15 39.6393 15.5667 39.04 16.5333Z" fill="black"/>
</svg>
