<svg width="60" height="60" viewBox="0 0 60 60" fill="none" xmlns="http://www.w3.org/2000/svg">
<path d="M30 60C46.5685 60 60 46.5685 60 30C60 13.4315 46.5685 0 30 0C13.4315 0 0 13.4315 0 30C0 46.5685 13.4315 60 30 60Z" fill="#B4B7AB"/>
<path fill-rule="evenodd" clip-rule="evenodd" d="M15.3528 32.2394L20.7294 20.7394H30.5476L32.4277 24.7607H27.8606C27.6665 24.7607 27.4899 24.873 27.4077 25.0489L24.0459 32.2394H15.3528ZM22.6433 35.2394H11.1099C10.8904 35.2394 10.7452 35.0112 10.8382 34.8123L18.6182 18.1717C18.7415 17.9079 19.0064 17.7394 19.2976 17.7394H31.9794C32.2706 17.7394 32.5355 17.9079 32.6588 18.1717L35.7394 24.7607H40.8606C41.0547 24.7607 41.2313 24.873 41.3135 25.0489L49.2275 41.9759C49.2895 42.1086 49.1927 42.2607 49.0463 42.2607H19.6749C19.5285 42.2607 19.4317 42.1086 19.4937 41.9759L22.6433 35.2394Z" fill="white"/>
</svg>
