<svg width="60" height="60" viewBox="0 0 60 60" fill="none" xmlns="http://www.w3.org/2000/svg">
<g clip-path="url(#clip0_2498_16629)">
<path d="M43.4377 5.27861C41.8938 6.82252 40.4793 8.49586 39.222 10.2801L38.8244 10.1507C36.5317 9.40187 34.1557 8.93962 31.7612 8.78246C31.0401 8.72699 28.3498 8.72699 27.4716 8.78246C24.8183 8.95811 22.7844 9.35565 20.4731 10.16C20.3807 10.1969 20.2975 10.2247 20.2143 10.2524C18.9107 8.47737 17.4592 6.81327 15.8599 5.28785C23.5332 1.35873 32.5101 0.887235 40.544 3.98431C41.4038 4.30788 42.2451 4.68693 43.0679 5.09371L43.4377 5.27861Z" fill="#F00500"/>
<path d="M57.749 40.3449C56.5841 43.6638 54.8368 46.7424 52.5718 49.4234C51.3422 50.8657 49.9832 52.1877 48.5225 53.3896C45.1018 56.1446 41.108 58.1137 36.8461 59.1492C32.1311 60.2863 27.2128 60.2863 22.4978 59.1492C18.2267 58.1137 14.2421 56.1446 10.8214 53.3896C9.36071 52.1877 8.0017 50.8657 6.77211 49.4234C0.254393 41.7224 -1.72404 31.1461 1.59492 21.6145C2.22358 19.8487 3.0094 18.1476 3.95239 16.5298C4.3869 15.7902 4.92312 14.9581 5.18198 14.616C6.0695 18.4342 7.1604 21.7902 7.56718 23.0013C7.53944 23.066 7.50247 23.1399 7.46549 23.2046C5.3114 27.5683 4.14654 31.7748 3.86919 36.2493C3.86919 36.3048 3.85994 36.3695 3.85994 36.425C3.78598 37.7655 3.82296 38.4034 4.04484 39.2447C4.73821 41.8795 6.87381 44.7825 10.2205 47.6299C15.7028 52.2894 23.1357 55.6546 28.766 56.0429C34.6365 56.4404 43.2991 53.0105 49.068 47.9997C49.974 47.1954 50.8245 46.3449 51.6196 45.4389C52.1928 44.7732 53.0433 43.6268 52.9786 43.6268C52.9601 43.6268 52.9786 43.6083 53.0156 43.5899C53.0433 43.5714 53.071 43.5436 53.0525 43.5251C53.0433 43.5159 53.0618 43.4882 53.0895 43.4789C53.1173 43.4697 53.1357 43.4512 53.1265 43.4327C53.1173 43.4142 53.1265 43.3957 53.1635 43.3865C53.1912 43.3772 53.2005 43.3495 53.1912 43.331C53.182 43.3125 53.1912 43.294 53.2097 43.294C53.2282 43.294 53.2467 43.2663 53.2467 43.2478C53.2467 43.2293 53.2652 43.2016 53.2837 43.2016C53.3022 43.2016 53.3206 43.1831 53.3206 43.1646C53.3484 43.0906 53.3946 43.0167 53.4408 42.952C53.5795 42.7393 54.1342 41.7501 54.2082 41.5837C54.7351 40.3911 55.068 39.3279 55.2251 38.2647C55.2991 37.7563 55.3453 36.8225 55.3083 36.6006C55.2991 36.5637 55.2991 36.4989 55.2898 36.3973C55.2713 36.2124 55.2621 35.935 55.2436 35.6577C55.2251 35.2416 55.1881 34.6592 55.1604 34.3726C54.7629 30.1754 53.6904 26.7455 51.6566 23.1122C51.5733 22.9735 51.4994 22.8348 51.4532 22.7239C51.4347 22.6962 51.4254 22.6684 51.4162 22.6499C51.7028 21.7902 52.8769 18.1939 53.8106 14.0798L53.8291 14.0983L53.9678 14.2832C54.2082 14.6068 54.8461 15.5683 55.1327 16.0305C56.4362 18.1569 57.4532 20.4404 58.1743 22.8256C59.8476 28.5667 59.7089 34.6869 57.749 40.3449Z" fill="#F00500"/>
<path d="M45.7492 29.2971C45.7215 29.445 45.287 29.8888 44.8524 30.2124C43.5766 31.1461 41.2931 32.0151 38.9726 32.4312C37.6506 32.6715 36.3285 32.7085 35.931 32.5144C35.6721 32.3849 35.6352 32.2832 35.7276 31.9504C35.9217 31.257 36.5504 30.4989 37.5304 29.7871C38.0296 29.4265 40.0543 28.1969 40.9973 27.6792C42.5504 26.8287 43.8078 26.3202 44.6583 26.2C44.9264 26.163 45.25 26.1538 45.3517 26.2C45.5181 26.2647 45.703 26.7547 45.7769 27.3464C45.8139 27.6607 45.7954 29.0475 45.7492 29.2971Z" fill="black"/>
<path d="M23.9676 32.3572C23.9121 32.4681 23.6348 32.5883 23.3204 32.6345C23.0061 32.6808 22.0446 32.653 21.4992 32.5883C19.5392 32.3295 17.4591 31.7285 15.9429 30.9889C15.0924 30.5729 14.4822 30.1569 14.0292 29.7039L13.7703 29.4358L13.7426 29.0845C13.6964 28.4743 13.7056 27.5128 13.7796 27.1708C13.8258 26.8842 13.9275 26.6068 14.0662 26.3572C14.1401 26.2647 14.1401 26.2647 14.473 26.2647C14.8797 26.2647 15.2218 26.3295 15.7765 26.5051C16.9136 26.8564 18.6055 27.707 20.6671 28.9458C22.3682 29.9627 23.0061 30.462 23.4961 31.1461C23.8289 31.5714 24.0508 32.1723 23.9676 32.3572Z" fill="black"/>
<path d="M37.0588 45.2262C37.0588 45.254 36.9478 45.6977 36.8091 46.2247C36.6705 46.7516 36.5595 47.1769 36.5595 47.1954C36.4578 47.2046 36.3654 47.2139 36.2637 47.2046H35.9678L35.5611 48.1661C35.3392 48.6931 35.1358 49.1831 35.1081 49.257L35.0526 49.3865L34.8584 49.0721L34.6643 48.7578V46.1969L34.5903 46.2154C34.4332 46.2524 33.3145 46.4003 32.8245 46.4466C30.7999 46.6499 28.766 46.6037 26.7506 46.3171C26.427 46.2709 26.1496 46.2339 26.1404 46.2432C26.1312 46.2524 26.1404 46.8441 26.1589 47.5744L26.1866 48.8872L26.0295 49.1276C25.9463 49.257 25.863 49.368 25.863 49.3772C25.8353 49.4049 25.7429 49.257 25.5302 48.8318C25.2991 48.388 25.1327 47.9165 25.0125 47.4265L24.9478 47.1584L24.6612 47.1769L24.3746 47.2046L24.3006 46.8626C24.2637 46.6777 24.2174 46.3911 24.1989 46.2339L24.1712 45.9381L23.9308 45.7254C23.7922 45.6053 23.6535 45.4851 23.6258 45.4666C23.5795 45.4296 23.561 45.3649 23.561 45.3094V45.1985L24.7167 45.2077L25.8723 45.217L25.9093 45.3372L25.9463 45.4573L26.3438 45.4758C26.5657 45.4851 27.2683 45.5036 27.8969 45.5221L29.0526 45.5498L29.3484 45.0875L29.6535 44.6253H30.0418L30.0325 43.6638L30.0233 42.7023L29.5148 42.4805C27.8785 41.7593 26.917 40.9365 26.5564 39.9381C26.4825 39.7347 26.4825 39.6607 26.464 38.7362C26.4547 37.821 26.4547 37.7378 26.5194 37.5344C26.6489 37.0721 27.0094 36.7116 27.4717 36.5914C27.6288 36.5452 28.0449 36.5452 30.2267 36.5452L32.7968 36.5544L33.0834 36.6931C33.4255 36.8595 33.5826 36.9797 33.7768 37.2385C33.9987 37.5344 34.0634 37.7655 34.0634 38.3294C34.0634 39.1338 34.0079 39.8271 33.9247 40.1045C33.8045 40.4835 33.6196 40.8441 33.3885 41.1677C32.9262 41.7593 32.0849 42.351 31.3176 42.6191L31.0957 42.7023L31.105 43.6731L31.1142 44.6438L31.3176 44.6623L31.521 44.6808L31.7983 45.0968L32.0664 45.5128H33.3053C33.9894 45.5128 34.5903 45.5221 34.6458 45.5313C34.7383 45.5498 34.7568 45.5405 34.8492 45.3834L34.9601 45.217H36.0233C36.8184 45.18 37.0588 45.1985 37.0588 45.2262Z" fill="black"/>
<path d="M32.1775 47.8795C32.0018 47.9812 31.8816 48.0274 31.8539 48.0089C31.8262 47.9997 31.6967 47.8888 31.558 47.7871L31.3084 47.5837L31.0496 47.861C30.4856 48.4712 30.4671 48.4989 30.3007 48.5082C30.0419 48.5359 29.9864 48.4897 29.6721 48.0182C29.5057 47.7778 29.3762 47.5744 29.3762 47.5744C29.3762 47.5744 29.2561 47.5559 29.1174 47.5467L28.8585 47.519L28.7383 47.7686L28.6182 48.0182L28.4055 47.9535C28.2391 47.898 28.0727 47.8333 27.9155 47.7593L27.6382 47.6206V47.0937L30.0973 47.1029L32.5565 47.1122L32.5658 47.3618C32.575 47.6576 32.5842 47.6484 32.1775 47.8795Z" fill="black"/>
<path d="M55.2897 36.6006C55.2805 36.5637 55.2805 36.4989 55.2712 36.3972C53.0524 36.1569 46.7196 36.009 40.8398 40.8626C40.8398 40.8626 38.9446 32.1723 30.0694 32.1723C21.1942 32.1723 17.903 40.8626 17.903 40.8626C12.9292 35.5097 6.27276 35.898 3.86906 36.2493C3.86906 36.3048 3.85981 36.3695 3.85981 36.425C3.78585 37.7655 3.82283 38.4034 4.04471 39.2447C4.73809 41.8795 6.87368 44.7824 10.2204 47.6299C15.7027 52.2894 23.1356 55.6546 28.7658 56.0428C34.6364 56.4404 43.299 53.0105 49.0678 47.9997C49.9738 47.1954 50.8244 46.3449 51.6194 45.4388C52.1926 44.7732 53.0432 43.6268 52.9785 43.6268C52.96 43.6268 52.9785 43.6083 53.0154 43.5898C53.0432 43.5714 53.0709 43.5436 53.0524 43.5251C53.0432 43.5159 53.0617 43.4881 53.0894 43.4789C53.1171 43.4697 53.1356 43.4512 53.1264 43.4327C53.1171 43.4142 53.1264 43.3957 53.1634 43.3865C53.1911 43.3772 53.2003 43.3495 53.1911 43.331C53.1818 43.3125 53.1911 43.294 53.2096 43.294C53.2281 43.294 53.2466 43.2663 53.2466 43.2478C53.2466 43.2293 53.2651 43.2016 53.2835 43.2016C53.302 43.2016 53.3205 43.1831 53.3205 43.1646C53.3483 43.0906 53.3945 43.0167 53.4407 42.9519C53.5794 42.7393 54.1341 41.7501 54.208 41.5837C54.735 40.3911 55.0678 39.3279 55.225 38.2647C55.2805 37.7563 55.3267 36.8225 55.2897 36.6006ZM32.1772 47.8795C32.0016 47.9812 31.8814 48.0274 31.8537 48.0089C31.8259 47.9997 31.6965 47.8888 31.5578 47.7871L31.3082 47.5837L31.0493 47.861C30.4854 48.4712 30.4669 48.4989 30.3005 48.5082C30.0416 48.5359 29.9862 48.4897 29.6718 48.0182C29.5054 47.7778 29.376 47.5744 29.376 47.5744C29.376 47.5744 29.2558 47.5559 29.1171 47.5467L28.8583 47.519L28.7381 47.7686L28.6179 48.0182L28.4053 47.9535C28.2389 47.898 28.0725 47.8333 27.9153 47.7593L27.6379 47.6207V47.0937L30.0971 47.1029L32.5563 47.1122L32.5655 47.3618C32.5748 47.6576 32.584 47.6484 32.1772 47.8795ZM36.7997 46.2154C36.661 46.7424 36.5501 47.1677 36.5501 47.1861C36.4484 47.1954 36.356 47.2046 36.2543 47.1954H35.9584L35.5609 48.1661C35.339 48.6931 35.1356 49.1831 35.1079 49.257L35.0524 49.3865L34.8583 49.0721L34.6641 48.7578V46.1969L34.5902 46.2154C34.433 46.2524 33.3144 46.4003 32.8244 46.4465C30.7997 46.6499 28.7658 46.6037 26.7504 46.3171C26.4268 46.2709 26.1495 46.2339 26.1402 46.2432C26.131 46.2524 26.1403 46.8441 26.1587 47.5744L26.1865 48.8872L26.0293 49.1276C25.9461 49.257 25.8629 49.368 25.8629 49.3772C25.8352 49.4049 25.7427 49.257 25.5301 48.8318C25.299 48.388 25.1325 47.9165 25.0124 47.4265L24.9476 47.1584L24.661 47.1769L24.3745 47.2046L24.3005 46.8626C24.2635 46.6777 24.2173 46.3911 24.1988 46.2339L24.1711 45.9381L23.9307 45.7254C23.792 45.6053 23.6533 45.4851 23.6256 45.4666C23.5794 45.4296 23.5609 45.3649 23.5609 45.3094V45.1985L24.7165 45.2077L25.8721 45.217L25.9091 45.3371L25.9461 45.4573L26.3436 45.4758C26.5655 45.4851 27.2681 45.5036 27.8968 45.522L29.0524 45.5498L29.3483 45.0875L29.6533 44.6253H30.0416L30.0324 43.6638L30.0231 42.7023L29.5147 42.4804C27.8783 41.7593 26.9168 40.9365 26.5563 39.9381C26.4823 39.7347 26.4823 39.6607 26.4638 38.7362C26.4546 37.821 26.4546 37.7378 26.5193 37.5344C26.6487 37.0721 27.0093 36.7116 27.4715 36.5914C27.6287 36.5452 28.0447 36.5452 30.2265 36.5452L32.7966 36.5544L33.0832 36.6931C33.4253 36.8595 33.5825 36.9797 33.7766 37.2385C33.9985 37.5344 34.0632 37.7655 34.0632 38.3294C34.0632 39.1338 34.0077 39.8271 33.9245 40.1045C33.8043 40.4835 33.6194 40.8441 33.3883 41.1677C32.9261 41.7593 32.0848 42.351 31.3174 42.6191L31.0956 42.7023L31.1048 43.6731L31.1141 44.6438L31.3174 44.6623L31.5208 44.6808L31.7982 45.0968L32.0663 45.5128H33.3051C33.9892 45.5128 34.5902 45.522 34.6456 45.5313C34.7381 45.5498 34.7566 45.5405 34.849 45.3834L34.96 45.217H36.0231C36.8459 45.217 37.0863 45.2262 37.0863 45.2539C37.0586 45.2447 36.9384 45.6977 36.7997 46.2154Z" fill="white"/>
<path d="M55.2158 35.6576C55.1973 35.2416 55.1603 34.6592 55.1325 34.3726C54.735 30.1754 53.6626 26.7455 51.6287 23.1122C51.5455 22.9735 51.4715 22.8348 51.4253 22.7239C51.4068 22.6962 51.3976 22.6684 51.3883 22.6499C51.6749 21.7902 52.849 18.1939 53.7828 14.0798C55.0493 8.49586 55.8537 1.9689 53.3945 0.00896646C53.3945 0.00896646 49.1418 -0.305363 43.4469 5.27861C41.903 6.82252 40.4885 8.49587 39.2312 10.2801L38.8336 10.1507C36.5409 9.40187 34.1649 8.93962 31.7705 8.78246C31.0494 8.72699 28.3591 8.72699 27.4808 8.78246C24.8275 8.95811 22.7936 9.35565 20.4823 10.16C20.3899 10.1969 20.3067 10.2247 20.2235 10.2524C18.9199 8.47738 17.4685 6.81328 15.8691 5.28786C9.94304 -0.323853 5.53318 -0.000279095 5.53318 -0.000279095C2.92609 2.02437 3.81361 8.84718 5.16338 14.616C6.0509 18.4342 7.1418 21.7902 7.54858 23.0013C7.52085 23.066 7.48387 23.1399 7.44689 23.2046C5.29281 27.5683 4.12794 31.7747 3.85059 36.2493C6.26353 35.898 12.9107 35.5005 17.8937 40.8626C17.8937 40.8626 21.1849 32.1723 30.0601 32.1723C38.9353 32.1723 40.8306 40.8626 40.8306 40.8626C46.7104 36.009 53.0432 36.1661 55.262 36.3972C55.2527 36.2123 55.2342 35.935 55.2158 35.6576ZM9.29589 19.5159C9.29589 19.5159 5.83826 10.8718 6.72578 5.935C6.8737 5.10296 7.15105 4.3726 7.58556 3.8179C7.58556 3.8179 11.5054 4.20619 17.829 11.2324C17.829 11.2324 16.6272 11.8148 15.0185 13.0536C15.0185 13.0536 15.0093 13.0629 15 13.0629C13.2527 14.4034 11.0155 16.5298 9.29589 19.5159ZM23.9677 32.3572C23.9122 32.4681 23.6349 32.5883 23.3205 32.6345C23.0062 32.6808 22.0447 32.653 21.4993 32.5883C19.5393 32.3294 17.4592 31.7285 15.943 30.9889C15.0925 30.5729 14.4823 30.1569 14.0293 29.7039L13.7705 29.4358L13.7427 29.0845C13.6965 28.4743 13.7057 27.5128 13.7797 27.1707C13.8259 26.8841 13.9276 26.6068 14.0663 26.3572C14.1403 26.2647 14.1403 26.2647 14.4731 26.2647C14.8799 26.2647 15.2219 26.3295 15.7766 26.5051C16.9138 26.8564 18.6056 27.7069 20.6672 28.9458C22.3683 29.9627 23.0062 30.462 23.4962 31.1461C23.829 31.5714 24.0509 32.1723 23.9677 32.3572ZM45.7489 29.2971C45.7211 29.445 45.2866 29.8888 44.8521 30.2123C43.5763 31.1461 41.2928 32.0151 38.9723 32.4311C37.6503 32.6715 36.3282 32.7085 35.9307 32.5143C35.6718 32.3849 35.6349 32.2832 35.7273 31.9504C35.9215 31.257 36.5501 30.4989 37.5301 29.7871C38.0293 29.4265 40.054 28.1969 40.997 27.6792C42.5501 26.8287 43.8074 26.3202 44.658 26.2C44.9261 26.163 45.2497 26.1538 45.3514 26.2C45.5178 26.2647 45.7027 26.7547 45.7766 27.3464C45.8136 27.6607 45.7951 29.0475 45.7489 29.2971ZM44.2142 13.0536L44.1957 13.0444C42.6426 11.8056 41.4777 11.2231 41.4777 11.2231C47.5886 4.19694 51.3698 3.80866 51.3698 3.80866C51.7859 4.3726 52.054 5.09371 52.2019 5.92576C53.0617 10.8626 49.7242 19.5159 49.7242 19.5159C48.3282 17.029 46.4515 14.8287 44.2142 13.0536Z" fill="#FFA409"/>
<path d="M52.2114 5.92576C51.4903 5.83331 48.0789 5.81482 44.2145 13.0536L44.1961 13.0444C42.6429 11.8056 41.478 11.2231 41.478 11.2231C47.589 4.19694 51.3701 3.80865 51.3701 3.80865C51.7954 4.3726 52.0635 5.09371 52.2114 5.92576Z" fill="#FF9300"/>
<path d="M49.7336 19.5159C48.3284 17.0197 46.4609 14.8287 44.2144 13.0536C48.0788 5.81482 51.4809 5.83331 52.2113 5.92576C53.071 10.8718 49.7336 19.5159 49.7336 19.5159Z" fill="#FF8300"/>
<path d="M52.3501 5.95348C52.3039 5.94424 52.2577 5.935 52.2114 5.92575L52.3501 5.95348Z" fill="#FF8300"/>
<path d="M17.8293 11.2231C17.8293 11.2231 16.6274 11.8056 15.0188 13.0444C15.0188 13.0444 15.0096 13.0536 15.0003 13.0536C10.9972 5.80557 7.47489 5.83331 6.7168 5.92576C6.86472 5.09371 7.14207 4.36335 7.57659 3.80865C7.58583 3.80865 11.5057 4.19694 17.8293 11.2231Z" fill="#FF9300"/>
<path d="M15.0098 13.0536C13.2532 14.4034 11.0159 16.5205 9.29636 19.5159C9.29636 19.5159 5.83873 10.8718 6.72625 5.92576C7.4751 5.83331 11.0067 5.81482 15.0098 13.0536Z" fill="#FF8300"/>
<path d="M6.72604 5.92575C6.67982 5.935 6.62435 5.94424 6.57812 5.95348L6.72604 5.92575Z" fill="#FF8300"/>
<path d="M40.3774 24.3141C40.3774 24.3141 37.419 24.499 37.7888 22.1877C38.1586 19.8765 40.4699 19.5991 41.117 19.6916C41.7642 19.784 44.3528 20.7085 43.8905 22.65C43.4283 24.5914 42.7811 24.2216 42.4113 24.3141C42.0415 24.4065 40.3774 24.3141 40.3774 24.3141Z" fill="white"/>
<path d="M18.5595 24.3141C18.5595 24.3141 15.6012 24.499 15.971 22.1877C16.3408 19.8765 18.652 19.5991 19.2991 19.6916C19.9463 19.784 22.5349 20.7085 22.0726 22.65C21.6104 24.5914 20.9632 24.2216 20.5934 24.3141C20.2236 24.4065 18.5595 24.3141 18.5595 24.3141Z" fill="white"/>
</g>
<defs>
<clipPath id="clip0_2498_16629">
<rect width="59.3251" height="60" fill="white"/>
</clipPath>
</defs>
</svg>
