<svg width="60" height="60" viewBox="0 0 60 60" fill="none" xmlns="http://www.w3.org/2000/svg">
<circle cx="30" cy="30" r="30" fill="#FF060A"/>
<path d="M48.5104 25.4112C46.7348 23.7718 44.2787 21.2683 42.2783 19.4928L42.1599 19.4099C41.963 19.2518 41.7409 19.1277 41.503 19.043C36.6795 18.1434 14.231 13.9472 13.7931 14.0005C13.6703 14.0177 13.553 14.0622 13.4498 14.1307L13.3373 14.2195C13.1989 14.3601 13.0937 14.53 13.0296 14.7166L13 14.7936V15.2138V15.2789C15.5272 22.3158 25.5056 45.368 27.4705 50.7774C27.5888 51.1443 27.8137 51.8427 28.2339 51.8782H28.3286C28.5535 51.8782 29.5123 50.6117 29.5123 50.6117C29.5123 50.6117 46.652 29.8263 48.3861 27.6128C48.6105 27.3402 48.8087 27.0469 48.9779 26.7369C49.0211 26.4943 49.0007 26.2448 48.9188 26.0124C48.8369 25.7801 48.6961 25.5729 48.5104 25.4112ZM33.9097 27.8318L41.2248 21.7654L45.5157 25.7189L33.9097 27.8318ZM31.0689 27.4353L18.4745 17.1136L38.8515 20.8718L31.0689 27.4353ZM32.2052 30.14L45.0954 28.0626L30.3586 45.8178L32.2052 30.14ZM16.7641 18.1434L30.0154 29.3883L28.0978 45.8296L16.7641 18.1434Z" fill="white"/>
</svg>
