<svg width="60" height="60" viewBox="0 0 60 60" fill="none" xmlns="http://www.w3.org/2000/svg">
<circle cx="30" cy="30" r="30" fill="url(#paint0_linear_2498_16620)"/>
<g clip-path="url(#clip0_2498_16620)">
<path d="M27.046 47.5148L12.0768 17.061C11.8335 16.5751 12.1993 16 12.7383 16H17.9252C18.2034 16 18.4642 16.1573 18.5866 16.4003L29.5187 38.4938C30.4934 40.476 33.3126 40.476 34.2873 38.4938L45.1844 16.4178C45.3069 16.1748 45.5676 16.0175 45.8459 16.0175H46.4899C46.8731 16.0175 47.1163 16.4178 46.9431 16.7481L31.8164 47.5148C30.8417 49.4952 28.0207 49.4952 27.046 47.5148Z" fill="white"/>
<path opacity="0.1" d="M27.0461 47.5148L18.5868 16.4178C18.4643 16.1573 18.186 16.0175 17.9603 16.0175H12.7559C12.1819 16.0175 11.8512 16.5908 12.0769 17.0785L27.0461 47.5148Z" fill="white"/>
<path opacity="0.1" d="M29.5186 38.5096L12.0767 17.061C11.8684 16.5576 12.1817 16.0524 12.6682 16H17.9426C18.2383 16.0175 18.4641 16.208 18.5691 16.4003L29.5186 38.5096Z" fill="white"/>
</g>
<defs>
<linearGradient id="paint0_linear_2498_16620" x1="9.5" y1="-1.00583e-06" x2="60" y2="74.5" gradientUnits="userSpaceOnUse">
<stop stop-color="#A572CE"/>
<stop offset="1" stop-color="#1AB8F6"/>
</linearGradient>
<clipPath id="clip0_2498_16620">
<rect width="35" height="33" fill="white" transform="translate(12 16)"/>
</clipPath>
</defs>
</svg>
