<svg width="60" height="60" viewBox="0 0 60 60" fill="none" xmlns="http://www.w3.org/2000/svg">
<circle cx="30" cy="30" r="30" fill="#E3F2FF"/>
<g clip-path="url(#clip0_2498_16636)">
<path d="M43.6367 17.3164L39.0611 19.7089L16.9662 31.2589C16.8915 30.6741 16.8539 30.0849 16.8537 29.4951C16.8567 27.1417 17.4588 24.8299 18.6002 22.7888C19.7416 20.7476 21.3828 19.0479 23.3613 17.8581C25.3397 16.6682 27.5867 16.0294 29.8797 16.005C32.1726 15.9807 34.4321 16.5715 36.4341 17.719L39.0531 16.3495L39.4437 16.1449C37.0446 14.3578 34.2107 13.2862 31.2553 13.0487C28.2998 12.8111 25.3379 13.4169 22.697 14.7989C20.056 16.1809 17.8387 18.2854 16.2903 20.8799C14.7419 23.4743 13.9225 26.4576 13.9228 29.5C13.9228 29.9202 13.9384 30.3388 13.9695 30.7557C14.013 31.3461 13.8854 31.9365 13.6028 32.4526C13.3201 32.9688 12.895 33.3876 12.381 33.6564L11 34.3791V37.75L15.0659 35.6232L16.3826 34.9335L17.6801 34.2553L40.9727 22.075L43.59 20.7072L49 17.8774V14.5081L43.6367 17.3164Z" fill="black"/>
<path d="M49 21.25L19.0032 36.925L16.3859 38.2961L11 41.1127V44.4803L16.3489 41.6836L20.9244 39.2911L43.0418 27.7246C43.1166 28.3133 43.1542 28.9063 43.1543 29.5C43.1529 31.8561 42.5511 34.1709 41.4085 36.2145C40.266 38.2582 38.6225 39.9595 36.6412 41.1498C34.6599 42.34 32.4097 42.9777 30.1141 42.9996C27.8184 43.0215 25.5571 42.4267 23.5547 41.2744L23.3939 41.3618L20.5547 42.8469C22.9533 44.634 25.7866 45.7059 28.7415 45.944C31.6965 46.1821 34.6581 45.5772 37.2991 44.1962C39.9401 42.8151 42.1576 40.7116 43.7067 38.1181C45.2559 35.5246 46.0762 32.542 46.0772 29.5C46.0772 29.0759 46.0611 28.6519 46.0305 28.2328C45.9871 27.6426 46.1145 27.0524 46.3968 26.5363C46.6792 26.0203 47.1038 25.6013 47.6174 25.3321L49 24.6094V21.25Z" fill="black"/>
</g>
<defs>
<clipPath id="clip0_2498_16636">
<rect width="38" height="33" fill="white" transform="translate(11 13)"/>
</clipPath>
</defs>
</svg>
