<svg width="60" height="60" viewBox="0 0 60 60" fill="none" xmlns="http://www.w3.org/2000/svg">
<path d="M59.9991 29.997C59.9991 46.5634 46.569 59.9939 29.9998 59.9939C13.4305 59.9939 0.000488281 46.5634 0.000488281 29.997C0.000488281 13.4307 13.4308 0 29.9998 0C46.5687 0 59.9991 13.4294 59.9991 29.997Z" fill="white"/>
<path d="M30 0C13.4367 0 -0.0171548 13.4497 0.003931 29.9961C0.00808426 33.3065 0.536027 36.4909 1.5269 39.4696H10.5024V14.2354L30 33.7307L49.4967 14.2354V39.4701H58.4741C59.4664 36.4916 59.9916 33.3072 59.9975 29.9966C60.0258 13.4329 46.5651 0.00399309 30 0.00399309V0Z" fill="#F26822"/>
<path d="M25.5158 38.2126L17.0069 29.7041V45.5829H10.5015L4.36279 45.584C9.62832 54.2218 19.1444 60 29.9997 60C40.8551 60 50.3716 54.2205 55.6381 45.5827H42.9906V29.7041L34.4813 38.2126L29.9988 42.6946L25.5161 38.2126H25.5158Z" fill="#4D4D4D"/>
</svg>
