<svg width="61" height="60" viewBox="0 0 61 60" fill="none" xmlns="http://www.w3.org/2000/svg">
<path fill-rule="evenodd" clip-rule="evenodd" d="M60.2227 30C60.2227 46.5695 46.7921 60 30.2227 60C13.6532 60 0.222656 46.5695 0.222656 30C0.222656 13.4305 13.6532 0 30.2227 0C46.7921 0 60.2227 13.4305 60.2227 30Z" fill="black"/>
<path d="M44.3631 15H50.1443L38.1131 26.5079C33.7561 30.6732 26.692 30.6732 22.3318 26.5079L10.2959 15H16.0818L25.2225 23.7419C26.5542 25.0099 28.349 25.7207 30.2189 25.7207C32.0888 25.7207 33.8836 25.0099 35.2154 23.7419L44.3631 15Z" fill="white"/>
<path d="M16.0078 47H10.2227L22.332 35.4211C26.6891 31.2559 33.7531 31.2559 38.1133 35.4211L50.2227 47H44.4414L35.2227 38.1872C33.8909 36.9192 32.0961 36.2084 30.2262 36.2084C28.3563 36.2084 26.5615 36.9192 25.2297 38.1872L16.0078 47Z" fill="white"/>
</svg>
