<svg width="60" height="60" viewBox="0 0 60 60" fill="none" xmlns="http://www.w3.org/2000/svg">
<circle cx="30" cy="30" r="30" fill="#2C7DF7"/>
<g clip-path="url(#clip0_2498_16619)">
<path d="M33.3786 49.9999C30.4635 49.9999 28.3359 49.2952 26.9955 47.8858C25.7539 46.6928 25.0334 45.0549 24.9915 43.3303C24.9764 42.8063 25.0974 42.2875 25.3425 41.8246C25.5712 41.4247 25.9016 41.0929 26.2998 40.8631C26.7627 40.6314 27.273 40.5107 27.7902 40.5107C28.3075 40.5107 28.8178 40.6314 29.2807 40.8631C29.6782 41.092 30.007 41.4242 30.2326 41.8246C30.4848 42.2852 30.6103 42.8049 30.5962 43.3303C30.6222 43.9577 30.4429 44.5765 30.0856 45.092C29.7878 45.5128 29.3621 45.8255 28.8724 45.9831C29.3513 46.595 30.0289 47.019 30.7872 47.1811C31.6357 47.4284 32.5143 47.5556 33.3978 47.559C34.5674 47.5692 35.713 47.2254 36.6851 46.5724C37.6935 45.8574 38.4455 44.8353 38.8297 43.6577C39.3167 42.256 39.5543 40.7794 39.5318 39.2952C39.5711 37.7478 39.311 36.2074 38.7658 34.7594C38.3558 33.6013 37.5775 32.6108 36.551 31.9406C35.5968 31.3347 34.4892 31.0167 33.3601 31.0246C32.3762 31.1083 31.4275 31.4316 30.5962 31.9664L28.5467 32.9977V31.9664L37.7573 19.5653H24.9915V32.434C24.9554 33.3627 25.2002 34.2806 25.6936 35.067C25.9323 35.4097 26.2552 35.6847 26.6309 35.8654C27.0067 36.046 27.4225 36.1263 27.8382 36.0983C28.6063 36.0827 29.3491 35.82 29.9572 35.3488C30.6465 34.8418 31.2463 34.2225 31.7317 33.5166C31.7754 33.3928 31.856 33.2855 31.9625 33.2093C32.048 33.1351 32.1572 33.0942 32.2702 33.0939C32.492 33.1143 32.7019 33.2038 32.8703 33.35C33.0836 33.5893 33.1998 33.9002 33.1957 34.2213C33.1711 34.437 33.1327 34.651 33.0808 34.8619C32.6274 35.9635 31.8672 36.9107 30.8914 37.59C29.985 38.2056 28.9146 38.5319 27.8203 38.5264C25.0564 38.5264 23.1416 37.9797 22.076 36.8864C21.5283 36.2821 21.1062 35.5742 20.8344 34.8042C20.5626 34.0342 20.4465 33.2175 20.493 32.4019V19.5653H14V17.1742H20.5233V11.7225L19.0298 10.2225V9H23.3636L24.9915 9.84574V17.1742L41.8549 17.1228L43.5338 18.814L33.1934 29.2426C33.8181 28.9904 34.476 28.8307 35.1465 28.7685C36.4734 28.8268 37.7681 29.1978 38.9258 29.8513C40.2665 30.4908 41.3963 31.5027 42.1813 32.7671C42.8848 33.8374 43.3827 35.0302 43.6494 36.2841C43.8688 37.2732 43.9864 38.2822 44.0005 39.2954C44.0073 41.229 43.5705 43.1382 42.724 44.8751C41.9211 46.557 40.5698 47.9132 38.894 48.719C37.1786 49.5673 35.2909 50.0057 33.3786 49.9999Z" fill="white"/>
</g>
<defs>
<clipPath id="clip0_2498_16619">
<rect width="30" height="41" fill="white" transform="translate(15 9)"/>
</clipPath>
</defs>
</svg>
