<svg width="60" height="60" viewBox="0 0 60 60" fill="none" xmlns="http://www.w3.org/2000/svg">
<path d="M30 60C13.4315 60 0 46.5685 0 30C0 13.4315 13.4315 0 30 0C46.5685 0 60 13.4315 60 30C60 46.5685 46.5685 60 30 60Z" fill="url(#paint0_linear_4352_16980)"/>
<path fill-rule="evenodd" clip-rule="evenodd" d="M34.0108 25.6877L36.6981 19.9401H42.0339L44.7211 25.6877H34.0108ZM43.4657 16.9401C43.7569 16.9401 44.0218 17.1086 44.1451 17.3724L49.2357 28.2607C49.3287 28.4596 49.1835 28.6877 48.964 28.6877H29.9078H29.768H10.7118C10.4923 28.6877 10.3471 28.4596 10.4401 28.2607L15.5307 17.3724C15.654 17.1086 15.9189 16.9401 16.2101 16.9401H24.4096C24.7008 16.9401 24.9656 17.1086 25.089 17.3724L29.8379 27.5298L34.5868 17.3724C34.7102 17.1086 34.975 16.9401 35.2662 16.9401H43.4657ZM14.9547 25.6877L17.6419 19.9401H22.9777L25.665 25.6877H14.9547ZM35.9407 31.9985C36.0256 31.8296 36.1985 31.7231 36.3875 31.7231H45.2717C45.4607 31.7231 45.6335 31.8296 45.7184 31.9985L51.1347 42.77C51.2016 42.903 51.1049 43.0598 50.956 43.0598H30.7032C30.5543 43.0598 30.4576 42.903 30.5245 42.77L35.9407 31.9985ZM14.7283 31.7231C14.5393 31.7231 14.3665 31.8296 14.2816 31.9985L8.86533 42.77C8.79845 42.903 8.89514 43.0598 9.04401 43.0598H29.2968C29.4457 43.0598 29.5424 42.903 29.4755 42.77L24.0593 31.9985C23.9744 31.8296 23.8015 31.7231 23.6126 31.7231H14.7283Z" fill="white"/>
<defs>
<linearGradient id="paint0_linear_4352_16980" x1="46.9215" y1="-5.54677" x2="8.03287" y2="6.11981" gradientUnits="userSpaceOnUse">
<stop stop-color="#B1C1CD"/>
<stop offset="1" stop-color="#778C9C"/>
</linearGradient>
</defs>
</svg>
