<svg width="59" height="59" viewBox="0 0 59 59" fill="none" xmlns="http://www.w3.org/2000/svg">
<rect x="0.000488281" y="0.929031" width="58.6934" height="57.9776" rx="2.14732" fill="black"/>
<path fill-rule="evenodd" clip-rule="evenodd" d="M29.1857 3.07635L23.1016 7.37099V27.4126H29.1857V3.07635ZM21.8492 14.3498L18.2703 16.8129V27.2337H21.8492V14.3498ZM13.9756 21.3444L16.8387 19.3602V27.4126H13.9756V21.3444ZM30.4387 3.07635L36.5228 7.37099V27.4126H30.4387V3.07635ZM41.3537 16.8129L37.7748 14.3498V27.2337H41.3537V16.8129ZM42.7853 19.3602L45.6484 21.3444V27.4126H42.7853V19.3602Z" fill="url(#paint0_radial_3066_26307)"/>
<path d="M6.62883 38.159L7.14506 35.8056H13.6283L13.1121 38.159H6.62883ZM9.42256 29.5197H13.7498L13.932 40.1176H10.9409L11.1079 34.9401L11.1535 31.6605L9.80214 34.9401L7.76758 40.1176H4.74609L9.42256 29.5197Z" fill="url(#paint1_linear_3066_26307)"/>
<path d="M14.105 40.1176L16.3521 29.5197H19.8443C20.5528 29.5197 21.1753 29.6361 21.7118 29.8689C22.2584 30.1017 22.7139 30.4206 23.0783 30.8254C23.4427 31.2303 23.716 31.6909 23.8982 32.2071C24.0804 32.7234 24.1715 33.275 24.1715 33.8621C24.1715 34.7832 24.0146 35.6284 23.7008 36.3977C23.3972 37.1569 22.9619 37.8148 22.3951 38.3716C21.8282 38.9283 21.1551 39.3585 20.3757 39.6621C19.6064 39.9658 18.7511 40.1176 17.8097 40.1176H14.105ZM17.6123 37.6883H18.2652C18.7106 37.6883 19.1053 37.582 19.4495 37.3695C19.8038 37.1569 20.0973 36.8735 20.3301 36.5192C20.5731 36.1649 20.7553 35.7701 20.8767 35.3349C21.0083 34.8895 21.0741 34.4391 21.0741 33.9836C21.0741 33.3661 20.9223 32.8701 20.6186 32.4956C20.3251 32.1211 19.9202 31.9338 19.4039 31.9338H18.827L17.6123 37.6883Z" fill="url(#paint2_linear_3066_26307)"/>
<path d="M25.2706 40.1176L25.1036 29.5197H27.9581L27.9429 35.3349L27.8062 37.8857L28.7476 35.3349L31.2073 29.5197H34.2895L29.5827 40.1176H25.2706Z" fill="url(#paint3_linear_3066_26307)"/>
<path d="M32.4127 40.1176L34.6599 29.5197H42.8589L42.3426 31.9338H37.1347L36.8007 33.5129H40.1259L39.6248 35.8663H36.2997L35.4038 40.1176H32.4127Z" fill="url(#paint4_linear_3066_26307)"/>
<path d="M41.2705 40.1176L43.5177 29.5197H46.9339L48.0423 36.5344L48.5889 32.86L49.3025 29.5197H52.0052L49.758 40.1176H46.281L45.1575 33.3003L44.6868 36.7621L43.9732 40.1176H41.2705Z" fill="url(#paint5_linear_3066_26307)"/>
<path d="M5.63574 55.3822V50.8196H8.71376V51.358H6.23952V52.771H8.38074V53.3094H6.23952V55.3822H5.63574Z" fill="url(#paint6_linear_3066_26307)"/>
<path d="M9.36895 51.4638V50.8196H9.92915V51.4638H9.36895ZM9.36895 55.3822V52.077H9.92915V55.3822H9.36895Z" fill="url(#paint7_linear_3066_26307)"/>
<path d="M10.7213 55.3822V52.077H11.2255V52.5469C11.4682 52.1838 11.8189 52.0023 12.2774 52.0023C12.4766 52.0023 12.6592 52.0386 12.8252 52.1112C12.9932 52.1817 13.1187 52.2751 13.2017 52.3913C13.2847 52.5075 13.3428 52.6455 13.376 52.8052C13.3968 52.909 13.4072 53.0905 13.4072 53.3499V55.3822H12.8469V53.3717C12.8469 53.1434 12.8252 52.9733 12.7816 52.8612C12.738 52.7471 12.6602 52.6569 12.5482 52.5905C12.4382 52.522 12.3085 52.4878 12.1591 52.4878C11.9205 52.4878 11.7141 52.5635 11.5398 52.715C11.3676 52.8664 11.2815 53.1538 11.2815 53.5771V55.3822H10.7213Z" fill="url(#paint8_linear_3066_26307)"/>
<path d="M16.3623 54.9745C16.1548 55.1508 15.9546 55.2753 15.7616 55.3479C15.5707 55.4206 15.3653 55.4569 15.1454 55.4569C14.7823 55.4569 14.5032 55.3687 14.3082 55.1923C14.1132 55.0139 14.0157 54.7867 14.0157 54.5107C14.0157 54.3489 14.052 54.2016 14.1246 54.0688C14.1993 53.9339 14.2958 53.826 14.414 53.7451C14.5344 53.6642 14.6692 53.603 14.8186 53.5615C14.9286 53.5325 15.0946 53.5044 15.3166 53.4775C15.7689 53.4235 16.1019 53.3592 16.3156 53.2845C16.3177 53.2077 16.3187 53.159 16.3187 53.1382C16.3187 52.91 16.2658 52.7492 16.16 52.6558C16.0168 52.5293 15.8042 52.466 15.522 52.466C15.2585 52.466 15.0634 52.5127 14.9369 52.606C14.8124 52.6973 14.7201 52.8602 14.6599 53.0947L14.1121 53.02C14.1619 52.7855 14.2439 52.5967 14.358 52.4535C14.4721 52.3083 14.6371 52.1973 14.8529 52.1205C15.0686 52.0417 15.3187 52.0023 15.6029 52.0023C15.8851 52.0023 16.1143 52.0355 16.2907 52.1019C16.4671 52.1683 16.5967 52.2523 16.6797 52.354C16.7627 52.4535 16.8208 52.5801 16.854 52.7336C16.8727 52.8291 16.882 53.0013 16.882 53.2503V53.9972C16.882 54.518 16.8934 54.8479 16.9163 54.9869C16.9412 55.1239 16.9889 55.2556 17.0594 55.3822H16.4743C16.4162 55.266 16.3789 55.1301 16.3623 54.9745ZM16.3156 53.7233C16.1123 53.8063 15.8073 53.8769 15.4006 53.935C15.1703 53.9682 15.0074 54.0055 14.912 54.047C14.8165 54.0885 14.7429 54.1497 14.691 54.2306C14.6391 54.3095 14.6132 54.3977 14.6132 54.4952C14.6132 54.6446 14.6692 54.7691 14.7813 54.8686C14.8954 54.9682 15.0614 55.018 15.2792 55.018C15.495 55.018 15.6869 54.9714 15.855 54.878C16.0231 54.7825 16.1465 54.6529 16.2254 54.489C16.2855 54.3624 16.3156 54.1757 16.3156 53.9288V53.7233Z" fill="url(#paint9_linear_3066_26307)"/>
<path d="M17.6897 55.3822V52.077H18.1939V52.5469C18.4367 52.1838 18.7873 52.0023 19.2459 52.0023C19.445 52.0023 19.6276 52.0386 19.7936 52.1112C19.9617 52.1817 20.0872 52.2751 20.1702 52.3913C20.2532 52.5075 20.3113 52.6455 20.3445 52.8052C20.3652 52.909 20.3756 53.0905 20.3756 53.3499V55.3822H19.8154V53.3717C19.8154 53.1434 19.7936 52.9733 19.75 52.8612C19.7065 52.7471 19.6287 52.6569 19.5166 52.5905C19.4066 52.522 19.277 52.4878 19.1276 52.4878C18.889 52.4878 18.6825 52.5635 18.5082 52.715C18.336 52.8664 18.2499 53.1538 18.2499 53.5771V55.3822H17.6897Z" fill="url(#paint10_linear_3066_26307)"/>
<path d="M23.3307 54.1715L23.8816 54.2431C23.8214 54.6228 23.6669 54.9205 23.4179 55.1363C23.171 55.35 22.867 55.4569 22.506 55.4569C22.0537 55.4569 21.6895 55.3096 21.4136 55.0149C21.1397 54.7182 21.0028 54.2939 21.0028 53.742C21.0028 53.3851 21.0619 53.0729 21.1802 52.8052C21.2984 52.5376 21.4779 52.3374 21.7186 52.2046C21.9613 52.0697 22.2249 52.0023 22.5091 52.0023C22.8681 52.0023 23.1616 52.0936 23.3899 52.2761C23.6181 52.4567 23.7644 52.7139 23.8287 53.048L23.2841 53.132C23.2322 52.91 23.1399 52.743 23.0071 52.6309C22.8764 52.5189 22.7176 52.4629 22.5309 52.4629C22.2487 52.4629 22.0194 52.5645 21.8431 52.7679C21.6667 52.9691 21.5785 53.2887 21.5785 53.7265C21.5785 54.1705 21.6636 54.4931 21.8337 54.6944C22.0039 54.8956 22.2259 54.9963 22.4998 54.9963C22.7197 54.9963 22.9033 54.9288 23.0506 54.794C23.198 54.6591 23.2913 54.4516 23.3307 54.1715Z" fill="url(#paint11_linear_3066_26307)"/>
<path d="M24.3003 51.4638V50.8196H24.8605V51.4638H24.3003ZM24.3003 55.3822V52.077H24.8605V55.3822H24.3003Z" fill="url(#paint12_linear_3066_26307)"/>
<path d="M27.8094 54.9745C27.6019 55.1508 27.4017 55.2753 27.2087 55.3479C27.0178 55.4206 26.8124 55.4569 26.5925 55.4569C26.2294 55.4569 25.9503 55.3687 25.7553 55.1923C25.5603 55.0139 25.4628 54.7867 25.4628 54.5107C25.4628 54.3489 25.4991 54.2016 25.5717 54.0688C25.6464 53.9339 25.7429 53.826 25.8611 53.7451C25.9815 53.6642 26.1163 53.603 26.2657 53.5615C26.3757 53.5325 26.5417 53.5044 26.7637 53.4775C27.216 53.4235 27.549 53.3592 27.7627 53.2845C27.7648 53.2077 27.7658 53.159 27.7658 53.1382C27.7658 52.91 27.7129 52.7492 27.6071 52.6558C27.4639 52.5293 27.2513 52.466 26.9691 52.466C26.7056 52.466 26.5105 52.5127 26.384 52.606C26.2595 52.6973 26.1672 52.8602 26.107 53.0947L25.5592 53.02C25.609 52.7855 25.691 52.5967 25.8051 52.4535C25.9192 52.3083 26.0842 52.1973 26.2999 52.1205C26.5157 52.0417 26.7657 52.0023 27.05 52.0023C27.3322 52.0023 27.5614 52.0355 27.7378 52.1019C27.9142 52.1683 28.0438 52.2523 28.1268 52.354C28.2098 52.4535 28.2679 52.5801 28.3011 52.7336C28.3198 52.8291 28.3291 53.0013 28.3291 53.2503V53.9972C28.3291 54.518 28.3405 54.8479 28.3634 54.9869C28.3883 55.1239 28.436 55.2556 28.5065 55.3822H27.9214C27.8633 55.266 27.826 55.1301 27.8094 54.9745ZM27.7627 53.7233C27.5594 53.8063 27.2544 53.8769 26.8477 53.935C26.6174 53.9682 26.4545 54.0055 26.3591 54.047C26.2636 54.0885 26.19 54.1497 26.1381 54.2306C26.0862 54.3095 26.0603 54.3977 26.0603 54.4952C26.0603 54.6446 26.1163 54.7691 26.2284 54.8686C26.3425 54.9682 26.5085 55.018 26.7263 55.018C26.9421 55.018 27.134 54.9714 27.3021 54.878C27.4702 54.7825 27.5936 54.6529 27.6724 54.489C27.7326 54.3624 27.7627 54.1757 27.7627 53.9288V53.7233Z" fill="url(#paint13_linear_3066_26307)"/>
<path d="M29.1244 55.3822V50.8196H29.6846V55.3822H29.1244Z" fill="url(#paint14_linear_3066_26307)"/>
<path d="M31.4182 55.3822L33.1704 50.8196H33.8209L35.6882 55.3822H35.0004L34.4682 54.0003H32.5604L32.0593 55.3822H31.4182ZM32.7347 53.5086H34.2815L33.8053 52.245C33.6601 51.8612 33.5522 51.5458 33.4816 51.2989C33.4235 51.5915 33.3416 51.8819 33.2358 52.1703L32.7347 53.5086Z" fill="url(#paint15_linear_3066_26307)"/>
<path d="M36.527 55.3822L35.5156 52.077H36.0944L36.6204 53.9848L36.8165 54.6944C36.8248 54.6591 36.8818 54.4319 36.9877 54.0128L37.5136 52.077H38.0894L38.5842 53.9941L38.7492 54.6259L38.939 53.9879L39.5055 52.077H40.0501L39.0168 55.3822H38.4349L37.9089 53.4028L37.7813 52.8395L37.1121 55.3822H36.527Z" fill="url(#paint16_linear_3066_26307)"/>
<path d="M42.6162 54.9745C42.4087 55.1508 42.2085 55.2753 42.0156 55.3479C41.8247 55.4206 41.6193 55.4569 41.3993 55.4569C41.0362 55.4569 40.7572 55.3687 40.5621 55.1923C40.3671 55.0139 40.2696 54.7867 40.2696 54.5107C40.2696 54.3489 40.3059 54.2016 40.3785 54.0688C40.4532 53.9339 40.5497 53.826 40.668 53.7451C40.7883 53.6642 40.9232 53.603 41.0725 53.5615C41.1825 53.5325 41.3485 53.5044 41.5705 53.4775C42.0228 53.4235 42.3558 53.3592 42.5695 53.2845C42.5716 53.2077 42.5726 53.159 42.5726 53.1382C42.5726 52.91 42.5197 52.7492 42.4139 52.6558C42.2708 52.5293 42.0581 52.466 41.7759 52.466C41.5124 52.466 41.3174 52.5127 41.1908 52.606C41.0663 52.6973 40.974 52.8602 40.9138 53.0947L40.3661 53.02C40.4159 52.7855 40.4978 52.5967 40.6119 52.4535C40.726 52.3083 40.891 52.1973 41.1068 52.1205C41.3226 52.0417 41.5726 52.0023 41.8568 52.0023C42.139 52.0023 42.3683 52.0355 42.5446 52.1019C42.721 52.1683 42.8507 52.2523 42.9337 52.354C43.0167 52.4535 43.0748 52.5801 43.108 52.7336C43.1266 52.8291 43.136 53.0013 43.136 53.2503V53.9972C43.136 54.518 43.1474 54.8479 43.1702 54.9869C43.1951 55.1239 43.2428 55.2556 43.3134 55.3822H42.7283C42.6702 55.266 42.6328 55.1301 42.6162 54.9745ZM42.5695 53.7233C42.3662 53.8063 42.0612 53.8769 41.6545 53.935C41.4242 53.9682 41.2614 54.0055 41.1659 54.047C41.0705 54.0885 40.9968 54.1497 40.9449 54.2306C40.8931 54.3095 40.8671 54.3977 40.8671 54.4952C40.8671 54.6446 40.9232 54.7691 41.0352 54.8686C41.1493 54.9682 41.3153 55.018 41.5332 55.018C41.7489 55.018 41.9409 54.9714 42.1089 54.878C42.277 54.7825 42.4004 54.6529 42.4793 54.489C42.5395 54.3624 42.5695 54.1757 42.5695 53.9288V53.7233Z" fill="url(#paint17_linear_3066_26307)"/>
<path d="M43.9374 55.3822V52.077H44.4416V52.578C44.5703 52.3436 44.6885 52.189 44.7964 52.1143C44.9064 52.0396 45.0267 52.0023 45.1574 52.0023C45.3462 52.0023 45.5382 52.0624 45.7332 52.1828L45.5402 52.7025C45.4033 52.6216 45.2664 52.5811 45.1294 52.5811C45.007 52.5811 44.897 52.6185 44.7995 52.6932C44.702 52.7658 44.6325 52.8675 44.591 52.9982C44.5288 53.1974 44.4976 53.4152 44.4976 53.6518V55.3822H43.9374Z" fill="url(#paint18_linear_3066_26307)"/>
<path d="M48.1468 55.3822V54.9651C47.9373 55.293 47.6291 55.4569 47.2225 55.4569C46.959 55.4569 46.7162 55.3842 46.4942 55.239C46.2743 55.0938 46.1031 54.8915 45.9807 54.6321C45.8603 54.3707 45.8002 54.0709 45.8002 53.7327C45.8002 53.4028 45.8552 53.104 45.9651 52.8364C46.0751 52.5666 46.24 52.3602 46.46 52.217C46.6799 52.0739 46.9258 52.0023 47.1976 52.0023C47.3968 52.0023 47.5742 52.0448 47.7298 52.1299C47.8854 52.2129 48.0119 52.3218 48.1095 52.4567V50.8196H48.6666V55.3822H48.1468ZM46.3759 53.7327C46.3759 54.1559 46.4652 54.4724 46.6436 54.6819C46.822 54.8915 47.0326 54.9963 47.2754 54.9963C47.5202 54.9963 47.7277 54.8967 47.8978 54.6975C48.07 54.4962 48.1561 54.1902 48.1561 53.7794C48.1561 53.327 48.069 52.9951 47.8947 52.7834C47.7204 52.5718 47.5057 52.466 47.2505 52.466C47.0015 52.466 46.793 52.5677 46.6249 52.771C46.4589 52.9743 46.3759 53.2949 46.3759 53.7327Z" fill="url(#paint19_linear_3066_26307)"/>
<path d="M49.2626 54.3956L49.8166 54.3084C49.8477 54.5305 49.9338 54.7006 50.0749 54.8189C50.2181 54.9371 50.4173 54.9963 50.6725 54.9963C50.9297 54.9963 51.1206 54.9444 51.2451 54.8406C51.3696 54.7348 51.4318 54.6114 51.4318 54.4703C51.4318 54.3437 51.3769 54.2441 51.2669 54.1715C51.1901 54.1217 50.9992 54.0584 50.6942 53.9817C50.2834 53.8779 49.9981 53.7887 49.8384 53.714C49.6807 53.6372 49.5604 53.5325 49.4774 53.3997C49.3964 53.2648 49.356 53.1165 49.356 52.9546C49.356 52.8073 49.3892 52.6714 49.4556 52.5469C49.524 52.4203 49.6164 52.3156 49.7326 52.2326C49.8197 52.1683 49.938 52.1143 50.0874 52.0707C50.2388 52.0251 50.4007 52.0023 50.5729 52.0023C50.8322 52.0023 51.0594 52.0396 51.2544 52.1143C51.4516 52.189 51.5968 52.2907 51.6902 52.4193C51.7835 52.5459 51.8479 52.716 51.8831 52.9297L51.3354 53.0044C51.3105 52.8343 51.2379 52.7015 51.1175 52.606C50.9992 52.5106 50.8312 52.4629 50.6133 52.4629C50.356 52.4629 50.1724 52.5054 50.0625 52.5905C49.9525 52.6756 49.8975 52.7751 49.8975 52.8893C49.8975 52.9619 49.9203 53.0272 49.966 53.0853C50.0116 53.1455 50.0832 53.1953 50.1807 53.2347C50.2367 53.2555 50.4017 53.3032 50.6756 53.3779C51.0719 53.4837 51.3478 53.5708 51.5034 53.6393C51.6611 53.7057 51.7846 53.8032 51.8738 53.9319C51.963 54.0605 52.0076 54.2203 52.0076 54.4111C52.0076 54.5979 51.9526 54.7742 51.8427 54.9402C51.7348 55.1041 51.5781 55.2317 51.3727 55.323C51.1673 55.4123 50.9349 55.4569 50.6756 55.4569C50.2461 55.4569 49.9183 55.3676 49.6921 55.1892C49.468 55.0108 49.3249 54.7462 49.2626 54.3956Z" fill="url(#paint20_linear_3066_26307)"/>
<path d="M5.86865 48.17V41.8047H6.71099V48.17H5.86865Z" fill="url(#paint21_linear_3066_26307)"/>
<path d="M8.01149 48.17V43.5589H8.71489V44.2145C9.05356 43.7079 9.54275 43.4547 10.1825 43.4547C10.4603 43.4547 10.7151 43.5053 10.9466 43.6066C11.1811 43.7051 11.3562 43.8353 11.472 43.9974C11.5878 44.1595 11.6689 44.352 11.7152 44.5749C11.7441 44.7196 11.7586 44.9729 11.7586 45.3347V48.17H10.977V45.3651C10.977 45.0467 10.9466 44.8094 10.8859 44.653C10.8251 44.4938 10.7165 44.3679 10.5602 44.2753C10.4068 44.1798 10.2259 44.132 10.0175 44.132C9.68459 44.132 9.39657 44.2377 9.15342 44.449C8.91317 44.6603 8.79304 45.0612 8.79304 45.6517V48.17H8.01149Z" fill="url(#paint22_linear_3066_26307)"/>
<path d="M14.5788 47.471L14.6917 48.1613C14.4717 48.2077 14.2748 48.2308 14.1012 48.2308C13.8175 48.2308 13.5975 48.1859 13.4412 48.0962C13.2849 48.0065 13.1749 47.8892 13.1112 47.7445C13.0475 47.5969 13.0157 47.2886 13.0157 46.8197V44.1667H12.4425V43.5589H13.0157V42.4169L13.7929 41.948V43.5589H14.5788V44.1667H13.7929V46.8631C13.7929 47.086 13.8059 47.2293 13.832 47.2929C13.8609 47.3566 13.9058 47.4073 13.9666 47.4449C14.0302 47.4825 14.12 47.5014 14.2358 47.5014C14.3226 47.5014 14.4369 47.4912 14.5788 47.471Z" fill="url(#paint23_linear_3066_26307)"/>
<path d="M18.415 46.6851L19.2226 46.7849C19.0952 47.2568 18.8593 47.6229 18.5148 47.8835C18.1704 48.144 17.7304 48.2742 17.1949 48.2742C16.5204 48.2742 15.9849 48.0673 15.5884 47.6533C15.1947 47.2365 14.9979 46.6532 14.9979 45.9035C14.9979 45.1278 15.1976 44.5257 15.597 44.0973C15.9965 43.6689 16.5146 43.4547 17.1515 43.4547C17.768 43.4547 18.2717 43.6645 18.6625 44.0842C19.0532 44.504 19.2486 45.0945 19.2486 45.8558C19.2486 45.9021 19.2472 45.9715 19.2443 46.0642H15.8055C15.8344 46.5707 15.9777 46.9586 16.2353 47.2278C16.4929 47.497 16.8142 47.6316 17.1992 47.6316C17.4858 47.6316 17.7304 47.5564 17.933 47.4058C18.1356 47.2553 18.2963 47.0151 18.415 46.6851ZM15.8489 45.4216H18.4237C18.3889 45.0337 18.2905 44.7428 18.1284 44.5488C17.8795 44.2478 17.5567 44.0973 17.1602 44.0973C16.8012 44.0973 16.4987 44.2174 16.2527 44.4577C16.0095 44.6979 15.8749 45.0192 15.8489 45.4216Z" fill="url(#paint24_linear_3066_26307)"/>
<path d="M20.1106 48.17V43.5589H20.814V44.2579C20.9935 43.9308 21.1584 43.7152 21.309 43.611C21.4624 43.5068 21.6303 43.4547 21.8126 43.4547C22.076 43.4547 22.3438 43.5386 22.6159 43.7065L22.3467 44.4316C22.1556 44.3187 21.9646 44.2623 21.7736 44.2623C21.6028 44.2623 21.4494 44.3144 21.3133 44.4186C21.1773 44.5199 21.0803 44.6617 21.0224 44.8441C20.9356 45.122 20.8921 45.4259 20.8921 45.7559V48.17H20.1106Z" fill="url(#paint25_linear_3066_26307)"/>
<path d="M22.9916 48.17V43.5589H23.695V44.2145C24.0336 43.7079 24.5228 43.4547 25.1625 43.4547C25.4404 43.4547 25.6951 43.5053 25.9267 43.6066C26.1612 43.7051 26.3363 43.8353 26.4521 43.9974C26.5679 44.1595 26.6489 44.352 26.6952 44.5749C26.7242 44.7196 26.7387 44.9729 26.7387 45.3347V48.17H25.9571V45.3651C25.9571 45.0467 25.9267 44.8094 25.8659 44.653C25.8051 44.4938 25.6966 44.3679 25.5403 44.2753C25.3869 44.1798 25.206 44.132 24.9975 44.132C24.6647 44.132 24.3766 44.2377 24.1335 44.449C23.8932 44.6603 23.7731 45.0612 23.7731 45.6517V48.17H22.9916Z" fill="url(#paint26_linear_3066_26307)"/>
<path d="M30.8614 47.6012C30.572 47.8473 30.2926 48.0209 30.0234 48.1223C29.7571 48.2236 29.4706 48.2742 29.1637 48.2742C28.6572 48.2742 28.2678 48.1512 27.9957 47.9052C27.7236 47.6562 27.5876 47.3393 27.5876 46.9543C27.5876 46.7285 27.6383 46.523 27.7396 46.3377C27.8438 46.1496 27.9784 45.999 28.1434 45.8862C28.3113 45.7733 28.4994 45.6879 28.7078 45.63C28.8612 45.5895 29.0928 45.5504 29.4025 45.5127C30.0336 45.4375 30.4982 45.3478 30.7963 45.2435C30.7992 45.1364 30.8006 45.0684 30.8006 45.0395C30.8006 44.7211 30.7268 44.4967 30.5792 44.3665C30.3795 44.1899 30.0828 44.1016 29.6891 44.1016C29.3215 44.1016 29.0494 44.1667 28.8728 44.297C28.6991 44.4244 28.5703 44.6516 28.4864 44.9787L27.7222 44.8745C27.7917 44.5474 27.906 44.284 28.0652 44.0842C28.2244 43.8816 28.4545 43.7268 28.7556 43.6197C29.0566 43.5097 29.4054 43.4547 29.802 43.4547C30.1957 43.4547 30.5155 43.501 30.7616 43.5936C31.0076 43.6862 31.1885 43.8035 31.3043 43.9453C31.4201 44.0842 31.5011 44.2608 31.5475 44.475C31.5735 44.6082 31.5865 44.8484 31.5865 45.1958V46.2379C31.5865 46.9644 31.6025 47.4247 31.6343 47.6186C31.669 47.8096 31.7356 47.9935 31.834 48.17H31.0177C30.9367 48.0079 30.8846 47.8183 30.8614 47.6012ZM30.7963 45.8558C30.5126 45.9715 30.0871 46.07 29.5198 46.151C29.1985 46.1973 28.9712 46.2494 28.8381 46.3073C28.7049 46.3652 28.6022 46.4506 28.5298 46.5635C28.4574 46.6735 28.4213 46.7965 28.4213 46.9326C28.4213 47.141 28.4994 47.3147 28.6557 47.4536C28.8149 47.5925 29.0465 47.662 29.3504 47.662C29.6515 47.662 29.9192 47.5969 30.1537 47.4666C30.3882 47.3335 30.5604 47.1526 30.6704 46.9239C30.7543 46.7473 30.7963 46.4868 30.7963 46.1423V45.8558Z" fill="url(#paint27_linear_3066_26307)"/>
<path d="M34.4197 47.471L34.5326 48.1613C34.3126 48.2077 34.1158 48.2308 33.9421 48.2308C33.6585 48.2308 33.4385 48.1859 33.2822 48.0962C33.1258 48.0065 33.0159 47.8892 32.9522 47.7445C32.8885 47.5969 32.8566 47.2886 32.8566 46.8197V44.1667H32.2835V43.5589H32.8566V42.4169L33.6339 41.948V43.5589H34.4197V44.1667H33.6339V46.8631C33.6339 47.086 33.6469 47.2293 33.6729 47.2929C33.7019 47.3566 33.7467 47.4073 33.8075 47.4449C33.8712 47.4825 33.9609 47.5014 34.0767 47.5014C34.1636 47.5014 34.2779 47.4912 34.4197 47.471Z" fill="url(#paint28_linear_3066_26307)"/>
<path d="M35.1037 42.7035V41.8047H35.8852V42.7035H35.1037ZM35.1037 48.17V43.5589H35.8852V48.17H35.1037Z" fill="url(#paint29_linear_3066_26307)"/>
<path d="M36.6994 45.8644C36.6994 45.0105 36.9368 44.3781 37.4115 43.967C37.8081 43.6254 38.2915 43.4547 38.8617 43.4547C39.4957 43.4547 40.0138 43.6631 40.4162 44.0799C40.8185 44.4938 41.0197 45.067 41.0197 45.7993C41.0197 46.3927 40.93 46.8602 40.7505 47.2018C40.5739 47.5404 40.3148 47.8039 39.9733 47.992C39.6346 48.1802 39.2641 48.2742 38.8617 48.2742C38.2162 48.2742 37.6938 48.0673 37.2943 47.6533C36.8977 47.2394 36.6994 46.6431 36.6994 45.8644ZM37.5027 45.8644C37.5027 46.455 37.6315 46.8978 37.8891 47.1931C38.1468 47.4854 38.471 47.6316 38.8617 47.6316C39.2496 47.6316 39.5724 47.484 39.83 47.1887C40.0876 46.8935 40.2164 46.4434 40.2164 45.8384C40.2164 45.2682 40.0862 44.8369 39.8256 44.5445C39.568 44.2492 39.2467 44.1016 38.8617 44.1016C38.471 44.1016 38.1468 44.2478 37.8891 44.5402C37.6315 44.8325 37.5027 45.2739 37.5027 45.8644Z" fill="url(#paint30_linear_3066_26307)"/>
<path d="M41.8513 48.17V43.5589H42.5547V44.2145C42.8933 43.7079 43.3825 43.4547 44.0222 43.4547C44.3001 43.4547 44.5548 43.5053 44.7864 43.6066C45.0209 43.7051 45.196 43.8353 45.3118 43.9974C45.4276 44.1595 45.5086 44.352 45.5549 44.5749C45.5839 44.7196 45.5984 44.9729 45.5984 45.3347V48.17H44.8168V45.3651C44.8168 45.0467 44.7864 44.8094 44.7256 44.653C44.6648 44.4938 44.5563 44.3679 44.4 44.2753C44.2466 44.1798 44.0657 44.132 43.8572 44.132C43.5244 44.132 43.2363 44.2377 42.9932 44.449C42.7529 44.6603 42.6328 45.0612 42.6328 45.6517V48.17H41.8513Z" fill="url(#paint31_linear_3066_26307)"/>
<path d="M49.7211 47.6012C49.4317 47.8473 49.1523 48.0209 48.8831 48.1223C48.6168 48.2236 48.3302 48.2742 48.0234 48.2742C47.5169 48.2742 47.1275 48.1512 46.8554 47.9052C46.5833 47.6562 46.4473 47.3393 46.4473 46.9543C46.4473 46.7285 46.498 46.523 46.5993 46.3377C46.7035 46.1496 46.8381 45.999 47.0031 45.8862C47.171 45.7733 47.3591 45.6879 47.5675 45.63C47.7209 45.5895 47.9525 45.5504 48.2622 45.5127C48.8933 45.4375 49.3578 45.3478 49.656 45.2435C49.6589 45.1364 49.6603 45.0684 49.6603 45.0395C49.6603 44.7211 49.5865 44.4967 49.4389 44.3665C49.2392 44.1899 48.9425 44.1016 48.5488 44.1016C48.1812 44.1016 47.9091 44.1667 47.7325 44.297C47.5588 44.4244 47.43 44.6516 47.3461 44.9787L46.5819 44.8745C46.6514 44.5474 46.7657 44.284 46.9249 44.0842C47.0841 43.8816 47.3142 43.7268 47.6153 43.6197C47.9163 43.5097 48.2651 43.4547 48.6617 43.4547C49.0554 43.4547 49.3752 43.501 49.6213 43.5936C49.8673 43.6862 50.0482 43.8035 50.164 43.9453C50.2798 44.0842 50.3608 44.2608 50.4072 44.475C50.4332 44.6082 50.4462 44.8484 50.4462 45.1958V46.2379C50.4462 46.9644 50.4621 47.4247 50.494 47.6186C50.5287 47.8096 50.5953 47.9935 50.6937 48.17H49.8774C49.7964 48.0079 49.7443 47.8183 49.7211 47.6012ZM49.656 45.8558C49.3723 45.9715 48.9468 46.07 48.3795 46.151C48.0582 46.1973 47.8309 46.2494 47.6978 46.3073C47.5646 46.3652 47.4619 46.4506 47.3895 46.5635C47.3171 46.6735 47.2809 46.7965 47.2809 46.9326C47.2809 47.141 47.3591 47.3147 47.5154 47.4536C47.6746 47.5925 47.9062 47.662 48.2101 47.662C48.5112 47.662 48.7789 47.5969 49.0134 47.4666C49.2479 47.3335 49.4201 47.1526 49.5301 46.9239C49.614 46.7473 49.656 46.4868 49.656 46.1423V45.8558Z" fill="url(#paint32_linear_3066_26307)"/>
<path d="M51.5557 48.17V41.8047H52.3372V48.17H51.5557Z" fill="url(#paint33_linear_3066_26307)"/>
<defs>
<radialGradient id="paint0_radial_3066_26307" cx="0" cy="0" r="1" gradientUnits="userSpaceOnUse" gradientTransform="translate(29.812 3.07635) rotate(90) scale(24.3363 31.6728)">
<stop stop-color="#F8D433"/>
<stop offset="0.621349" stop-color="white"/>
<stop offset="1" stop-color="#FFDE2F"/>
</radialGradient>
<linearGradient id="paint1_linear_3066_26307" x1="28.3756" y1="29.5197" x2="28.3756" y2="40.1176" gradientUnits="userSpaceOnUse">
<stop stop-color="#F8D64A"/>
<stop offset="0.510417" stop-color="#FFFDF7"/>
<stop offset="1" stop-color="#F9D94A"/>
</linearGradient>
<linearGradient id="paint2_linear_3066_26307" x1="28.3756" y1="29.5197" x2="28.3756" y2="40.1176" gradientUnits="userSpaceOnUse">
<stop stop-color="#F8D64A"/>
<stop offset="0.510417" stop-color="#FFFDF7"/>
<stop offset="1" stop-color="#F9D94A"/>
</linearGradient>
<linearGradient id="paint3_linear_3066_26307" x1="28.3756" y1="29.5197" x2="28.3756" y2="40.1176" gradientUnits="userSpaceOnUse">
<stop stop-color="#F8D64A"/>
<stop offset="0.510417" stop-color="#FFFDF7"/>
<stop offset="1" stop-color="#F9D94A"/>
</linearGradient>
<linearGradient id="paint4_linear_3066_26307" x1="28.3756" y1="29.5197" x2="28.3756" y2="40.1176" gradientUnits="userSpaceOnUse">
<stop stop-color="#F8D64A"/>
<stop offset="0.510417" stop-color="#FFFDF7"/>
<stop offset="1" stop-color="#F9D94A"/>
</linearGradient>
<linearGradient id="paint5_linear_3066_26307" x1="28.3756" y1="29.5197" x2="28.3756" y2="40.1176" gradientUnits="userSpaceOnUse">
<stop stop-color="#F8D64A"/>
<stop offset="0.510417" stop-color="#FFFDF7"/>
<stop offset="1" stop-color="#F9D94A"/>
</linearGradient>
<linearGradient id="paint6_linear_3066_26307" x1="28.8217" y1="50.8196" x2="28.8217" y2="55.4569" gradientUnits="userSpaceOnUse">
<stop stop-color="#F9D947"/>
<stop offset="0.484375" stop-color="#F3F1E4"/>
<stop offset="1" stop-color="#FFE34F"/>
</linearGradient>
<linearGradient id="paint7_linear_3066_26307" x1="28.8217" y1="50.8196" x2="28.8217" y2="55.4569" gradientUnits="userSpaceOnUse">
<stop stop-color="#F9D947"/>
<stop offset="0.484375" stop-color="#F3F1E4"/>
<stop offset="1" stop-color="#FFE34F"/>
</linearGradient>
<linearGradient id="paint8_linear_3066_26307" x1="28.8217" y1="50.8196" x2="28.8217" y2="55.4569" gradientUnits="userSpaceOnUse">
<stop stop-color="#F9D947"/>
<stop offset="0.484375" stop-color="#F3F1E4"/>
<stop offset="1" stop-color="#FFE34F"/>
</linearGradient>
<linearGradient id="paint9_linear_3066_26307" x1="28.8217" y1="50.8196" x2="28.8217" y2="55.4569" gradientUnits="userSpaceOnUse">
<stop stop-color="#F9D947"/>
<stop offset="0.484375" stop-color="#F3F1E4"/>
<stop offset="1" stop-color="#FFE34F"/>
</linearGradient>
<linearGradient id="paint10_linear_3066_26307" x1="28.8217" y1="50.8196" x2="28.8217" y2="55.4569" gradientUnits="userSpaceOnUse">
<stop stop-color="#F9D947"/>
<stop offset="0.484375" stop-color="#F3F1E4"/>
<stop offset="1" stop-color="#FFE34F"/>
</linearGradient>
<linearGradient id="paint11_linear_3066_26307" x1="28.8217" y1="50.8196" x2="28.8217" y2="55.4569" gradientUnits="userSpaceOnUse">
<stop stop-color="#F9D947"/>
<stop offset="0.484375" stop-color="#F3F1E4"/>
<stop offset="1" stop-color="#FFE34F"/>
</linearGradient>
<linearGradient id="paint12_linear_3066_26307" x1="28.8217" y1="50.8196" x2="28.8217" y2="55.4569" gradientUnits="userSpaceOnUse">
<stop stop-color="#F9D947"/>
<stop offset="0.484375" stop-color="#F3F1E4"/>
<stop offset="1" stop-color="#FFE34F"/>
</linearGradient>
<linearGradient id="paint13_linear_3066_26307" x1="28.8217" y1="50.8196" x2="28.8217" y2="55.4569" gradientUnits="userSpaceOnUse">
<stop stop-color="#F9D947"/>
<stop offset="0.484375" stop-color="#F3F1E4"/>
<stop offset="1" stop-color="#FFE34F"/>
</linearGradient>
<linearGradient id="paint14_linear_3066_26307" x1="28.8217" y1="50.8196" x2="28.8217" y2="55.4569" gradientUnits="userSpaceOnUse">
<stop stop-color="#F9D947"/>
<stop offset="0.484375" stop-color="#F3F1E4"/>
<stop offset="1" stop-color="#FFE34F"/>
</linearGradient>
<linearGradient id="paint15_linear_3066_26307" x1="28.8217" y1="50.8196" x2="28.8217" y2="55.4569" gradientUnits="userSpaceOnUse">
<stop stop-color="#F9D947"/>
<stop offset="0.484375" stop-color="#F3F1E4"/>
<stop offset="1" stop-color="#FFE34F"/>
</linearGradient>
<linearGradient id="paint16_linear_3066_26307" x1="28.8217" y1="50.8196" x2="28.8217" y2="55.4569" gradientUnits="userSpaceOnUse">
<stop stop-color="#F9D947"/>
<stop offset="0.484375" stop-color="#F3F1E4"/>
<stop offset="1" stop-color="#FFE34F"/>
</linearGradient>
<linearGradient id="paint17_linear_3066_26307" x1="28.8217" y1="50.8196" x2="28.8217" y2="55.4569" gradientUnits="userSpaceOnUse">
<stop stop-color="#F9D947"/>
<stop offset="0.484375" stop-color="#F3F1E4"/>
<stop offset="1" stop-color="#FFE34F"/>
</linearGradient>
<linearGradient id="paint18_linear_3066_26307" x1="28.8217" y1="50.8196" x2="28.8217" y2="55.4569" gradientUnits="userSpaceOnUse">
<stop stop-color="#F9D947"/>
<stop offset="0.484375" stop-color="#F3F1E4"/>
<stop offset="1" stop-color="#FFE34F"/>
</linearGradient>
<linearGradient id="paint19_linear_3066_26307" x1="28.8217" y1="50.8196" x2="28.8217" y2="55.4569" gradientUnits="userSpaceOnUse">
<stop stop-color="#F9D947"/>
<stop offset="0.484375" stop-color="#F3F1E4"/>
<stop offset="1" stop-color="#FFE34F"/>
</linearGradient>
<linearGradient id="paint20_linear_3066_26307" x1="28.8217" y1="50.8196" x2="28.8217" y2="55.4569" gradientUnits="userSpaceOnUse">
<stop stop-color="#F9D947"/>
<stop offset="0.484375" stop-color="#F3F1E4"/>
<stop offset="1" stop-color="#FFE34F"/>
</linearGradient>
<linearGradient id="paint21_linear_3066_26307" x1="29.1029" y1="41.8047" x2="29.1029" y2="48.2742" gradientUnits="userSpaceOnUse">
<stop stop-color="#F9D94A"/>
<stop offset="0.473958" stop-color="#F5F1DF"/>
<stop offset="1" stop-color="#F9DB51"/>
</linearGradient>
<linearGradient id="paint22_linear_3066_26307" x1="29.1029" y1="41.8047" x2="29.1029" y2="48.2742" gradientUnits="userSpaceOnUse">
<stop stop-color="#F9D94A"/>
<stop offset="0.473958" stop-color="#F5F1DF"/>
<stop offset="1" stop-color="#F9DB51"/>
</linearGradient>
<linearGradient id="paint23_linear_3066_26307" x1="29.1029" y1="41.8047" x2="29.1029" y2="48.2742" gradientUnits="userSpaceOnUse">
<stop stop-color="#F9D94A"/>
<stop offset="0.473958" stop-color="#F5F1DF"/>
<stop offset="1" stop-color="#F9DB51"/>
</linearGradient>
<linearGradient id="paint24_linear_3066_26307" x1="29.1029" y1="41.8047" x2="29.1029" y2="48.2742" gradientUnits="userSpaceOnUse">
<stop stop-color="#F9D94A"/>
<stop offset="0.473958" stop-color="#F5F1DF"/>
<stop offset="1" stop-color="#F9DB51"/>
</linearGradient>
<linearGradient id="paint25_linear_3066_26307" x1="29.1029" y1="41.8047" x2="29.1029" y2="48.2742" gradientUnits="userSpaceOnUse">
<stop stop-color="#F9D94A"/>
<stop offset="0.473958" stop-color="#F5F1DF"/>
<stop offset="1" stop-color="#F9DB51"/>
</linearGradient>
<linearGradient id="paint26_linear_3066_26307" x1="29.1029" y1="41.8047" x2="29.1029" y2="48.2742" gradientUnits="userSpaceOnUse">
<stop stop-color="#F9D94A"/>
<stop offset="0.473958" stop-color="#F5F1DF"/>
<stop offset="1" stop-color="#F9DB51"/>
</linearGradient>
<linearGradient id="paint27_linear_3066_26307" x1="29.1029" y1="41.8047" x2="29.1029" y2="48.2742" gradientUnits="userSpaceOnUse">
<stop stop-color="#F9D94A"/>
<stop offset="0.473958" stop-color="#F5F1DF"/>
<stop offset="1" stop-color="#F9DB51"/>
</linearGradient>
<linearGradient id="paint28_linear_3066_26307" x1="29.1029" y1="41.8047" x2="29.1029" y2="48.2742" gradientUnits="userSpaceOnUse">
<stop stop-color="#F9D94A"/>
<stop offset="0.473958" stop-color="#F5F1DF"/>
<stop offset="1" stop-color="#F9DB51"/>
</linearGradient>
<linearGradient id="paint29_linear_3066_26307" x1="29.1029" y1="41.8047" x2="29.1029" y2="48.2742" gradientUnits="userSpaceOnUse">
<stop stop-color="#F9D94A"/>
<stop offset="0.473958" stop-color="#F5F1DF"/>
<stop offset="1" stop-color="#F9DB51"/>
</linearGradient>
<linearGradient id="paint30_linear_3066_26307" x1="29.1029" y1="41.8047" x2="29.1029" y2="48.2742" gradientUnits="userSpaceOnUse">
<stop stop-color="#F9D94A"/>
<stop offset="0.473958" stop-color="#F5F1DF"/>
<stop offset="1" stop-color="#F9DB51"/>
</linearGradient>
<linearGradient id="paint31_linear_3066_26307" x1="29.1029" y1="41.8047" x2="29.1029" y2="48.2742" gradientUnits="userSpaceOnUse">
<stop stop-color="#F9D94A"/>
<stop offset="0.473958" stop-color="#F5F1DF"/>
<stop offset="1" stop-color="#F9DB51"/>
</linearGradient>
<linearGradient id="paint32_linear_3066_26307" x1="29.1029" y1="41.8047" x2="29.1029" y2="48.2742" gradientUnits="userSpaceOnUse">
<stop stop-color="#F9D94A"/>
<stop offset="0.473958" stop-color="#F5F1DF"/>
<stop offset="1" stop-color="#F9DB51"/>
</linearGradient>
<linearGradient id="paint33_linear_3066_26307" x1="29.1029" y1="41.8047" x2="29.1029" y2="48.2742" gradientUnits="userSpaceOnUse">
<stop stop-color="#F9D94A"/>
<stop offset="0.473958" stop-color="#F5F1DF"/>
<stop offset="1" stop-color="#F9DB51"/>
</linearGradient>
</defs>
</svg>
