<svg width="31" height="68" viewBox="0 0 31 68" fill="none" xmlns="http://www.w3.org/2000/svg">
<path d="M11.0076 16.7862C9.9629 13.7999 10.6732 11.693 11.2528 10.043C12.5622 10.8875 14.6089 12.1871 15.6497 15.1623C16.5518 17.7412 16.0356 20.8163 15.5381 22.2929C14.1852 21.3189 12.0523 19.7724 11.0076 16.7862Z" fill="#BAC2CF"/>
<path d="M21.437 17.3919C24.1748 16.1097 26.2317 16.5495 27.8447 16.9157C27.1583 18.2203 26.1047 20.2571 23.3771 21.5345C21.0128 22.6418 18.0557 22.4833 16.6141 22.1753C17.4194 20.8169 18.6993 18.6741 21.437 17.3919Z" fill="#BAC2CF"/>
<path d="M17.2882 26.8015C19.9583 24.9109 22.2484 25.006 24.0484 25.1035C23.5779 26.6393 22.8626 29.0339 20.2025 30.9174C17.8965 32.5501 14.7002 32.9252 13.0953 32.8588C13.6822 31.2429 14.6181 28.6921 17.2882 26.8015Z" fill="#BAC2CF"/>
<path d="M17.2513 37.0874C19.6106 34.8055 21.9886 34.6464 23.8624 34.5453C23.6952 36.2071 23.4531 38.796 21.1027 41.0694C19.0652 43.04 15.851 43.7938 14.1845 43.9056C14.4551 42.1467 14.8921 39.3692 17.2513 37.0874Z" fill="#BAC2CF"/>
<path d="M23.0548 57.345C23.7111 54.37 25.4835 53.0312 26.8926 51.995C27.6245 53.3688 28.7791 55.4997 28.1252 58.4635C27.5585 61.0327 25.4424 63.26 24.2005 64.1985C23.4989 62.6966 22.3986 60.3199 23.0548 57.345Z" fill="#BAC2CF"/>
<path d="M21.4898 6.20906C23.6626 3.27481 26.3105 2.7165 28.4022 2.30367C28.5689 4.19272 28.8495 7.13277 26.6847 10.0561C24.8083 12.5901 21.3444 13.9486 19.4889 14.3401C19.418 12.3258 19.3169 9.14332 21.4898 6.20906Z" fill="#BAC2CF"/>
<path d="M6.88543 28.402C4.58756 25.2328 4.61175 22.5342 4.65727 20.4133C6.45991 20.9854 9.26987 21.8559 11.5591 25.0133C13.5436 27.7502 14.0999 31.5226 14.0832 33.4137C12.1831 32.7035 9.1833 31.5712 6.88543 28.402Z" fill="#BAC2CF"/>
<path d="M6.21258 42.1546C3.132 39.9749 2.36514 37.4361 1.78729 35.4316C3.64393 35.3467 6.53184 35.1943 9.60093 37.3659C12.2613 39.2483 13.8863 42.594 14.424 44.3731C12.4356 44.3621 9.29317 44.3343 6.21258 42.1546Z" fill="#BAC2CF"/>
<path d="M19.6945 47.262C21.5828 44.5774 23.8704 43.9615 25.6773 43.4997C25.8126 45.1544 26.0414 47.7287 24.1601 50.4032C22.5293 52.7216 19.534 54.0802 17.931 54.5121C17.8789 52.7427 17.8061 49.9466 19.6945 47.262Z" fill="#BAC2CF"/>
<path d="M9.39147 54.1133C5.97647 52.5074 4.77642 50.1423 3.85613 48.2702C5.66913 47.8611 8.48561 47.2048 11.8879 48.8048C14.837 50.1917 17.0234 53.2006 17.8646 54.8579C15.9051 55.1957 12.8065 55.7192 9.39147 54.1133Z" fill="#BAC2CF"/>
<path d="M15.8719 65.1417C12.4761 64.0486 11.0926 61.8913 10.0254 60.1794C11.695 59.5174 14.2864 58.4687 17.6696 59.5578C20.6021 60.5019 22.9854 63.1522 23.9552 64.6639C22.1397 65.2765 19.2677 66.2349 15.8719 65.1417Z" fill="#BAC2CF"/>
<path d="M20.6359 12.297C8.41471 33.9692 14.382 53.4601 26.7659 66.8219" stroke="#BAC2CF" stroke-width="2" stroke-linecap="round"/>
</svg>
