<svg width="24" height="24" viewBox="0 0 24 24" fill="none" xmlns="http://www.w3.org/2000/svg">
<path fill-rule="evenodd" clip-rule="evenodd" d="M22.4891 11.9942C22.4891 17.7904 17.7904 22.4891 11.9942 22.4891C6.19801 22.4891 1.49927 17.7904 1.49927 11.9942C1.49927 6.19801 6.19801 1.49927 11.9942 1.49927C17.7904 1.49927 22.4891 6.19801 22.4891 11.9942ZM23.9884 11.9942C23.9884 18.6184 18.6184 23.9884 11.9942 23.9884C5.36998 23.9884 0 18.6184 0 11.9942C0 5.36998 5.36998 0 11.9942 0C18.6184 0 23.9884 5.36998 23.9884 11.9942ZM14.006 6.57811C15.0084 6.7537 15.9672 7.06027 16.8613 7.47639C16.8691 7.47977 16.8757 7.48542 16.8796 7.49332C18.4637 9.85673 19.2462 12.5228 18.9537 15.5919C18.9526 15.6049 18.9459 15.6168 18.9354 15.6247C17.7355 16.5184 16.5733 17.061 15.427 17.4206C15.4088 17.4263 15.3889 17.4195 15.3778 17.4037C15.1129 17.0299 14.8724 16.6359 14.6618 16.222C14.6496 16.1977 14.6607 16.1684 14.6855 16.1588C15.0676 16.0125 15.4309 15.8375 15.7804 15.6303C15.808 15.6139 15.8097 15.5738 15.7842 15.5547C15.7101 15.4988 15.6366 15.44 15.5664 15.3813C15.5531 15.3706 15.5354 15.3683 15.5205 15.3757C13.2518 16.4388 10.7663 16.4388 8.4705 15.3757C8.45557 15.3689 8.43786 15.3712 8.42516 15.3819C8.35494 15.4406 8.28138 15.4988 8.20784 15.5547C8.18241 15.5738 8.18463 15.6139 8.21227 15.6303C8.56173 15.8336 8.92501 16.0125 9.30654 16.1593C9.33141 16.1689 9.34303 16.1977 9.33086 16.222C9.12463 16.6364 8.8841 17.0305 8.61426 17.4043C8.60264 17.4195 8.5833 17.4263 8.56504 17.4206C7.42434 17.061 6.26206 16.5184 5.06218 15.6247C5.05223 15.6168 5.04504 15.6044 5.04393 15.5914C4.79953 12.9366 5.29773 10.2486 7.11636 7.49276C7.12076 7.48542 7.1274 7.47977 7.13515 7.47639C8.0298 7.05971 8.9886 6.75314 9.99052 6.57811C10.0088 6.57529 10.027 6.58376 10.0364 6.60013C10.1603 6.82258 10.3018 7.10771 10.3975 7.34087C11.4536 7.17715 12.5263 7.17715 13.6045 7.34087C13.7002 7.11278 13.8368 6.82258 13.9601 6.60013C13.9695 6.58319 13.9877 6.57472 14.006 6.57811ZM8.41299 12.5408C8.41299 13.3313 8.98251 13.9749 9.6737 13.9749C10.3759 13.9749 10.9344 13.3313 10.9344 12.5408C10.9455 11.756 10.3814 11.1068 9.6737 11.1068C8.97147 11.1068 8.41299 11.7504 8.41299 12.5408ZM13.0743 12.5408C13.0743 13.3313 13.6438 13.9749 14.335 13.9749C15.0427 13.9749 15.5957 13.3313 15.5957 12.5408C15.6067 11.756 15.0427 11.1068 14.335 11.1068C13.6327 11.1068 13.0743 11.7504 13.0743 12.5408Z" fill="white"/>
</svg>
