<svg width="24" height="24" viewBox="0 0 24 24" fill="none" xmlns="http://www.w3.org/2000/svg">
<path fill-rule="evenodd" clip-rule="evenodd" d="M22.4891 11.9942C22.4891 17.7904 17.7904 22.4891 11.9942 22.4891C6.19801 22.4891 1.49927 17.7904 1.49927 11.9942C1.49927 6.19801 6.19801 1.49927 11.9942 1.49927C17.7904 1.49927 22.4891 6.19801 22.4891 11.9942ZM23.9884 11.9942C23.9884 18.6184 18.6184 23.9884 11.9942 23.9884C5.36998 23.9884 0 18.6184 0 11.9942C0 5.36998 5.36998 0 11.9942 0C18.6184 0 23.9884 5.36998 23.9884 11.9942ZM13.145 13.0355C13.145 13.628 13.6475 14.1086 14.2455 14.1086C14.8435 14.1086 15.3285 13.628 15.3285 13.0355C15.3285 12.4429 14.8435 11.9465 14.2455 11.9465C13.6475 11.9465 13.145 12.4429 13.145 13.0355ZM11.8735 17.0109C13.0835 17.0109 13.9425 16.7429 14.4995 16.1914C14.67 16.0225 14.67 15.7485 14.4995 15.5791C14.329 15.4101 14.0525 15.4096 13.8815 15.5791C13.497 15.9596 12.84 16.1449 11.8735 16.1449C11.8723 16.1449 11.871 16.145 11.8697 16.1451C11.8682 16.1452 11.8666 16.1454 11.865 16.1454C11.8638 16.1454 11.8625 16.1453 11.8612 16.1451C11.8597 16.145 11.8581 16.1449 11.8565 16.1449C10.89 16.1449 10.2335 15.9596 9.84954 15.5791C9.67854 15.4101 9.40204 15.4101 9.23154 15.5791C9.06054 15.748 9.06054 16.022 9.23154 16.1914C9.78804 16.7429 10.6465 17.0109 11.8565 17.0109C11.8576 17.0109 11.8586 17.0108 11.8596 17.0108C11.8615 17.0106 11.8634 17.0104 11.865 17.0104C11.8658 17.0104 11.8665 17.0104 11.8672 17.0105C11.8695 17.0106 11.8717 17.0109 11.8735 17.0109ZM9.50154 11.9465C8.90404 11.9465 8.40254 12.4434 8.40254 13.0355C8.40254 13.628 8.90404 14.1086 9.50154 14.1086C10.0995 14.1086 10.5845 13.628 10.5845 13.0355C10.5845 12.4434 10.0995 11.9465 9.50154 11.9465ZM17.932 6.92668C17.932 6.52586 17.6025 6.19937 17.1975 6.19937C16.7925 6.19937 16.463 6.52586 16.463 6.92668C16.463 7.32799 16.7925 7.65448 17.1975 7.65448C17.6025 7.65448 17.932 7.32799 17.932 6.92668ZM17.9425 9.95135C19.003 9.95135 19.8655 10.806 19.8655 11.8568C19.8655 12.5316 19.509 13.1256 18.973 13.464C18.9905 13.6023 19 13.7415 19 13.8817C19 15.1951 18.2295 16.4169 16.8305 17.3215C15.4895 18.1891 13.7145 18.6667 11.833 18.6667C9.95154 18.6667 8.17654 18.1891 6.83554 17.3215C5.43654 16.4169 4.66604 15.1951 4.66604 13.8817C4.66604 13.7276 4.67704 13.5755 4.69804 13.4244C4.19554 13.0806 3.86554 12.5063 3.86554 11.8568C3.86554 10.806 4.72804 9.95135 5.78854 9.95135C6.23404 9.95135 6.64454 10.103 6.97104 10.3561C8.22954 9.58324 9.84504 9.1418 11.5635 9.10018L12.5965 5.86494C12.6655 5.64893 12.8905 5.5221 13.113 5.57412L15.77 6.19392C16.0385 5.68312 16.5775 5.33334 17.1975 5.33334C18.084 5.33334 18.8055 6.04826 18.8055 6.92668C18.8055 7.80559 18.084 8.52051 17.1975 8.52051C16.35 8.52051 15.654 7.86752 15.594 7.04261L13.3075 6.50902L12.4755 9.11554C14.0705 9.20868 15.5585 9.64864 16.731 10.3789C17.062 10.1119 17.4835 9.95135 17.9425 9.95135Z" fill="white"/>
</svg>
