<svg xmlns="http://www.w3.org/2000/svg" fill="none" viewBox="0 0 24 24"><path fill="#fff" fill-rule="evenodd" d="M24 12c0 6.627-5.373 12-12 12S0 18.627 0 12 5.373 0 12 0s12 5.373 12 12zm-1.44 0c0 5.832-4.728 10.56-10.56 10.56-5.832 0-10.56-4.728-10.56-10.56C1.44 6.168 6.168 1.44 12 1.44c5.832 0 10.56 4.728 10.56 10.56zm-13.578.709l-2.557-.925a.324.324 0 0 1 0-.585L16.87 7.224c.215-.092.462.093.4.34l-1.88 8.996c-.03.216-.276.308-.461.185l-2.558-1.849a.417.417 0 0 0-.523 0l-1.418 1.14a.291.291 0 0 1-.462-.154l-.986-3.173zm5.793-3.544l-4.96 3.05c-.217.124-.278.34-.247.617l.523 1.88c.031.123.216.092.247-.031l.154-1.048c.03-.216.123-.4.277-.524l4.098-3.82c.093-.062 0-.185-.092-.124z" clip-rule="evenodd"/></svg>
