<svg xmlns="http://www.w3.org/2000/svg" fill="none" viewBox="0 0 24 24"><path fill="#fff" fill-rule="evenodd" d="M12 24c6.627 0 12-5.373 12-12S18.627 0 12 0 0 5.373 0 12s5.373 12 12 12zm0-1.44c5.832 0 10.56-4.728 10.56-10.56 0-5.832-4.728-10.56-10.56-10.56C6.168 1.44 1.44 6.168 1.44 12c0 5.832 4.728 10.56 10.56 10.56zm-.152-12.694l.022.395-.381-.049C10.1 10.027 8.887 9.4 7.857 8.345l-.504-.524-.13.387c-.274.861-.099 1.77.474 2.383.305.338.236.386-.29.185-.183-.065-.344-.113-.359-.089-.053.056.13.79.275 1.079.198.402.603.797 1.045 1.03l.374.186-.443.008c-.427 0-.442.008-.396.177.152.523.755 1.078 1.427 1.32l.473.169-.412.258c-.61.37-1.328.58-2.045.595-.344.008-.626.04-.626.065 0 .08.93.531 1.473.708 1.625.523 3.555.298 5.005-.596 1.03-.636 2.06-1.9 2.54-3.123.26-.652.52-1.844.52-2.415 0-.37.023-.419.45-.862.252-.257.488-.539.534-.62.076-.152.069-.152-.32-.016-.649.242-.74.21-.42-.152.236-.258.519-.725.519-.862 0-.024-.115.016-.244.089-.138.08-.443.2-.672.273l-.412.137-.374-.265c-.206-.145-.496-.306-.648-.355-.39-.112-.985-.096-1.336.033a2.307 2.307 0 0 0-1.488 2.318s-.068-1.022 0 0z" clip-rule="evenodd"/></svg>
