<svg width="32" height="33" viewBox="0 0 32 33" fill="none" xmlns="http://www.w3.org/2000/svg">
<circle cx="16" cy="16.0933" r="16" fill="url(#paint0_linear_3053_25432)"/>
<path fill-rule="evenodd" clip-rule="evenodd" d="M15.7954 13.341L15.7592 12.7169C15.6505 11.0993 16.6042 9.62179 18.1133 9.04862C18.6686 8.84482 19.6103 8.81935 20.226 8.99767C20.4674 9.07409 20.9262 9.32883 21.2521 9.5581L21.8437 9.97843L22.4956 9.7619C22.8578 9.64726 23.3407 9.45621 23.558 9.32883C23.7632 9.2142 23.9443 9.15051 23.9443 9.18872C23.9443 9.40526 23.4976 10.144 23.1233 10.5516C22.6163 11.1248 22.7612 11.1757 23.7873 10.7936C24.403 10.5771 24.4151 10.5771 24.2944 10.8191C24.2219 10.9465 23.8477 11.3923 23.4493 11.7998C22.7732 12.5004 22.737 12.5768 22.737 13.1627C22.737 14.0671 22.3266 15.9522 21.9161 16.9839C21.1555 18.9199 19.5258 20.9197 17.896 21.9259C15.6022 23.3397 12.5479 23.6964 9.97646 22.8685C9.11932 22.5882 7.64648 21.875 7.64648 21.7476C7.64648 21.7094 8.09316 21.6584 8.63642 21.6457C9.77123 21.6202 10.906 21.289 11.8718 20.7031L12.5237 20.2955L11.7753 20.0281C10.7129 19.6459 9.75916 18.7671 9.51771 17.9392C9.44528 17.6717 9.46942 17.6589 10.1455 17.6589L10.8457 17.6462L10.2541 17.3533C9.55393 16.9839 8.91409 16.3598 8.60021 15.7229C8.37083 15.2644 8.08109 14.1053 8.1656 14.0161C8.18974 13.9779 8.44326 14.0543 8.733 14.1562C9.566 14.4747 9.67465 14.3982 9.19176 13.8633C8.28632 12.8952 8.00866 11.4559 8.44327 10.0931L8.6485 9.48168L9.44528 10.3096C11.0751 11.9782 12.9946 12.9717 15.1918 13.2646L15.7954 13.341Z" fill="white"/>
<defs>
<linearGradient id="paint0_linear_3053_25432" x1="-5.92801e-07" y1="26.5855" x2="32" y2="7.72118" gradientUnits="userSpaceOnUse">
<stop stop-color="#2092FF"/>
<stop offset="1" stop-color="#1DA8FE"/>
</linearGradient>
</defs>
</svg>
