<svg width="81" height="80" viewBox="0 0 81 80" fill="none" xmlns="http://www.w3.org/2000/svg">
<circle r="16.6666" transform="matrix(1 0 0 -1 40.6939 40.0004)" fill="#F8D33A"/>
<circle r="11.4035" transform="matrix(1 0 0 -1 40.694 40.0018)" fill="url(#paint0_linear_322_44945)"/>
<path d="M34.5536 40.0003L40.6939 46.1406L46.8343 40.0003L40.6939 33.8599L34.5536 40.0003Z" fill="#F0B90B"/>
<path opacity="0.3" d="M40.6938 6.66682C59.1033 6.66682 74.0272 21.5907 74.0272 40.0002C74.0272 58.4097 59.1033 73.3335 40.6938 73.3335L40.6938 66.6668C55.4214 66.6668 67.3605 54.7278 67.3605 40.0002C67.3605 25.2726 55.4214 13.3335 40.6938 13.3335L40.6938 6.66682Z" fill="#AEB4BC"/>
<path opacity="0.3" d="M69.0272 9.1665L71.5272 11.6665L74.0272 9.1665L71.5272 6.6665L69.0272 9.1665Z" fill="#AEB4BC"/>
<path opacity="0.3" d="M33.1938 63.3333L34.8605 65L36.5272 63.3333L34.8605 61.6667L33.1938 63.3333Z" fill="#AEB4BC"/>
<path opacity="0.3" d="M7.3606 20.8335H9.8606V18.3335H7.3606V20.8335Z" fill="#AEB4BC"/>
<path d="M7.3606 39.9998C7.3606 21.5903 22.2844 6.6665 40.6939 6.6665V13.3332C25.9663 13.3332 14.0273 25.2722 14.0273 39.9998C14.0273 47.3646 17.0084 54.0267 21.8377 58.856L26.5273 54.1665V68.3332H12.3606L17.1237 63.5701C11.0952 57.5416 7.3606 49.2037 7.3606 39.9998Z" fill="url(#paint1_linear_322_44945)"/>
<defs>
<linearGradient id="paint0_linear_322_44945" x1="11.4035" y1="0" x2="11.4035" y2="22.807" gradientUnits="userSpaceOnUse">
<stop stop-color="#F0B90B"/>
<stop offset="1" stop-color="#F8D33A"/>
</linearGradient>
<linearGradient id="paint1_linear_322_44945" x1="24.0273" y1="6.6665" x2="24.0273" y2="68.3332" gradientUnits="userSpaceOnUse">
<stop stop-color="#929AA5"/>
<stop offset="1" stop-color="#76808F"/>
</linearGradient>
</defs>
</svg>
