<svg xmlns:xlink="http://www.w3.org/1999/xlink" xmlns="http://www.w3.org/2000/svg" viewBox="0 0 217.56 163.72">
    <defs>
        <style>.cls-1{fill:url(#Безымянный_градиент_2);}.cls-2{fill:#fff;}</style>
        <radialGradient id="Безымянный_градиент_2" cx="2910.57" cy="28.17" fx="2747.602894480655"
                        fy="13.936715710864837" r="1035.28"
                        gradientTransform="matrix(0.29, 0.09, -0.04, 0.23, -805.42, -234.52)"
                        gradientUnits="userSpaceOnUse">
            <stop offset="0.07" stop-color="#00346d"/>
            <stop offset="0.27" stop-color="#0a2755"/>
            <stop offset="0.48" stop-color="#111d44"/>
            <stop offset="0.71" stop-color="#15183a"/>
            <stop offset="1" stop-color="#161637"/>
        </radialGradient>
    </defs>
    <g id="Слой_2" data-name="Слой 2">
        <g id="Слой_1-2" data-name="Слой 1">
            <rect class="cls-1" width="217.56" height="163.72"/>
            <path class="cls-2"
                  d="M196.44,71.29H181.82a.45.45,0,0,0-.45.45v.54a.45.45,0,0,0,.45.45h6.55v19.2a.45.45,0,0,0,.45.45h.62a.45.45,0,0,0,.45-.45V72.73h6.55a.45.45,0,0,0,.45-.45v-.54A.45.45,0,0,0,196.44,71.29Z"/>
            <path class="cls-2"
                  d="M159.42,71.3a2.72,2.72,0,0,0-2.16,1l-6.47,8.3-6.29-8.28a2.69,2.69,0,0,0-2.14-1.07h-.46l8,10.51-8.12,10.41h.45a2.68,2.68,0,0,0,2.16-1l6.4-8.21,6.38,8.39a2.69,2.69,0,0,0,2.14,1.07h.45l-8.06-10.62,8.2-10.5Z"/>
            <path class="cls-2"
                  d="M175.77,80.94a5.66,5.66,0,0,0-4-9.65h-7.53a.45.45,0,0,0-.45.45V91.93a.45.45,0,0,0,.45.45h7.89a.47.47,0,0,0,.2-.06,5.63,5.63,0,0,0,3.44-9.59,6.13,6.13,0,0,0-1-.8v-.19A5.65,5.65,0,0,0,175.77,80.94Zm.13,5.78a4.11,4.11,0,0,1-4.08,4.13h-6.51V82.6h6.51a4.11,4.11,0,0,1,4.08,4.12Zm-1.21-6.85a4.11,4.11,0,0,1-2.87,1.2h-6.51V72.82h6.46a4.14,4.14,0,0,1,2.92,7.06Z"/>
            <path class="cls-2"
                  d="M125.75,71.29H111.31a.45.45,0,0,0-.45.45v7.45a.45.45,0,0,0,.45.45h4a.45.45,0,0,0,.45-.45V75.42h10a.45.45,0,0,0,.45-.45V71.74A.45.45,0,0,0,125.75,71.29Z"/>
            <path class="cls-2"
                  d="M125.75,88.25h-10V84.48a.45.45,0,0,0-.45-.45h-4a.45.45,0,0,0-.45.45v7.45a.45.45,0,0,0,.45.45h14.44a.45.45,0,0,0,.45-.45V88.7A.45.45,0,0,0,125.75,88.25Z"/>
            <rect class="cls-2" x="115.79" y="79.64" width="4.4" height="4.4" rx="0.45"/>
            <path class="cls-2"
                  d="M103.86,71.29H99.5a.44.44,0,0,0-.39.24L93.48,81.67,87.84,71.53a.42.42,0,0,0-.39-.24H83.32a.45.45,0,0,0-.45.45v20.1a.45.45,0,0,0,.45.45h4a.45.45,0,0,0,.45-.45V81.48l5.14,9.1.18.37a.45.45,0,0,0,.79,0l5.47-9.79V91.84a.45.45,0,0,0,.44.45h4a.45.45,0,0,0,.45-.45V71.74A.45.45,0,0,0,103.86,71.29Z"/>
            <rect class="cls-2" x="71.39" y="71.29" width="4.93" height="8.34" rx="0.45"/>
            <rect class="cls-2" x="71.39" y="84.03" width="4.93" height="8.25" rx="0.45"/>
            <path class="cls-2"
                  d="M64.84,80a8.66,8.66,0,0,0-8.61-8.65H48a.45.45,0,0,0-.45.45V91.93a.45.45,0,0,0,.45.45h4a.45.45,0,0,0,.45-.45V88.61H54a2.7,2.7,0,0,1,1.89.77l2.24,2.21a2.67,2.67,0,0,0,1.89.78h3.59a.45.45,0,0,0,.32-.77L60,87.7a8.84,8.84,0,0,0,2.27-1.63A8.62,8.62,0,0,0,64.84,80Zm-5.45,3.21a4.53,4.53,0,0,1-3.16,1.32H52.46V75.42h3.77a4.53,4.53,0,0,1,3.16,7.74Z"/>
            <rect class="cls-2" x="19.62" y="79.64" width="4.4" height="4.4" rx="0.45"/>
            <path class="cls-2"
                  d="M38.91,84H24.47a.45.45,0,0,0-.45.45v7.45a.45.45,0,0,0,.45.45h4a.45.45,0,0,0,.45-.45V88.65a.45.45,0,0,1,.45-.45h3.1a8.53,8.53,0,0,0,6.75-3.53A.4.4,0,0,0,38.91,84Z"/>
            <path class="cls-2"
                  d="M34.11,71.29H24.47a.45.45,0,0,0-.45.45v7.45a.45.45,0,0,0,.45.45h4a.45.45,0,0,0,.45-.45V75.87a.45.45,0,0,1,.45-.45h3.46c2.43,0,3,2.64,3.14,3.7a.48.48,0,0,0,.47.43h4a.43.43,0,0,0,.43-.47C40.61,75.64,38.06,71.29,34.11,71.29Z"/>
        </g>
    </g>
</svg>