<svg xmlns="http://www.w3.org/2000/svg" width="73" height="72" fill="none"><g clip-path="url(#a)"><path fill="#7A85D3" d="M36.333 72c19.883 0 36-16.118 36-36s-16.117-36-36-36c-19.882 0-36 16.118-36 36s16.118 36 36 36Z"/><path fill="#fff" fill-rule="evenodd" d="M41.633 20.6c2.7.5 5.2 1.3 7.6 2.4 4.2 6.3 6.3 13.4 5.5 21.5v.1c-3.2 2.4-6.3 3.8-9.3 4.8h-.1c-.7-1-1.3-2-1.9-3.1 0-.1 0-.1.1-.2 1-.4 2-.9 2.9-1.4.1 0 .1-.2 0-.2-.2-.1-.4-.3-.6-.5h-.1c-6 2.8-12.6 2.8-18.8 0h-.1c-.2.2-.4.3-.6.5-.1.1-.1.2 0 .2.9.5 1.9 1 2.9 1.4.1 0 .1.1.1.2-.5 1.1-1.2 2.2-1.9 3.1 0 0-.1.1-.1 0-3-1-6.1-2.4-9.3-4.8v-.1c-.8-7 .6-14.2 5.4-21.5 2.4-1.1 4.9-1.9 7.6-2.4 0 0 .1 0 .1.1l1 2c2.8-.4 5.7-.4 8.5 0 .3-.6.6-1.4.9-2 .1-.1.2-.1.2-.1Zm-14.8 15.8c0 2.1 1.5 3.8 3.4 3.8s3.4-1.7 3.4-3.8c0-2.1-1.5-3.8-3.4-3.8-2 0-3.4 1.7-3.4 3.8Zm12.4 0c0 2.1 1.5 3.8 3.4 3.8s3.4-1.7 3.4-3.8c0-2.1-1.5-3.8-3.4-3.8-2 0-3.4 1.7-3.4 3.8Z" clip-rule="evenodd"/></g><defs><clipPath id="a"><path fill="#fff" d="M.333 0h72v72h-72z"/></clipPath></defs></svg>