<svg xmlns="http://www.w3.org/2000/svg" width="73" height="72" fill="none"><g clip-path="url(#a)"><path fill="url(#b)" d="M36.667 72c19.882 0 36-16.118 36-36s-16.118-36-36-36c-19.883 0-36 16.118-36 36s16.117 36 36 36Z"/><path fill="#fff" d="M46.967 23.4c-1.3 0-2.3 1-2.3 2.3 0 1.3 1 2.3 2.3 2.3 1.3 0 2.3-1 2.3-2.3 0-1.3-1-2.3-2.3-2.3ZM36.867 26.4c-5.3 0-9.6 4.3-9.6 9.6s4.3 9.6 9.6 9.6 9.6-4.3 9.6-9.6-4.3-9.6-9.6-9.6Zm0 15.7c-3.4 0-6.1-2.8-6.1-6.1s2.8-6.1 6.1-6.1c3.4 0 6.1 2.8 6.1 6.1s-2.8 6.1-6.1 6.1Z"/><path fill="#fff" d="M44.467 55.4h-15.6c-6.5 0-11.7-5.2-11.7-11.7V28.2c0-6.5 5.2-11.7 11.7-11.7h15.6c6.5 0 11.7 5.2 11.7 11.7v15.6c0 6.4-5.3 11.6-11.7 11.6Zm-15.6-35.3c-4.4 0-8 3.6-8 8v15.6c0 4.4 3.6 8 8 8h15.6c4.4 0 8-3.6 8-8V28.2c0-4.4-3.6-8-8-8h-15.6v-.1Z"/></g><defs><linearGradient id="b" x1="62.123" x2="11.211" y1="10.544" y2="61.456" gradientUnits="userSpaceOnUse"><stop stop-color="#F3E4B3"/><stop offset=".073" stop-color="#E8BF71"/><stop offset=".377" stop-color="#E66F88"/><stop offset=".524" stop-color="#E165A4"/><stop offset=".739" stop-color="#B370CF"/><stop offset="1" stop-color="#776BD8"/></linearGradient><clipPath id="a"><path fill="#fff" d="M.667 0h72v72h-72z"/></clipPath></defs></svg>