<svg xmlns="http://www.w3.org/2000/svg" width="73" height="72" fill="none"><g clip-path="url(#a)"><path fill="#54A5E0" d="M36.333 72c19.883 0 36-16.118 36-36s-16.117-36-36-36c-19.882 0-36 16.118-36 36s16.118 36 36 36Z"/><path fill="#fff" d="M22.833 28.8h6.6v21.3h-6.6V28.8Zm3.3-10.6c2.1 0 3.8 1.7 3.8 3.8 0 2.1-1.7 3.8-3.8 3.8-2.1 0-3.8-1.7-3.8-3.8 0-2.1 1.7-3.8 3.8-3.8ZM33.633 28.8h6.4v2.9h.1c.9-1.7 3-3.4 6.3-3.4 6.7 0 7.9 4.4 7.9 10.2v11.7h-6.6V39.7c0-2.5 0-5.7-3.4-5.7s-4 2.7-4 5.5V50h-6.6V28.8h-.1Z"/></g><defs><clipPath id="a"><path fill="#fff" d="M.333 0h72v72h-72z"/></clipPath></defs></svg>