<svg xmlns="http://www.w3.org/2000/svg" width="72" height="72" fill="none"><g clip-path="url(#a)"><path fill="#E76832" d="M36 72c19.882 0 36-16.118 36-36S55.882 0 36 0 0 16.118 0 36s16.118 36 36 36Z"/><path fill="#fff" fill-rule="evenodd" d="M39.3 36.7c0 1.5 1.3 2.8 2.8 2.8 1.5 0 2.8-1.2 2.8-2.8 0-1.6-1.3-2.8-2.8-2.8-1.5 0-2.8 1.2-2.8 2.8ZM36 47c3.1 0 5.4-.7 6.8-2.1.4-.4.4-1.1 0-1.6-.4-.4-1.2-.4-1.6 0-1 1-2.7 1.5-5.2 1.5s-4.2-.5-5.2-1.5c-.4-.4-1.2-.4-1.6 0-.4.4-.4 1.1 0 1.6 1.4 1.4 3.6 2.1 6.8 2.1Zm-6.1-13.1c-1.5 0-2.8 1.3-2.8 2.8 0 1.5 1.3 2.8 2.8 2.8 1.5 0 2.8-1.2 2.8-2.8 0-1.6-1.3-2.8-2.8-2.8Zm21.8-13c0-1-.9-1.9-1.9-1.9-1 0-1.9.8-1.9 1.9 0 1 .9 1.9 1.9 1.9 1.1 0 1.9-.9 1.9-1.9Zm0 7.8c2.7 0 5 2.2 5 4.9 0 1.7-.9 3.3-2.3 4.2 0 .4.1.7.1 1.1 0 3.4-2 6.6-5.6 8.9-3.5 2.2-8.1 3.5-12.9 3.5-4.8 0-9.5-1.3-13-3.5-3.6-2.3-5.6-5.5-5.6-8.9 0-.4 0-.8.1-1.2-1.3-.9-2.2-2.4-2.2-4.1 0-2.7 2.2-4.9 5-4.9 1.2 0 2.2.4 3.1 1 3.3-2 7.4-3.1 11.9-3.3L38 18c.2-.6.8-.9 1.3-.8l6.9 1.6c.7-1.3 2.1-2.2 3.7-2.2 2.3 0 4.2 1.9 4.2 4.1 0 2.3-1.9 4.1-4.2 4.1-2.2 0-4-1.7-4.2-3.8l-5.9-1.4-2.2 6.7c4.1.2 8 1.4 11 3.3.9-.5 1.9-.9 3.1-.9Z" clip-rule="evenodd"/></g><defs><clipPath id="a"><path fill="#fff" d="M0 0h72v72H0z"/></clipPath></defs></svg>