<svg xmlns="http://www.w3.org/2000/svg" width="72" height="72" fill="none"><g clip-path="url(#a)"><path fill="#4F9DC9" d="M36 72c19.882 0 36-16.118 36-36S55.882 0 36 0 0 16.118 0 36s16.118 36 36 36Z"/><path fill="#fff" fill-rule="evenodd" d="m24.2 39.2-8.2-3c-.8-.4-.8-1.5 0-1.9l33.6-12.8c.7-.3 1.5.3 1.3 1.1l-6.1 29c-.1.7-.9 1-1.5.6l-8.2-6c-.5-.4-1.2-.4-1.7 0l-4.6 3.7c-.5.4-1.3.2-1.5-.5l-3.1-10.2Zm18.7-11.4-16 9.8c-.7.4-.9 1.1-.8 2l1.7 6.1c.1.4.7.3.8-.1l.5-3.4c.1-.7.4-1.3.9-1.7l13.2-12.3c.3-.2 0-.6-.3-.4Z" clip-rule="evenodd"/></g><defs><clipPath id="a"><path fill="#fff" d="M0 0h72v72H0z"/></clipPath></defs></svg>