<svg xmlns="http://www.w3.org/2000/svg" width="73" height="72" fill="none"><g clip-path="url(#a)"><path fill="#4EB5EF" d="M36.667 72c19.882 0 36-16.118 36-36s-16.118-36-36-36c-19.883 0-36 16.118-36 36s16.117 36 36 36Z"/><path fill="#fff" d="M56.467 25c-1.2.5-2.5.9-3.8 1.1.6-.1 1.5-1.2 1.9-1.7.5-.7 1-1.5 1.3-2.3 0-.1.1-.1 0-.2h-.2c-1.4.8-2.9 1.3-4.5 1.7-.1 0-.2 0-.3-.1l-.4-.4c-.7-.6-1.4-1-2.2-1.3-1.1-.4-2.2-.6-3.3-.5-1.1.1-2.2.4-3.2.9s-1.9 1.2-2.6 2.1c-.7.9-1.3 1.9-1.5 3.1-.3 1.1-.2 2.1-.1 3.2 0 .2 0 .2-.2.2-6.2-.9-11.3-3.1-15.4-7.9-.2-.2-.3-.2-.4 0-1.8 2.7-.9 7.1 1.3 9.2.3.3.6.6.9.8-.1 0-1.6-.1-3-.8-.2-.1-.3 0-.3.2v.9c.3 2.8 2.3 5.3 4.9 6.3.3.1.7.2 1 .3-.6.1-1.2.2-2.9.1-.2 0-.3.1-.2.3 1.3 3.5 4.1 4.5 6.1 5.1.3 0 .6 0 .8.1-.7 1.1-3.1 1.8-4.2 2.2-2 .7-4.2 1-6.4.8-.3-.1-.4 0-.5 0-.1.1 0 .1.1.2.4.3.9.5 1.3.8 1.4.7 2.8 1.3 4.3 1.7 7.6 2.1 16.3.6 22-5.1 4.5-4.5 6.1-10.7 6.1-16.8 0-.2.3-.4.5-.5 1.2-.9 2.1-1.9 3-3.1.3-.3.3-.5.3-.6 0-.1 0-.1-.2 0Z"/></g><defs><clipPath id="a"><path fill="#fff" d="M.667 0h72v72h-72z"/></clipPath></defs></svg>