<svg xmlns="http://www.w3.org/2000/svg" width="73" height="72" fill="none"><g clip-path="url(#a)"><path fill="#D64C39" d="M72.667 36c-.8 48-71.2 48-72 0 .8-48 71.2-48 72 0Z"/><path fill="#fff" d="M52.867 27.4c-.4-1.5-1.5-2.6-3-3-2.6-.7-13.3-.7-13.3-.7s-10.6 0-13.3.7c-1.5.4-2.6 1.6-3 3-.7 2.7-.7 8.3-.7 8.3s0 5.6.7 8.3c.4 1.5 1.5 2.6 3 3 2.6.7 13.3.7 13.3.7s10.6 0 13.3-.7c1.5-.4 2.6-1.6 3-3 .7-2.7.7-8.3.7-8.3s0-5.6-.7-8.3Zm-19.7 13.5V30.6l8.8 5.2-8.8 5.1Z"/></g><defs><clipPath id="a"><path fill="#fff" d="M.667 0h72v72h-72z"/></clipPath></defs></svg>