<svg width="27" height="25" viewBox="0 0 27 25" fill="none" xmlns="http://www.w3.org/2000/svg">
<path d="M26.7578 0C25.8789 2.40885 25.0488 5.06185 24.2676 7.95898C23.4863 10.8561 22.8027 13.737 22.2168 16.6016C21.6309 19.4661 21.2077 22.0866 20.9473 24.4629H16.1621L15.5273 23.4863C15.9831 20.9147 16.6178 18.2617 17.4316 15.5273C18.2454 12.793 19.1569 10.1074 20.166 7.4707C21.1751 4.80143 22.2168 2.3112 23.291 0H26.7578ZM11.2305 0C10.3516 2.40885 9.52148 5.06185 8.74023 7.95898C7.95898 10.8561 7.27539 13.737 6.68945 16.6016C6.10352 19.4661 5.66406 22.0866 5.37109 24.4629H0.585938L0 23.4863C0.520833 20.9147 1.17188 18.2617 1.95312 15.5273C2.73438 12.793 3.62956 10.1074 4.63867 7.4707C5.64779 4.80143 6.68945 2.3112 7.76367 0H11.2305Z" fill="#48A6EB"/>
</svg>
