<svg width="36" height="36" viewBox="0 0 36 36" fill="none" xmlns="http://www.w3.org/2000/svg">
<path d="M9 0C7.7625 0 6.75 1.0125 6.75 2.25V33.75C6.75 34.9875 7.7625 36 9 36H31.5C32.7375 36 33.75 34.9875 33.75 33.75V9L24.75 0H9Z" fill="#E2E5E7"/>
<path d="M27 9H33.75L24.75 0V6.75C24.75 7.9875 25.7625 9 27 9Z" fill="#B0B7BD"/>
<path d="M33.75 15.75L27 9H33.75V15.75Z" fill="#CAD1D8"/>
<path d="M29.25 29.25C29.25 29.8687 28.7437 30.375 28.125 30.375H3.375C2.75625 30.375 2.25 29.8687 2.25 29.25V18C2.25 17.3812 2.75625 16.875 3.375 16.875H28.125C28.7437 16.875 29.25 17.3812 29.25 18V29.25Z" fill="#F15642"/>
<path d="M7.15393 21.3154C7.15393 21.0184 7.38793 20.6944 7.76481 20.6944H9.84268C11.0127 20.6944 12.0657 21.4773 12.0657 22.9781C12.0657 24.4001 11.0127 25.1921 9.84268 25.1921H8.34081V26.3801C8.34081 26.7761 8.08881 27 7.76481 27C7.46781 27 7.15393 26.7761 7.15393 26.3801V21.3154ZM8.34081 21.8272V24.0682H9.84268C10.4457 24.0682 10.9227 23.5361 10.9227 22.9781C10.9227 22.3492 10.4457 21.8272 9.84268 21.8272H8.34081Z" fill="white"/>
<path d="M13.8275 27C13.5305 27 13.2065 26.838 13.2065 26.4431V21.3333C13.2065 21.0105 13.5305 20.7753 13.8275 20.7753H15.8874C19.9981 20.7753 19.9081 27 15.9684 27H13.8275ZM14.3945 21.8733V25.9031H15.8874C18.3162 25.9031 18.4242 21.8733 15.8874 21.8733H14.3945Z" fill="white"/>
<path d="M21.366 21.9453V23.3752H23.6599C23.9839 23.3752 24.3079 23.6992 24.3079 24.0131C24.3079 24.3101 23.9839 24.5531 23.6599 24.5531H21.366V26.4419C21.366 26.7569 21.1421 26.9988 20.8271 26.9988C20.4311 26.9988 20.1893 26.7569 20.1893 26.4419V21.3322C20.1893 21.0093 20.4323 20.7742 20.8271 20.7742H23.985C24.381 20.7742 24.615 21.0093 24.615 21.3322C24.615 21.6202 24.381 21.9442 23.985 21.9442H21.366V21.9453Z" fill="white"/>
<path d="M28.125 30.375H6.75V31.5H28.125C28.7437 31.5 29.25 30.9937 29.25 30.375V29.25C29.25 29.8688 28.7437 30.375 28.125 30.375Z" fill="#CAD1D8"/>
</svg>
