<svg width="20" height="21" viewBox="0 0 20 21" fill="none" xmlns="http://www.w3.org/2000/svg">
  <path fill-rule="evenodd" clip-rule="evenodd" d="M12.3 11.5583L17.075 16.3333L15.8333 17.575L11.0583 12.8C10.1667 13.4417 9.09167 13.8333 7.91667 13.8333C4.925 13.8333 2.5 11.4083 2.5 8.41667C2.5 5.425 4.925 3 7.91667 3C10.9083 3 13.3333 5.425 13.3333 8.41667C13.3333 9.59167 12.9417 10.6667 12.3 11.5583ZM7.91667 4.66667C5.84167 4.66667 4.16667 6.34167 4.16667 8.41667C4.16667 10.4917 5.84167 12.1667 7.91667 12.1667C9.99167 12.1667 11.6667 10.4917 11.6667 8.41667C11.6667 6.34167 9.99167 4.66667 7.91667 4.66667Z" fill="black" fill-opacity="0.35"/>
</svg>
