<svg width="80" height="80" viewBox="0 0 80 80" fill="none" xmlns="http://www.w3.org/2000/svg">
<path d="M13.3335 27.5002L16.6668 30.8335L20.0002 27.5002L16.6668 24.1668L13.3335 27.5002Z" fill="#E6E8EA"/>
<path d="M23.3335 73.3335H25.8335V70.8335H23.3335V73.3335Z" fill="#E6E8EA"/>
<path d="M52.9165 46.6665L54.1665 45.4165L52.9165 44.1665L51.6665 45.4165L52.9165 46.6665Z" fill="#E6E8EA"/>
<rect x="6.6665" y="13.3335" width="50" height="3.33333" fill="#E6E8EA"/>
<rect x="6.6665" y="38.3335" width="50" height="3.33333" fill="#E6E8EA"/>
<rect x="6.6665" y="63.3335" width="66.6667" height="3.33333" fill="#E6E8EA"/>
<path d="M31.6665 38.3332H48.3332V54.1665L31.6665 54.1665V38.3332Z" fill="url(#paint0_linear_322_44935)"/>
<rect x="31.6665" y="54.1665" width="16.6667" height="12.5" fill="url(#paint1_linear_322_44935)"/>
<rect x="6.6665" y="58.3335" width="16.6667" height="8.33333" fill="url(#paint2_linear_322_44935)"/>
<rect width="16.6667" height="8.33334" transform="matrix(1 0 0 -1 6.6665 58.3335)" fill="url(#paint3_linear_322_44935)"/>
<path d="M56.6665 13.3335H73.3332V35.8335L56.6665 35.8335V13.3335Z" fill="url(#paint4_linear_322_44935)"/>
<rect x="56.6665" y="35.8335" width="16.6667" height="30.8333" fill="url(#paint5_linear_322_44935)"/>
<defs>
<linearGradient id="paint0_linear_322_44935" x1="39.9998" y1="54.1665" x2="39.9998" y2="38.3332" gradientUnits="userSpaceOnUse">
<stop stop-color="#F0B90B"/>
<stop offset="1" stop-color="#F8D33A"/>
</linearGradient>
<linearGradient id="paint1_linear_322_44935" x1="39.9998" y1="54.1665" x2="39.9998" y2="66.6665" gradientUnits="userSpaceOnUse">
<stop stop-color="#929AA5"/>
<stop offset="1" stop-color="#76808F"/>
</linearGradient>
<linearGradient id="paint2_linear_322_44935" x1="14.9998" y1="58.3335" x2="14.9998" y2="66.6668" gradientUnits="userSpaceOnUse">
<stop stop-color="#929AA5"/>
<stop offset="1" stop-color="#76808F"/>
</linearGradient>
<linearGradient id="paint3_linear_322_44935" x1="8.33333" y1="0" x2="8.33333" y2="8.33334" gradientUnits="userSpaceOnUse">
<stop stop-color="#F0B90B"/>
<stop offset="1" stop-color="#F8D33A"/>
</linearGradient>
<linearGradient id="paint4_linear_322_44935" x1="64.9998" y1="35.8335" x2="64.9998" y2="13.3335" gradientUnits="userSpaceOnUse">
<stop stop-color="#F0B90B"/>
<stop offset="1" stop-color="#F8D33A"/>
</linearGradient>
<linearGradient id="paint5_linear_322_44935" x1="64.9998" y1="35.8335" x2="64.9998" y2="66.6668" gradientUnits="userSpaceOnUse">
<stop stop-color="#929AA5"/>
<stop offset="1" stop-color="#76808F"/>
</linearGradient>
</defs>
</svg>
