<svg width="73" height="72" viewBox="0 0 73 72" fill="none" xmlns="http://www.w3.org/2000/svg">
<path d="M36.2125 41.9981L34.0122 45.3921C33.7896 45.7355 33.7987 46.1799 34.0351 46.5139L35.2997 48.3004C35.5263 48.6205 35.5448 49.0435 35.3471 49.3822L33.6436 52.3009" stroke="#48A6EB" stroke-width="1.3"/>
<path d="M37.4974 41.9981L39.6978 45.3921C39.9204 45.7355 39.9113 46.1799 39.6749 46.5139L38.4103 48.3004C38.1837 48.6205 38.1652 49.0435 38.3629 49.3822L40.0664 52.3009" stroke="#48A6EB" stroke-width="1.3"/>
<path d="M36.6632 34.4809C35.8104 34.5633 34.9564 34.3376 34.2557 33.8446L34.1179 33.7598C28.2001 32.3811 25.0609 28.9767 25.0927 23.9286C25.0927 23.218 25.0927 22.1363 25.0927 21.0545C25.0927 19.9728 25.0927 18.9334 25.0927 18.1911C25.0864 18.1003 25.0996 18.0093 25.1315 17.9241C25.1634 17.8389 25.2132 17.7615 25.2775 17.6972C25.3419 17.6328 25.4192 17.583 25.5044 17.5512C25.5896 17.5193 25.6807 17.506 25.7714 17.5123C25.9403 17.5177 26.1006 17.588 26.2191 17.7084C26.3375 17.8289 26.4051 17.9903 26.4077 18.1592C26.4077 18.8698 26.4077 19.9515 26.4077 21.0333C26.4077 22.115 26.4077 23.1544 26.4077 23.8968C26.4077 28.3404 29.1015 31.2357 34.489 32.4871C34.686 32.5419 34.8699 32.6357 35.0299 32.7629C35.5081 33.1092 36.0969 33.2677 36.6844 33.2083C37.2846 33.2354 37.8803 33.092 38.4024 32.7947C38.6011 32.6818 38.8156 32.5996 39.0388 32.5507C44.3415 31.5751 47.364 28.4146 47.364 23.8968V19.6546C47.2311 18.3778 46.9609 17.1191 46.558 15.9003C46.5234 15.7449 46.5483 15.5821 46.6278 15.4442C46.7073 15.3062 46.8356 15.2031 46.9875 15.1552C47.1393 15.1072 47.3036 15.1179 47.4479 15.1852C47.5922 15.2525 47.7061 15.3714 47.767 15.5185C48.2067 16.8614 48.4983 18.2483 48.6366 19.6546V23.8968C48.6366 29.0086 45.1369 32.7204 39.2721 33.8022C39.1732 33.8275 39.0797 33.8706 38.9963 33.9294C38.2827 34.3205 37.4764 34.5111 36.6632 34.4809Z" fill="black"/>
<path d="M25.7714 23.9604C25.6479 23.9591 25.5273 23.9224 25.4239 23.8548C25.3206 23.7871 25.2387 23.6913 25.1881 23.5786C24.8487 22.7938 24.4882 22.0726 24.1276 21.3727C23.067 19.1243 22.0065 16.9926 22.1232 14.3095C22.4413 7.4796 25.7714 4.17072 33.5876 2.87687C38.7418 2.01783 40.8947 3.9374 42.4537 5.39034C42.9057 5.91334 43.4927 6.3022 44.1506 6.51451C45.3219 6.59698 46.4604 6.93848 47.4838 7.51436C48.5072 8.09024 49.3899 8.88614 50.0684 9.84461C51.9137 12.7505 51.0335 16.5896 50.5774 18.1062C50.1193 19.6864 49.4674 21.2039 48.6366 22.6241C48.5924 22.6941 48.5347 22.7547 48.467 22.8023C48.3992 22.8498 48.3226 22.8835 48.2417 22.9012C48.1608 22.919 48.0772 22.9205 47.9957 22.9057C47.9142 22.8909 47.8365 22.8601 47.767 22.815C47.6957 22.7706 47.634 22.7126 47.5852 22.6443C47.5365 22.5759 47.5018 22.4986 47.483 22.4168C47.4643 22.335 47.462 22.2503 47.4761 22.1675C47.4903 22.0848 47.5206 22.0057 47.5655 21.9348C48.337 20.6007 48.9391 19.1757 49.3578 17.6926C49.7714 16.3457 50.5562 12.9414 48.9866 10.4915C48.4092 9.68926 47.6604 9.02557 46.7945 8.54864C45.9287 8.0717 44.9676 7.79347 43.9809 7.73413C43.0596 7.50898 42.23 7.00534 41.6053 6.2918C40.1523 5.01915 38.36 3.37532 33.7997 4.1283C26.5986 5.32671 23.6503 8.19017 23.3746 14.3307C23.2473 16.6851 24.1806 18.5728 25.2518 20.7682C25.6017 21.4787 25.9623 22.2317 26.3123 23.0271C26.377 23.1821 26.3788 23.3562 26.3175 23.5126C26.2561 23.6689 26.1364 23.7953 25.9835 23.8649C25.9184 23.9079 25.8468 23.9401 25.7714 23.9604Z" fill="black"/>
<path d="M25.7714 18.8274C25.6511 18.832 25.5323 18.7986 25.432 18.7319C25.3612 18.6886 25.2996 18.6315 25.251 18.5641C25.2024 18.4967 25.1677 18.4203 25.1489 18.3394C25.1302 18.2584 25.1277 18.1745 25.1417 18.0926C25.1558 18.0107 25.1859 17.9324 25.2305 17.8623C27.0759 14.8822 29.7166 14.8504 32.5271 14.8291C35.3375 14.8079 38.5191 14.7655 41.5098 11.5097C41.667 11.3343 41.8629 11.1979 42.082 11.1114C42.301 11.0249 42.5372 10.9906 42.7719 11.0112C44.7126 11.1491 47.1943 14.7125 47.6715 15.3912C47.7535 15.5317 47.7785 15.6983 47.7415 15.8567C47.7045 16.0151 47.6082 16.1533 47.4724 16.2429C47.3366 16.3325 47.1717 16.3667 47.0115 16.3385C46.8513 16.3103 46.708 16.2218 46.611 16.0912C45.5505 14.5428 43.6733 12.3263 42.7188 12.252C42.6759 12.244 42.6316 12.2476 42.5906 12.2625C42.5495 12.2775 42.5132 12.3031 42.4855 12.3369C39.1236 15.9957 35.4966 16.0382 32.5801 16.07C29.9287 16.07 27.8289 16.07 26.3547 18.4986C26.2967 18.6014 26.2117 18.6864 26.1089 18.7443C26.0061 18.8023 25.8894 18.831 25.7714 18.8274Z" fill="black"/>
<path d="M36.939 29.1782C35.766 29.2013 34.6283 28.7765 33.7574 27.9904C33.6308 27.8779 33.5541 27.7197 33.5442 27.5507C33.5342 27.3816 33.5919 27.2156 33.7044 27.089C33.8169 26.9624 33.9751 26.8857 34.1441 26.8758C34.3132 26.8658 34.4793 26.9234 34.6058 27.036C35.2078 27.5138 35.9371 27.8038 36.7028 27.8698C37.4686 27.9358 38.2368 27.7749 38.9116 27.4071C38.9802 27.3382 39.0637 27.2858 39.1556 27.2541C39.2476 27.2224 39.3456 27.2122 39.4421 27.2243C39.5386 27.2364 39.631 27.2705 39.7123 27.3239C39.7936 27.3773 39.8616 27.4486 39.911 27.5324C39.9604 27.6161 39.99 27.7101 39.9974 27.8071C40.0048 27.9041 39.9899 28.0015 39.9539 28.0918C39.9178 28.1821 39.8615 28.263 39.7893 28.3281C39.7171 28.3933 39.6309 28.441 39.5373 28.4677C38.744 28.9173 37.8508 29.1616 36.939 29.1782Z" fill="black"/>
<path d="M32.4423 22.5181C33.1335 22.5181 33.6938 21.9578 33.6938 21.2666C33.6938 20.5755 33.1335 20.0152 32.4423 20.0152C31.7512 20.0152 31.1909 20.5755 31.1909 21.2666C31.1909 21.9578 31.7512 22.5181 32.4423 22.5181Z" fill="black"/>
<path d="M40.9054 22.5181C41.5966 22.5181 42.1569 21.9578 42.1569 21.2666C42.1569 20.5755 41.5966 20.0152 40.9054 20.0152C40.2143 20.0152 39.654 20.5755 39.654 21.2666C39.654 21.9578 40.2143 22.5181 40.9054 22.5181Z" fill="black"/>
<path d="M25.7714 26.0815C25.6201 26.0836 25.4732 26.0309 25.3578 25.933C22.8655 23.8119 21.7838 22.1363 22.0595 20.6303C22.157 20.2251 22.3533 19.8503 22.6308 19.5394C22.9084 19.2285 23.2587 18.9911 23.6503 18.8486C23.7297 18.822 23.8136 18.8113 23.8971 18.8172C23.9806 18.8231 24.0621 18.8454 24.137 18.8828C24.2118 18.9203 24.2786 18.9721 24.3334 19.0354C24.3882 19.0987 24.43 19.1721 24.4563 19.2516C24.5077 19.4106 24.4955 19.5833 24.4224 19.7336C24.3492 19.8838 24.2208 19.9999 24.0639 20.0576C23.8724 20.1249 23.7005 20.2386 23.5636 20.3885C23.4266 20.5384 23.3289 20.7198 23.2791 20.9166C23.1837 21.4575 23.4276 22.6983 26.1426 24.9573C26.2407 25.039 26.312 25.1484 26.3471 25.2712C26.3822 25.3939 26.3796 25.5244 26.3395 25.6457C26.2995 25.7669 26.2239 25.8733 26.1226 25.9511C26.0213 26.0288 25.8989 26.0742 25.7714 26.0815Z" fill="black"/>
<path d="M47.873 26.0815C47.7367 26.0885 47.6018 26.0516 47.4881 25.9761C47.3744 25.9006 47.288 25.7905 47.2416 25.6621C47.1952 25.5337 47.1914 25.3939 47.2306 25.2631C47.2698 25.1324 47.3501 25.0177 47.4594 24.9361C50.185 22.6665 50.4289 21.4257 50.3335 20.8848C50.2797 20.6911 50.1804 20.5131 50.0439 20.3655C49.9074 20.2179 49.7376 20.1051 49.5487 20.0364C49.3902 19.981 49.26 19.8652 49.1865 19.7142C49.113 19.5632 49.1021 19.3893 49.1563 19.2304C49.1814 19.1501 49.2225 19.0757 49.277 19.0116C49.3315 18.9476 49.3984 18.8952 49.4736 18.8576C49.5489 18.8199 49.6309 18.7979 49.7149 18.7927C49.7989 18.7875 49.883 18.7993 49.9623 18.8274C50.3702 18.9731 50.7337 19.2214 51.0179 19.5483C51.3021 19.8752 51.4974 20.2697 51.5849 20.6939C51.8501 22.1469 50.7683 23.8755 48.2761 25.9966C48.1561 26.0721 48.0132 26.1022 47.873 26.0815Z" fill="black"/>
<path d="M38.2167 63.449L27.8459 37.1567C27.4872 36.2475 26.1715 36.3398 25.9433 37.2901L23.8582 45.9727C23.7072 46.6016 24.1838 47.2062 24.8306 47.2062H27.709C28.4512 47.2062 28.9348 47.9864 28.6045 48.6512L26.9716 51.9381C26.7961 52.2913 26.8446 52.7146 27.0953 53.0189L36.5146 64.4518C37.239 65.331 38.6347 64.5087 38.2167 63.449Z" stroke="black" stroke-width="1.3"/>
<path d="M37.101 59.6688L45.6824 37.0065C46.0311 36.0855 47.3609 36.1701 47.5901 37.1278L49.6595 45.7729C49.81 46.4016 49.3334 47.0057 48.687 47.0057H45.8076C45.0654 47.0057 44.5818 47.7859 44.9121 48.4507L46.5202 51.6875C46.7081 52.0657 46.6381 52.5212 46.3454 52.8256L38.757 60.7161C38.0028 61.5003 36.7157 60.6863 37.101 59.6688Z" stroke="black" stroke-width="1.3"/>
<path d="M10.308 67.209C10.7609 59.3175 11.6461 45.1167 11.9983 44.0266C13.7617 38.5692 23.4649 36.6866 28.9294 35.3752C29.2835 35.2902 29.6554 35.4018 29.9028 35.669L36.2837 42.5592C36.6933 43.0015 37.3982 42.9835 37.7847 42.521L43.4805 35.7056C43.7214 35.4173 44.1032 35.2885 44.4699 35.3705C51.1037 36.8531 59.631 38.3906 62.0214 44.8978C62.4434 46.0467 63.1787 59.6472 63.5386 67.219C63.5656 67.7889 63.1105 68.2605 62.54 68.2605H11.3062C10.7317 68.2605 10.275 67.7825 10.308 67.209Z" stroke="black" stroke-width="1.3"/>
<line x1="0.65" y1="-0.65" x2="8.03951" y2="-0.65" transform="matrix(-0.0843167 0.996439 -0.999001 -0.0446896 18.3379 59.602)" stroke="black" stroke-width="1.3" stroke-linecap="round"/>
<line x1="0.65" y1="-0.65" x2="8.03951" y2="-0.65" transform="matrix(0.0843167 0.996439 0.999001 -0.0446896 55.9883 59.602)" stroke="black" stroke-width="1.3" stroke-linecap="round"/>
</svg>
