<svg xmlns="http://www.w3.org/2000/svg" width="73" height="72" fill="none">
  <g clip-path="url(#a)">
    <path fill="#000"
          d="M71.437 54.76H1.582A1.073 1.073 0 0 1 .5 53.69V4.072A1.072 1.072 0 0 1 1.572 3h69.855A1.072 1.072 0 0 1 72.5 4.072V53.69a1.073 1.073 0 0 1-1.063 1.073v-.001ZM1.68 53.593h69.66V4.18H1.68v49.412Z"/>
    <path fill="#000"
          d="M71.918 46.211H1.091v1.18H71.92v-1.18Zm-32.782 4.89h-5.263a.591.591 0 0 1 0-1.18h5.263a.59.59 0 0 1 0 1.18ZM31.137 54.5h-1.18v10.033h1.18V54.5Zm11.916 0h-1.18v10.033h1.18V54.5Zm7.89 15.1H22.067v-3.984a1.07 1.07 0 0 1 1.062-1.083h26.742a1.07 1.07 0 0 1 1.072 1.083V69.6Zm-27.695-1.18h26.565v-2.706H23.247v2.706Z"/>
    <path stroke="#000" stroke-miterlimit="10" stroke-width="1.2"
          d="M14.123 35.306h-4.066c-.148 0-.268.087-.268.195v5.976c0 .107.12.194.268.194h4.066c.148 0 .268-.087.268-.194v-5.976c0-.108-.12-.194-.268-.194ZM21.793 32.108h-4.065c-.148 0-.269.087-.269.194v9.175c0 .107.12.194.269.194h4.065c.149 0 .269-.087.269-.194v-9.175c0-.107-.12-.194-.269-.194ZM29.464 28.61h-4.066c-.148 0-.268.086-.268.193v12.73c0 .107.12.194.268.194h4.066c.148 0 .268-.087.268-.194v-12.73c0-.107-.12-.194-.268-.194ZM37.134 25.914H33.07c-.149 0-.269.087-.269.194v15.37c0 .106.12.193.269.193h4.065c.148 0 .269-.087.269-.194v-15.37c0-.106-.12-.193-.269-.193Z"/>
    <path fill="#fff" stroke="#000" stroke-width="1.2"
          d="M42.857 69.894c-1.243-4.907-3.33-12.095-4.203-15.135a.985.985 0 0 1 .953-1.258h29.939a1 1 0 0 1 .967 1.255L66.52 69.934a2 2 0 0 1-1.934 1.491H44.813c-.926 0-1.73-.633-1.956-1.53Z"/>
    <path stroke="#000" stroke-linecap="round" stroke-width="1.2"
          d="M54.745 60.211v6.126M59.228 60.305l-.733 6.082M64.04 60.351l-1.69 6.045M50.245 60.305l.733 6.081M45.291 60.425 47 66.452M41.074 53.148l3.609-9.403M67.5 53.148l-3.61-9.403"/>
    <path fill="#fff"
          d="M5.384 14.39a1.498 1.498 0 0 1-.305-.905 1.333 1.333 0 0 1 .202-.745c.142-.226.35-.405.595-.51a1.302 1.302 0 0 1 1.46.3 4.21 4.21 0 0 0 2.212 1.197v-3.001c-1.296-.126-2.309-.436-3.02-1.007-.826-.662-1.165-1.605-1.165-2.752 0-1.183.466-2.207 1.296-2.963.731-.664 1.724-1.103 2.89-1.285v-.383c0-.35.136-.685.381-.934a1.307 1.307 0 0 1 1.861 0c.246.249.382.585.382.934V2.7a6.044 6.044 0 0 1 3.519 1.729l.011.011.011.012c.231.263.353.604.344.953a1.335 1.335 0 0 1-.354.96 1.313 1.313 0 0 1-.96.417m-9.36 7.607 9.361-8.107M5.384 14.39l.003.004c.879 1.134 2.332 1.836 4.161 2.052M5.384 14.39l.398-.302m8.962-7.305.001-.5m0 .5h.002l-.002-.5m0 .5c-.338 0-.663-.125-.913-.352l-.005-.004a3.911 3.911 0 0 0-1.654-.917m2.572.773a.854.854 0 0 1-.577-.222 4.41 4.41 0 0 0-1.995-1.067v.516m0 0a3.873 3.873 0 0 0-.5-.1v3.28m.5-3.18v2.72m0 0a14.254 14.254 0 0 0-.465-.04l-.035.5m.5-.46v.46h-.5m.5-.46c1.363.14 2.422.465 3.161 1.067.852.695 1.195 1.685 1.195 2.903 0 1.255-.46 2.29-1.33 3.03-.76.648-1.798 1.04-3.026 1.19m-.5-7.73c3.113.214 4.356 1.269 4.356 3.51 0 2.242-1.625 3.569-4.356 3.767m0 0h.5v.453m-.5-.453v1.055a.83.83 0 0 1-.238.582.807.807 0 0 1-1.149 0 .83.83 0 0 1-.238-.582v-1.03m1.625-.025.037.498c.157-.011.312-.026.463-.045m0 0v.602c0 .349-.136.684-.382.933a1.307 1.307 0 0 1-1.86 0 1.33 1.33 0 0 1-.383-.933v-.576m.5-.455-.036.5a10 10 0 0 1-.464-.045m.5-.455c-1.958-.14-3.43-.824-4.266-1.903m4.266 1.903h-.5v.455m-3.766-2.358a.998.998 0 0 1-.203-.61.833.833 0 0 1 .126-.473.803.803 0 0 1 1.271-.13c.7.719 1.6 1.192 2.572 1.36l-3.766-.147Zm4.266-.295v-3.53c-2.974-.18-4.185-1.21-4.185-3.296 0-2.085 1.625-3.56 4.185-3.807v-.824a.83.83 0 0 1 .238-.583.807.807 0 0 1 1.15 0 .83.83 0 0 1 .237.583l-1.625 11.457Zm-.5-8.35v2.565c-.505-.075-.837-.195-1.046-.338-.235-.16-.348-.369-.351-.721 0-.427.16-.771.46-1.037.22-.195.53-.36.937-.47Zm4.193 6.774c0 .434-.167.776-.49 1.04-.25.204-.606.372-1.078.477v-2.762c.58.085.952.213 1.186.374.248.171.382.41.382.87Z"/>
    <path fill="#fff"
          d="M5.384 14.39a1.498 1.498 0 0 1-.305-.905 1.333 1.333 0 0 1 .202-.745c.142-.226.35-.405.595-.51a1.302 1.302 0 0 1 1.46.3 4.21 4.21 0 0 0 2.212 1.197v-3.001c-1.296-.126-2.309-.436-3.02-1.007-.826-.662-1.165-1.605-1.165-2.752 0-1.183.466-2.207 1.296-2.963.731-.664 1.724-1.103 2.89-1.285v-.383c0-.35.136-.685.381-.934a1.307 1.307 0 0 1 1.861 0c.246.249.382.585.382.934V2.7a6.044 6.044 0 0 1 3.519 1.729l.011.011.011.012c.231.263.353.604.344.953a1.335 1.335 0 0 1-.354.96 1.313 1.313 0 0 1-.96.417m-9.36 7.607 9.361-8.107M5.384 14.39l.003.004c.879 1.134 2.332 1.836 4.161 2.052M5.384 14.39l.398-.302m8.962-7.305.001-.5m0 .5h.002l-.002-.5m0 .5c-.338 0-.663-.125-.913-.352l-.005-.004a3.911 3.911 0 0 0-1.654-.917m2.572.773a.854.854 0 0 1-.577-.222 4.41 4.41 0 0 0-1.995-1.067v.516m0 0a3.873 3.873 0 0 0-.5-.1v3.28m.5-3.18v2.72m0 0a14.254 14.254 0 0 0-.465-.04l-.035.5m.5-.46v.46h-.5m.5-.46c1.363.14 2.422.465 3.161 1.067.852.695 1.195 1.685 1.195 2.903 0 1.255-.46 2.29-1.33 3.03-.76.648-1.798 1.04-3.026 1.19m-.5-7.73c3.113.214 4.356 1.269 4.356 3.51 0 2.242-1.625 3.569-4.356 3.767m0 0h.5v.453m-.5-.453v1.055a.83.83 0 0 1-.238.582.807.807 0 0 1-1.149 0 .83.83 0 0 1-.238-.582v-1.03m1.625-.025.037.498c.157-.011.312-.026.463-.045m0 0v.602c0 .349-.136.684-.382.933a1.307 1.307 0 0 1-1.86 0 1.33 1.33 0 0 1-.383-.933v-.576m.5-.455-.036.5a10 10 0 0 1-.464-.045m.5-.455c-1.958-.14-3.43-.824-4.266-1.903m4.266 1.903h-.5v.455m-3.766-2.358a.998.998 0 0 1-.203-.61.833.833 0 0 1 .126-.473.803.803 0 0 1 1.271-.13c.7.719 1.6 1.192 2.572 1.36l-3.766-.147Zm4.266-.295v-3.53c-2.974-.18-4.185-1.21-4.185-3.296 0-2.085 1.625-3.56 4.185-3.807v-.824a.83.83 0 0 1 .238-.583.807.807 0 0 1 1.15 0 .83.83 0 0 1 .237.583l-1.625 11.457Zm-.5-8.35v2.565c-.505-.075-.837-.195-1.046-.338-.235-.16-.348-.369-.351-.721 0-.427.16-.771.46-1.037.22-.195.53-.36.937-.47Zm4.193 6.774c0 .434-.167.776-.49 1.04-.25.204-.606.372-1.078.477v-2.762c.58.085.952.213 1.186.374.248.171.382.41.382.87Z"/>
    <path fill="#fff"
          d="M5.384 14.39a1.498 1.498 0 0 1-.305-.905 1.333 1.333 0 0 1 .202-.745c.142-.226.35-.405.595-.51a1.302 1.302 0 0 1 1.46.3 4.21 4.21 0 0 0 2.212 1.197v-3.001c-1.296-.126-2.309-.436-3.02-1.007-.826-.662-1.165-1.605-1.165-2.752 0-1.183.466-2.207 1.296-2.963.731-.664 1.724-1.103 2.89-1.285v-.383c0-.35.136-.685.381-.934a1.307 1.307 0 0 1 1.861 0c.246.249.382.585.382.934V2.7a6.044 6.044 0 0 1 3.519 1.729l.011.011.011.012c.231.263.353.604.344.953a1.335 1.335 0 0 1-.354.96 1.313 1.313 0 0 1-.96.417m-9.36 7.607 9.361-8.107M5.384 14.39l.003.004c.879 1.134 2.332 1.836 4.161 2.052M5.384 14.39l.398-.302m8.962-7.305.001-.5m0 .5h.002l-.002-.5m0 .5c-.338 0-.663-.125-.913-.352l-.005-.004a3.911 3.911 0 0 0-1.654-.917m2.572.773a.854.854 0 0 1-.577-.222 4.41 4.41 0 0 0-1.995-1.067v.516m0 0a3.873 3.873 0 0 0-.5-.1v3.28m.5-3.18v2.72m0 0a14.254 14.254 0 0 0-.465-.04l-.035.5m.5-.46v.46h-.5m.5-.46c1.363.14 2.422.465 3.161 1.067.852.695 1.195 1.685 1.195 2.903 0 1.255-.46 2.29-1.33 3.03-.76.648-1.798 1.04-3.026 1.19m-.5-7.73c3.113.214 4.356 1.269 4.356 3.51 0 2.242-1.625 3.569-4.356 3.767m0 0h.5v.453m-.5-.453v1.055a.83.83 0 0 1-.238.582.807.807 0 0 1-1.149 0 .83.83 0 0 1-.238-.582v-1.03m1.625-.025.037.498c.157-.011.312-.026.463-.045m0 0v.602c0 .349-.136.684-.382.933a1.307 1.307 0 0 1-1.86 0 1.33 1.33 0 0 1-.383-.933v-.576m.5-.455-.036.5a10 10 0 0 1-.464-.045m.5-.455c-1.958-.14-3.43-.824-4.266-1.903m4.266 1.903h-.5v.455m-3.766-2.358a.998.998 0 0 1-.203-.61.833.833 0 0 1 .126-.473.803.803 0 0 1 1.271-.13c.7.719 1.6 1.192 2.572 1.36l-3.766-.147Zm4.266-.295v-3.53c-2.974-.18-4.185-1.21-4.185-3.296 0-2.085 1.625-3.56 4.185-3.807v-.824a.83.83 0 0 1 .238-.583.807.807 0 0 1 1.15 0 .83.83 0 0 1 .237.583l-1.625 11.457Zm-.5-8.35v2.565c-.505-.075-.837-.195-1.046-.338-.235-.16-.348-.369-.351-.721 0-.427.16-.771.46-1.037.22-.195.53-.36.937-.47Zm4.193 6.774c0 .434-.167.776-.49 1.04-.25.204-.606.372-1.078.477v-2.762c.58.085.952.213 1.186.374.248.171.382.41.382.87Z"/>
    <path stroke="#48A6EB"
          d="M5.384 14.39a1.498 1.498 0 0 1-.305-.905 1.333 1.333 0 0 1 .202-.745c.142-.226.35-.405.595-.51a1.302 1.302 0 0 1 1.46.3 4.21 4.21 0 0 0 2.212 1.197v-3.001c-1.296-.126-2.309-.436-3.02-1.007-.826-.662-1.165-1.605-1.165-2.752 0-1.183.466-2.207 1.296-2.963.731-.664 1.724-1.103 2.89-1.285v-.383c0-.35.136-.685.381-.934a1.307 1.307 0 0 1 1.861 0c.246.249.382.585.382.934V2.7a6.044 6.044 0 0 1 3.519 1.729l.011.011.011.012c.231.263.353.604.344.953a1.335 1.335 0 0 1-.354.96 1.313 1.313 0 0 1-.96.417m-9.36 7.607 9.361-8.107M5.384 14.39l.003.004c.879 1.134 2.332 1.836 4.161 2.052M5.384 14.39l.398-.302m8.962-7.305.001-.5m0 .5h.002l-.002-.5m0 .5c-.338 0-.663-.125-.913-.352l-.005-.004a3.911 3.911 0 0 0-1.654-.917m2.572.773a.854.854 0 0 1-.577-.222 4.41 4.41 0 0 0-1.995-1.067v.516m0 0a3.873 3.873 0 0 0-.5-.1v3.28m.5-3.18v2.72m0 0a14.254 14.254 0 0 0-.465-.04l-.035.5m.5-.46v.46h-.5m.5-.46c1.363.14 2.422.465 3.161 1.067.852.695 1.195 1.685 1.195 2.903 0 1.255-.46 2.29-1.33 3.03-.76.648-1.798 1.04-3.026 1.19m-.5-7.73c3.113.214 4.356 1.269 4.356 3.51 0 2.242-1.625 3.569-4.356 3.767m0 0h.5v.453m-.5-.453v1.055a.83.83 0 0 1-.238.582.807.807 0 0 1-1.149 0 .83.83 0 0 1-.238-.582v-1.03m1.625-.025.037.498c.157-.011.312-.026.463-.045m0 0v.602c0 .349-.136.684-.382.933a1.307 1.307 0 0 1-1.86 0 1.33 1.33 0 0 1-.383-.933v-.576m.5-.455-.036.5a10 10 0 0 1-.464-.045m.5-.455c-1.958-.14-3.43-.824-4.266-1.903m4.266 1.903h-.5v.455m-3.766-2.358a.998.998 0 0 1-.203-.61.833.833 0 0 1 .126-.473.803.803 0 0 1 1.271-.13c.7.719 1.6 1.192 2.572 1.36l-3.766-.147Zm4.266-.295v-3.53c-2.974-.18-4.185-1.21-4.185-3.296 0-2.085 1.625-3.56 4.185-3.807v-.824a.83.83 0 0 1 .238-.583.807.807 0 0 1 1.15 0 .83.83 0 0 1 .237.583l-1.625 11.457Zm-.5-8.35v2.565c-.505-.075-.837-.195-1.046-.338-.235-.16-.348-.369-.351-.721 0-.427.16-.771.46-1.037.22-.195.53-.36.937-.47Zm4.193 6.774c0 .434-.167.776-.49 1.04-.25.204-.606.372-1.078.477v-2.762c.58.085.952.213 1.186.374.248.171.382.41.382.87Z"/>
    <path fill="#fff"
          d="M18.696 20.982a1.497 1.497 0 0 1-.305-.905 1.332 1.332 0 0 1 .202-.746c.142-.226.35-.404.595-.51a1.302 1.302 0 0 1 1.46.3 4.21 4.21 0 0 0 2.212 1.197v-3c-1.296-.126-2.309-.437-3.02-1.007-.826-.662-1.165-1.606-1.165-2.753 0-1.183.466-2.207 1.296-2.963.731-.664 1.724-1.103 2.89-1.285v-.383c0-.35.136-.685.381-.934a1.307 1.307 0 0 1 1.861 0c.246.249.382.585.382.934v.365a6.044 6.044 0 0 1 3.519 1.729l.011.011.011.012c.231.263.353.604.344.953a1.333 1.333 0 0 1-.354.96 1.313 1.313 0 0 1-.96.417m-9.36 7.608 9.361-8.108m-9.361 8.108.003.003c.878 1.134 2.332 1.836 4.161 2.052m-4.164-2.055.398-.303m8.962-7.305.001-.5m0 .5h.002l-.002-.5m0 .5c-.338 0-.663-.125-.913-.352l-.004-.004a3.911 3.911 0 0 0-1.655-.917m2.572.773a.854.854 0 0 1-.577-.222 4.41 4.41 0 0 0-1.995-1.067v.516m0 0a3.864 3.864 0 0 0-.5-.1v3.28m.5-3.18v2.72m0 0a13.955 13.955 0 0 0-.465-.039l-.035.499m.5-.46v.46h-.5m.5-.46c1.363.14 2.422.465 3.161 1.067.852.695 1.195 1.685 1.195 2.904 0 1.254-.46 2.29-1.33 3.03-.76.648-1.798 1.038-3.026 1.19m-.5-7.731c3.113.214 4.356 1.269 4.356 3.51 0 2.242-1.625 3.57-4.356 3.767m0 0h.5v.453m-.5-.453v1.055a.83.83 0 0 1-.238.582.807.807 0 0 1-1.149 0 .83.83 0 0 1-.238-.582v-1.03m1.625-.025.037.499c.157-.012.312-.027.463-.046m0 0v.602c0 .349-.136.685-.382.934a1.307 1.307 0 0 1-1.86 0 1.33 1.33 0 0 1-.383-.934v-.576m.5-.454-.035.498a10.019 10.019 0 0 1-.465-.044m.5-.454c-1.958-.14-3.43-.824-4.266-1.904m4.266 1.904h-.5v.454m-3.766-2.358a.998.998 0 0 1-.203-.61.833.833 0 0 1 .126-.473.803.803 0 0 1 1.271-.13c.7.72 1.6 1.192 2.572 1.36l-3.766-.147Zm4.266-.295v-3.53c-2.974-.18-4.185-1.21-4.185-3.296 0-2.085 1.625-3.56 4.185-3.807v-.824a.83.83 0 0 1 .238-.583.807.807 0 0 1 1.15 0 .83.83 0 0 1 .237.583L23.36 20.384Zm-.5-8.35V14.6c-.505-.076-.837-.196-1.046-.339-.235-.16-.348-.368-.351-.721 0-.426.16-.771.46-1.037.22-.195.53-.36.937-.469Zm4.193 6.774c0 .434-.167.776-.49 1.04-.25.204-.606.372-1.078.477v-2.762c.58.085.952.213 1.186.374.248.171.382.41.382.871Z"/>
    <path fill="#fff"
          d="M18.696 20.982a1.497 1.497 0 0 1-.305-.905 1.332 1.332 0 0 1 .202-.746c.142-.226.35-.404.595-.51a1.302 1.302 0 0 1 1.46.3 4.21 4.21 0 0 0 2.212 1.197v-3c-1.296-.126-2.309-.437-3.02-1.007-.826-.662-1.165-1.606-1.165-2.753 0-1.183.466-2.207 1.296-2.963.731-.664 1.724-1.103 2.89-1.285v-.383c0-.35.136-.685.381-.934a1.307 1.307 0 0 1 1.861 0c.246.249.382.585.382.934v.365a6.044 6.044 0 0 1 3.519 1.729l.011.011.011.012c.231.263.353.604.344.953a1.333 1.333 0 0 1-.354.96 1.313 1.313 0 0 1-.96.417m-9.36 7.608 9.361-8.108m-9.361 8.108.003.003c.878 1.134 2.332 1.836 4.161 2.052m-4.164-2.055.398-.303m8.962-7.305.001-.5m0 .5h.002l-.002-.5m0 .5c-.338 0-.663-.125-.913-.352l-.004-.004a3.911 3.911 0 0 0-1.655-.917m2.572.773a.854.854 0 0 1-.577-.222 4.41 4.41 0 0 0-1.995-1.067v.516m0 0a3.864 3.864 0 0 0-.5-.1v3.28m.5-3.18v2.72m0 0a13.955 13.955 0 0 0-.465-.039l-.035.499m.5-.46v.46h-.5m.5-.46c1.363.14 2.422.465 3.161 1.067.852.695 1.195 1.685 1.195 2.904 0 1.254-.46 2.29-1.33 3.03-.76.648-1.798 1.038-3.026 1.19m-.5-7.731c3.113.214 4.356 1.269 4.356 3.51 0 2.242-1.625 3.57-4.356 3.767m0 0h.5v.453m-.5-.453v1.055a.83.83 0 0 1-.238.582.807.807 0 0 1-1.149 0 .83.83 0 0 1-.238-.582v-1.03m1.625-.025.037.499c.157-.012.312-.027.463-.046m0 0v.602c0 .349-.136.685-.382.934a1.307 1.307 0 0 1-1.86 0 1.33 1.33 0 0 1-.383-.934v-.576m.5-.454-.035.498a10.019 10.019 0 0 1-.465-.044m.5-.454c-1.958-.14-3.43-.824-4.266-1.904m4.266 1.904h-.5v.454m-3.766-2.358a.998.998 0 0 1-.203-.61.833.833 0 0 1 .126-.473.803.803 0 0 1 1.271-.13c.7.72 1.6 1.192 2.572 1.36l-3.766-.147Zm4.266-.295v-3.53c-2.974-.18-4.185-1.21-4.185-3.296 0-2.085 1.625-3.56 4.185-3.807v-.824a.83.83 0 0 1 .238-.583.807.807 0 0 1 1.15 0 .83.83 0 0 1 .237.583L23.36 20.384Zm-.5-8.35V14.6c-.505-.076-.837-.196-1.046-.339-.235-.16-.348-.368-.351-.721 0-.426.16-.771.46-1.037.22-.195.53-.36.937-.469Zm4.193 6.774c0 .434-.167.776-.49 1.04-.25.204-.606.372-1.078.477v-2.762c.58.085.952.213 1.186.374.248.171.382.41.382.871Z"/>
    <path fill="#fff"
          d="M18.696 20.982a1.497 1.497 0 0 1-.305-.905 1.332 1.332 0 0 1 .202-.746c.142-.226.35-.404.595-.51a1.302 1.302 0 0 1 1.46.3 4.21 4.21 0 0 0 2.212 1.197v-3c-1.296-.126-2.309-.437-3.02-1.007-.826-.662-1.165-1.606-1.165-2.753 0-1.183.466-2.207 1.296-2.963.731-.664 1.724-1.103 2.89-1.285v-.383c0-.35.136-.685.381-.934a1.307 1.307 0 0 1 1.861 0c.246.249.382.585.382.934v.365a6.044 6.044 0 0 1 3.519 1.729l.011.011.011.012c.231.263.353.604.344.953a1.333 1.333 0 0 1-.354.96 1.313 1.313 0 0 1-.96.417m-9.36 7.608 9.361-8.108m-9.361 8.108.003.003c.878 1.134 2.332 1.836 4.161 2.052m-4.164-2.055.398-.303m8.962-7.305.001-.5m0 .5h.002l-.002-.5m0 .5c-.338 0-.663-.125-.913-.352l-.004-.004a3.911 3.911 0 0 0-1.655-.917m2.572.773a.854.854 0 0 1-.577-.222 4.41 4.41 0 0 0-1.995-1.067v.516m0 0a3.864 3.864 0 0 0-.5-.1v3.28m.5-3.18v2.72m0 0a13.955 13.955 0 0 0-.465-.039l-.035.499m.5-.46v.46h-.5m.5-.46c1.363.14 2.422.465 3.161 1.067.852.695 1.195 1.685 1.195 2.904 0 1.254-.46 2.29-1.33 3.03-.76.648-1.798 1.038-3.026 1.19m-.5-7.731c3.113.214 4.356 1.269 4.356 3.51 0 2.242-1.625 3.57-4.356 3.767m0 0h.5v.453m-.5-.453v1.055a.83.83 0 0 1-.238.582.807.807 0 0 1-1.149 0 .83.83 0 0 1-.238-.582v-1.03m1.625-.025.037.499c.157-.012.312-.027.463-.046m0 0v.602c0 .349-.136.685-.382.934a1.307 1.307 0 0 1-1.86 0 1.33 1.33 0 0 1-.383-.934v-.576m.5-.454-.035.498a10.019 10.019 0 0 1-.465-.044m.5-.454c-1.958-.14-3.43-.824-4.266-1.904m4.266 1.904h-.5v.454m-3.766-2.358a.998.998 0 0 1-.203-.61.833.833 0 0 1 .126-.473.803.803 0 0 1 1.271-.13c.7.72 1.6 1.192 2.572 1.36l-3.766-.147Zm4.266-.295v-3.53c-2.974-.18-4.185-1.21-4.185-3.296 0-2.085 1.625-3.56 4.185-3.807v-.824a.83.83 0 0 1 .238-.583.807.807 0 0 1 1.15 0 .83.83 0 0 1 .237.583L23.36 20.384Zm-.5-8.35V14.6c-.505-.076-.837-.196-1.046-.339-.235-.16-.348-.368-.351-.721 0-.426.16-.771.46-1.037.22-.195.53-.36.937-.469Zm4.193 6.774c0 .434-.167.776-.49 1.04-.25.204-.606.372-1.078.477v-2.762c.58.085.952.213 1.186.374.248.171.382.41.382.871Z"/>
    <path stroke="#48A6EB"
          d="M18.696 20.982a1.497 1.497 0 0 1-.305-.905 1.332 1.332 0 0 1 .202-.746c.142-.226.35-.404.595-.51a1.302 1.302 0 0 1 1.46.3 4.21 4.21 0 0 0 2.212 1.197v-3c-1.296-.126-2.309-.437-3.02-1.007-.826-.662-1.165-1.606-1.165-2.753 0-1.183.466-2.207 1.296-2.963.731-.664 1.724-1.103 2.89-1.285v-.383c0-.35.136-.685.381-.934a1.307 1.307 0 0 1 1.861 0c.246.249.382.585.382.934v.365a6.044 6.044 0 0 1 3.519 1.729l.011.011.011.012c.231.263.353.604.344.953a1.333 1.333 0 0 1-.354.96 1.313 1.313 0 0 1-.96.417m-9.36 7.608 9.361-8.108m-9.361 8.108.003.003c.878 1.134 2.332 1.836 4.161 2.052m-4.164-2.055.398-.303m8.962-7.305.001-.5m0 .5h.002l-.002-.5m0 .5c-.338 0-.663-.125-.913-.352l-.004-.004a3.911 3.911 0 0 0-1.655-.917m2.572.773a.854.854 0 0 1-.577-.222 4.41 4.41 0 0 0-1.995-1.067v.516m0 0a3.864 3.864 0 0 0-.5-.1v3.28m.5-3.18v2.72m0 0a13.955 13.955 0 0 0-.465-.039l-.035.499m.5-.46v.46h-.5m.5-.46c1.363.14 2.422.465 3.161 1.067.852.695 1.195 1.685 1.195 2.904 0 1.254-.46 2.29-1.33 3.03-.76.648-1.798 1.038-3.026 1.19m-.5-7.731c3.113.214 4.356 1.269 4.356 3.51 0 2.242-1.625 3.57-4.356 3.767m0 0h.5v.453m-.5-.453v1.055a.83.83 0 0 1-.238.582.807.807 0 0 1-1.149 0 .83.83 0 0 1-.238-.582v-1.03m1.625-.025.037.499c.157-.012.312-.027.463-.046m0 0v.602c0 .349-.136.685-.382.934a1.307 1.307 0 0 1-1.86 0 1.33 1.33 0 0 1-.383-.934v-.576m.5-.454-.035.498a10.019 10.019 0 0 1-.465-.044m.5-.454c-1.958-.14-3.43-.824-4.266-1.904m4.266 1.904h-.5v.454m-3.766-2.358a.998.998 0 0 1-.203-.61.833.833 0 0 1 .126-.473.803.803 0 0 1 1.271-.13c.7.72 1.6 1.192 2.572 1.36l-3.766-.147Zm4.266-.295v-3.53c-2.974-.18-4.185-1.21-4.185-3.296 0-2.085 1.625-3.56 4.185-3.807v-.824a.83.83 0 0 1 .238-.583.807.807 0 0 1 1.15 0 .83.83 0 0 1 .237.583L23.36 20.384Zm-.5-8.35V14.6c-.505-.076-.837-.196-1.046-.339-.235-.16-.348-.368-.351-.721 0-.426.16-.771.46-1.037.22-.195.53-.36.937-.469Zm4.193 6.774c0 .434-.167.776-.49 1.04-.25.204-.606.372-1.078.477v-2.762c.58.085.952.213 1.186.374.248.171.382.41.382.871Z"/>
    <path fill="#48A6EB" fill-rule="evenodd"
          d="M58.157 28.665v2.731h-1.211v-2.731h-.605v-.942h.605v-.565c0-.768.342-1.224 1.312-1.224h.808v.941h-.505c-.378 0-.403.132-.403.377l-.001.471h.915l-.107.942h-.808Z"
          clip-rule="evenodd"/>
    <rect width="14.553" height="10.953" x="50.43" y="8.603" stroke="#000" rx=".5"/>
    <rect width="14.403" height="10.837" x="50.58" y="23.191" stroke="#000" rx=".5"/>
    <path fill="#48A6EB" d="m60.048 14.058-3.513 1.915v-3.83l3.513 1.915Z"/>
  </g>
  <defs>
    <clipPath id="a">
      <path fill="#fff" d="M.5 0h72v72H.5z"/>
    </clipPath>
  </defs>
</svg>
