<svg width="334" height="23" viewBox="0 0 334 23" fill="none" xmlns="http://www.w3.org/2000/svg">
<path d="M52.472 0.45866C53.7972 0.0639243 55.2633 0.0639242 56.7577 0.317683C58.3648 0.571442 59.831 0.994372 61.1562 1.92482C61.1562 3.13722 61.1562 4.32143 61.1562 5.67481C60.3667 4.99812 59.408 4.46241 58.4776 4.06767C57.1524 3.53196 55.799 3.2782 54.4738 3.39098C53.7972 3.39098 53.1487 3.53196 52.6129 3.92669C52.2182 4.18045 51.9363 4.46241 51.6825 4.85714C51.4287 5.39286 51.4287 5.92857 51.4287 6.46428C51.4287 6.85902 51.6825 7.25375 52.1054 7.67668C52.6411 8.07142 53.1768 8.35337 53.8535 8.60713C55.0659 9.00187 56.3911 9.53759 57.6035 9.93232C58.675 10.3271 59.7464 10.8628 60.5359 11.6804C61.3253 12.3571 61.861 13.4285 62.143 14.4718C62.3968 15.5432 62.3968 16.7556 62.143 17.7988C61.8892 18.7293 61.3535 19.6597 60.5359 20.3364C59.7464 21.0131 58.675 21.5488 57.7445 21.8026C56.2783 22.1973 54.8122 22.1973 53.346 22.0563C51.4851 21.8026 49.737 21.3797 48.1299 20.3082C48.1299 19.0958 48.1299 17.7706 48.1299 16.5582C49.9908 18.0244 52.2746 18.9549 54.5302 18.9549C55.4607 18.9549 56.5321 18.8139 57.4626 18.4191C57.9983 18.1654 58.393 17.7424 58.675 17.2067C58.9569 16.671 58.9287 15.9943 58.675 15.3458C58.534 14.8101 57.9983 14.2744 57.4626 14.0207C56.5321 13.4849 55.4607 13.2312 54.5302 12.8082C53.3178 12.4135 51.9926 12.0188 50.9212 11.3421C50.1317 10.8064 49.3141 10.2707 48.7784 9.34022C48.1017 8.26879 47.8479 6.80262 47.9889 5.47744C48.1299 4.26504 48.6656 3.08083 49.596 2.26316C50.3291 1.27633 51.4005 0.740614 52.472 0.45866Z" fill="#185F7D"/>
<path d="M135.79 1.3891C137.256 0.458647 139.004 0.176697 140.583 0.176697C142.726 0.176697 144.868 0.712409 146.588 1.92481C146.588 3.13721 146.588 4.32142 146.588 5.6748C145.799 5.13909 144.981 4.60337 144.192 4.20864C142.726 3.53195 140.977 3.27819 139.399 3.53195C138.468 3.67293 137.538 4.06766 137.115 4.85713C136.72 5.78758 136.861 6.99999 137.509 7.64848C138.186 8.18419 138.835 8.43795 139.652 8.7199C140.865 9.11464 142.049 9.65036 143.261 10.0451C144.333 10.4398 145.404 11.1165 146.194 11.906C146.983 12.6955 147.406 13.6541 147.519 14.6973C147.66 15.9097 147.66 17.0939 147.124 18.1654C146.729 19.0958 146.053 19.9135 145.263 20.4492C144.333 21.1259 143.12 21.5206 141.936 21.7744C140.329 22.0281 138.609 21.9154 137.002 21.6334C135.677 21.3797 134.323 20.8439 133.252 20.0263C133.252 18.8139 133.252 17.4887 133.252 16.2763C134.718 17.4887 136.325 18.2781 138.186 18.5601C138.976 18.7011 139.793 18.7011 140.583 18.7011C141.372 18.7011 142.19 18.4473 142.867 18.0244C143.402 17.6297 143.797 17.0939 143.938 16.5582C144.079 15.8815 143.938 14.9511 143.402 14.4154C143.008 13.8797 142.331 13.6259 141.795 13.344C140.865 12.9492 139.793 12.5545 138.722 12.2725C137.791 11.8778 136.72 11.5958 135.931 11.0601C135.141 10.5244 134.323 9.9887 133.929 9.05825C133.393 8.26878 133.139 7.31014 133.139 6.37969C133.139 5.59022 133.139 4.63157 133.534 3.8421C134.041 2.85526 134.831 2.06579 135.79 1.3891Z" fill="#185F7D"/>
<path d="M158.6 0.740611C159.53 0.345875 160.601 0.204895 161.673 0.204895C163.816 0.204895 166.071 0.740607 167.96 1.81203C168.101 1.81203 168.101 1.95301 168.101 1.95301C168.101 3.16541 168.101 4.34962 168.101 5.56202C167.312 4.88533 166.353 4.34962 165.31 3.95489C164.098 3.41917 162.772 3.2782 161.306 3.2782C160.63 3.2782 159.981 3.41917 159.304 3.81391C158.91 4.06767 158.515 4.4906 158.374 4.88534C157.979 5.81578 158.233 6.88721 159.051 7.5639C159.84 8.24059 160.912 8.49435 161.983 8.88908C163.195 9.28382 164.38 9.67856 165.451 10.2143C166.522 10.75 167.453 11.4267 168.13 12.3571C168.806 13.4285 169.201 14.641 169.201 15.8252C169.201 16.8966 168.947 18.109 168.271 18.8985C167.594 19.8289 166.663 20.5056 165.733 21.0413C164.662 21.577 163.449 21.718 162.265 21.8308C160.94 21.8308 159.586 21.8308 158.261 21.436C157.049 21.1823 155.865 20.6466 154.934 19.9699C154.934 18.7575 154.934 17.4323 154.934 16.2199C156.795 17.6861 159.079 18.6165 161.475 18.6165C162.547 18.6165 163.618 18.4755 164.408 18.0808C164.944 17.827 165.338 17.4041 165.479 16.8684C165.733 16.1917 165.733 15.5432 165.479 15.0075C165.225 14.4718 164.803 13.9361 164.267 13.6823C163.336 13.1466 162.265 12.7519 161.194 12.4699C159.981 12.0752 158.797 11.6804 157.585 11.0037C156.654 10.468 155.836 9.79134 155.301 8.86089C154.765 7.93044 154.511 6.71804 154.624 5.64661C154.624 4.57519 155.019 3.50376 155.554 2.71429C156.485 1.81204 157.556 1.13535 158.6 0.740611Z" fill="#185F7D"/>
<path d="M85.038 0.204895C89.8312 4.74436 94.6526 9.4248 99.4458 13.9643C99.4458 9.4248 99.4458 5.02631 99.4458 0.486849C100.658 0.486849 101.73 0.486849 102.914 0.486849C102.914 7.5639 102.914 14.7819 102.914 21.859C99.6996 18.6447 96.3725 15.5714 93.1582 12.3853C91.5511 10.9192 90.0849 9.31202 88.4778 7.84585C88.4778 12.3853 88.4778 16.9248 88.4778 21.4642C87.2654 21.4642 86.194 21.4642 85.0098 21.4642C85.038 14.4718 85.038 7.39473 85.038 0.204895Z" fill="#185F7D"/>
<path d="M0 0.599609C1.8609 0.599609 3.74999 0.599609 5.46991 0.599609C6.79509 0.599609 8.0075 0.599609 9.33268 0.740586C10.6579 0.881564 11.8703 1.41728 12.8007 2.20675C13.5902 2.88344 14.1259 3.81389 14.2669 4.74433C14.5206 5.81576 14.5206 7.02816 14.1259 8.07139C13.7312 9.2838 12.9135 10.2142 11.7293 10.75C11.9831 10.8909 12.265 10.8909 12.406 11.0037C13.4774 11.5394 14.2669 12.4699 14.6898 13.5413C15.0845 14.3308 15.0845 15.2894 15.0845 16.2199C14.9436 17.4323 14.6898 18.5037 13.8721 19.4341C13.0827 20.5056 11.8703 21.0413 10.5451 21.436C9.61464 21.577 8.40223 21.6898 7.33081 21.577C4.9342 21.577 2.39661 21.577 0 21.577C0 14.6127 0 7.53568 0 0.599609ZM3.46804 3.67291C3.46804 5.5338 3.46804 7.53568 3.46804 9.42477C4.9342 9.42477 6.25938 9.42477 7.75374 9.42477C8.68419 9.42477 9.61464 9.17101 10.2913 8.6353C10.827 8.24057 11.0808 7.56387 11.0808 6.88718C11.0808 6.21049 10.9398 5.42102 10.5451 4.74433C10.0094 4.20862 9.47366 3.95486 8.79697 3.81388C8.0075 3.67291 7.33081 3.67291 6.51314 3.67291C5.58269 3.67291 4.53946 3.67291 3.46804 3.67291ZM3.46804 12.3571C3.46804 14.359 3.46804 16.5018 3.46804 18.5037C4.9342 18.5037 6.40036 18.5037 8.0075 18.5037C8.79697 18.5037 9.75561 18.3627 10.4041 17.827C11.0808 17.4323 11.4755 16.7556 11.6165 16.0789C11.7575 15.2894 11.6165 14.4717 11.2218 13.7951C10.968 13.2593 10.2913 12.8646 9.75561 12.5827C9.2199 12.4417 8.54321 12.3289 8.0075 12.3289C6.40036 12.3571 4.9342 12.3571 3.46804 12.3571Z" fill="#185F7D"/>
<path d="M22.8102 0.599609C24.0226 0.599609 25.2068 0.599609 26.4192 0.599609C26.4192 4.20862 26.4192 7.81763 26.4192 11.4266C26.4192 12.7518 26.4192 13.9642 26.6729 15.2894C26.9267 16.3608 27.4624 17.2913 28.2801 17.968C29.0977 18.6447 30.141 18.7575 31.2124 18.7575C32.2838 18.7575 33.3552 18.5037 34.2857 17.827C34.9624 17.2913 35.4981 16.5018 35.7518 15.6842C36.0056 14.7537 36.0056 13.6823 36.0056 12.6109C36.0056 8.60711 36.0056 4.60336 36.0056 0.599609C37.218 0.599609 38.4022 0.599609 39.6146 0.599609C39.6146 4.74434 39.6146 9.00184 39.6146 13.1466C39.6146 14.8947 39.3609 16.6146 38.5432 18.2217C37.8665 19.5469 36.6823 20.6184 35.2161 21.295C33.609 21.9717 31.8891 22.2255 30.141 22.0845C28.9286 21.9435 27.7443 21.6898 26.6729 21.1541C25.8835 20.7593 25.2068 20.2236 24.671 19.5469C23.9944 18.7575 23.4586 17.7988 23.2049 16.7556C22.8101 15.5432 22.6692 14.4718 22.8102 13.2875C22.8102 8.88906 22.8102 4.74434 22.8102 0.599609Z" fill="#185F7D"/>
<path d="M71.4189 0.599609C72.6313 0.599609 73.8156 0.599609 75.028 0.599609C75.028 7.67666 75.028 14.6127 75.028 21.6898C73.8156 21.6898 72.6313 21.6898 71.4189 21.6898C71.4189 14.6127 71.4189 7.53568 71.4189 0.599609Z" fill="#185F7D"/>
<path d="M112.416 0.599609C116.701 0.599609 120.959 0.599609 125.103 0.599609C125.103 1.67104 125.103 2.74246 125.103 3.81388C122.03 3.81388 118.957 3.81388 115.884 3.81388C115.884 5.562 115.884 7.14094 115.884 8.88906C118.675 8.88906 121.353 8.88906 124.173 8.88906C124.173 9.96049 124.173 11.0319 124.173 11.9624C121.382 11.9624 118.703 11.9624 115.884 11.9624C115.884 14.1052 115.884 16.3608 115.884 18.5037C118.957 18.5037 122.03 18.5037 125.103 18.5037C125.103 19.5751 125.103 20.6465 125.103 21.718C120.818 21.718 116.56 21.718 112.416 21.718C112.416 15.9661 112.416 10.3552 112.416 4.63155C112.416 3.27817 112.416 1.92479 112.416 0.599609Z" fill="#185F7D"/>
<path d="M202.912 0.254883C207.705 4.79434 212.527 9.33381 217.207 13.8733C217.207 9.47479 217.207 5.04811 217.207 0.649625C218.42 0.649625 219.491 0.649625 220.675 0.649625C220.675 7.72667 220.675 14.6627 220.675 21.7398C215.882 17.2003 211.061 12.5199 206.38 7.98043C206.38 12.5199 206.38 16.9184 206.38 21.4578C205.168 21.4578 204.096 21.4578 202.912 21.4578C202.912 14.2962 202.912 7.21915 202.912 0.254883Z" fill="#185F7D"/>
<path d="M232.799 0.931567C234.124 0.254877 235.59 0.14209 237.085 0.14209C239.087 0.283067 241.089 0.818783 242.696 1.89021C242.696 3.10261 242.696 4.28682 242.696 5.49922C241.906 4.82253 240.948 4.28682 240.017 3.89209C238.692 3.35637 237.339 3.10261 235.872 3.21539C235.196 3.21539 234.547 3.46915 234.012 3.75111C233.617 4.00487 233.222 4.42779 233.081 4.82253C232.827 5.612 232.94 6.57065 233.617 7.21914C234.152 7.75485 234.688 8.00861 235.365 8.14959C236.577 8.54432 237.902 9.08004 239.115 9.47477C240.045 9.86951 241.117 10.2642 241.906 10.9409C242.696 11.6176 243.231 12.5481 243.513 13.4785C243.767 14.55 243.767 15.6214 243.654 16.6928C243.401 17.7642 242.865 18.5537 242.188 19.3714C241.399 20.1608 240.44 20.5838 239.397 20.9785C238.072 21.3732 236.718 21.3732 235.393 21.3732C234.068 21.2323 232.602 20.9785 231.389 20.4428C230.854 20.189 230.318 19.9071 229.782 19.6533C229.782 18.4409 229.782 17.2567 229.782 15.9033C231.643 17.3695 233.927 18.2999 236.183 18.2999C237.254 18.2999 238.184 18.159 239.115 17.7642C239.651 17.5105 240.045 16.9748 240.186 16.439C240.327 15.9033 240.327 15.2266 240.186 14.6909C239.933 14.1552 239.51 13.6195 238.974 13.3657C238.043 12.83 237.113 12.5763 236.042 12.1533C234.97 11.7586 233.758 11.3639 232.715 10.8281C231.784 10.2924 230.854 9.61575 230.318 8.68531C229.782 7.75486 229.528 6.68342 229.528 5.612C229.528 4.54057 229.782 3.61013 230.318 2.67968C231.079 2.00299 231.869 1.46728 232.799 0.931567Z" fill="#185F7D"/>
<path d="M189.265 0.536804C190.478 0.536804 191.662 0.536804 192.874 0.536804C192.874 7.47288 192.874 14.2962 192.874 21.2322C191.662 21.2322 190.478 21.2322 189.265 21.2322C189.265 14.409 189.265 7.47288 189.265 0.536804Z" fill="#185F7D"/>
<path d="M252.959 0.536804C254.171 0.536804 255.355 0.536804 256.568 0.536804C256.568 7.47288 256.568 14.2962 256.568 21.2322C255.355 21.2322 254.171 21.2322 252.959 21.2322C252.959 14.409 252.959 7.47288 252.959 0.536804Z" fill="#185F7D"/>
<path d="M266.859 0.536804C269.651 0.536804 272.329 0.536804 275.149 0.536804C277.292 0.536804 279.435 1.07252 281.154 2.3977C282.621 3.46913 283.692 4.93529 284.369 6.68341C284.904 8.14957 285.045 9.61573 285.045 11.0819C285.045 13.2247 284.51 15.3676 283.297 17.2285C282.367 18.6947 280.901 19.9071 279.153 20.5555C277.827 21.0913 276.474 21.345 275.008 21.345C272.216 21.345 269.538 21.345 266.718 21.345C266.859 14.409 266.859 7.47288 266.859 0.536804ZM270.468 3.72289C270.468 8.51611 270.468 13.3375 270.468 18.1307C271.54 18.1307 272.752 18.1307 273.795 18.1307C274.472 18.1307 275.121 18.1307 275.797 18.1307C277.122 17.9898 278.335 17.4541 279.406 16.5236C280.196 15.7341 280.872 14.6627 281.154 13.5913C281.408 12.5199 281.549 11.3075 281.408 10.2642C281.267 9.1928 281.154 8.26235 280.732 7.3319C280.337 6.40145 279.66 5.58378 278.871 5.04807C277.94 4.37138 276.869 3.97665 275.656 3.97665C274.98 3.83567 274.331 3.97665 273.654 3.97665C272.583 3.72289 271.54 3.72289 270.468 3.72289Z" fill="#185F7D"/>
<path d="M292.489 0.536804C296.775 0.536804 300.891 0.536804 305.177 0.536804C305.177 1.60823 305.177 2.67966 305.177 3.61011C302.104 3.61011 299.03 3.61011 295.957 3.61011C295.957 5.21725 295.957 6.93717 295.957 8.54431C298.748 8.54431 301.427 8.54431 304.246 8.54431C304.246 9.61574 304.246 10.5462 304.246 11.6176C301.455 11.6176 298.776 11.6176 295.957 11.6176C295.957 13.7605 295.957 15.9033 295.957 18.018C299.03 18.018 302.104 18.018 305.177 18.018C305.177 19.0894 305.177 20.1608 305.177 21.2322C300.891 21.2322 296.775 21.2322 292.489 21.2322C292.489 14.409 292.489 7.47288 292.489 0.536804Z" fill="#185F7D"/>
<path d="M315.722 0.536804C318.259 0.536804 320.938 0.536804 323.476 0.536804C324.801 0.536804 326.013 0.790568 327.226 1.32628C328.156 1.72102 328.974 2.39771 329.509 3.32816C330.186 4.39958 330.44 5.61198 330.44 6.79619C330.44 8.00859 330.299 9.33377 329.65 10.4052C329.115 11.1947 328.438 11.8714 327.648 12.2661C326.972 12.5199 326.323 12.6608 325.647 12.8018C328.184 15.5932 330.581 18.5537 333.118 21.345C331.793 21.345 330.44 21.345 329.115 21.345C326.718 18.5537 324.321 15.7341 321.897 12.9428C321.107 12.9428 320.289 12.9428 319.359 12.9428C319.359 15.7341 319.359 18.5537 319.359 21.345C318.147 21.345 316.962 21.345 315.891 21.345C315.722 14.409 315.722 7.47288 315.722 0.536804ZM319.19 3.61011C319.19 5.75296 319.19 7.89581 319.19 9.89769C320.515 9.89769 321.868 9.89769 323.335 9.89769C324.265 9.89769 325.195 9.64393 325.872 8.96724C326.408 8.5725 326.662 7.89581 326.662 7.3601C326.803 6.57063 326.662 5.75296 326.267 4.96349C325.872 4.2868 325.195 3.89207 324.406 3.75109C323.617 3.49733 322.94 3.61011 322.122 3.61011C321.192 3.61011 320.261 3.61011 319.19 3.61011Z" fill="#185F7D"/>
</svg>
