<svg width="73" height="72" viewBox="0 0 73 72" fill="none" xmlns="http://www.w3.org/2000/svg">
<path d="M60.0298 12.9506H38.8048C38.6792 12.9506 38.5587 12.8764 38.4698 12.7443C38.381 12.6123 38.3311 12.4331 38.3311 12.2464C38.3311 12.0596 38.381 11.8805 38.4698 11.7484C38.5587 11.6163 38.6792 11.5421 38.8048 11.5421H60.0298C60.092 11.5421 60.1537 11.5603 60.2111 11.5957C60.2686 11.6311 60.3208 11.683 60.3648 11.7484C60.4088 11.8138 60.4437 11.8914 60.4675 11.9769C60.4913 12.0623 60.5036 12.1539 60.5036 12.2464C60.5036 12.3388 60.4913 12.4304 60.4675 12.5159C60.4437 12.6013 60.4088 12.6789 60.3648 12.7443C60.3208 12.8097 60.2686 12.8616 60.2111 12.897C60.1537 12.9324 60.092 12.9506 60.0298 12.9506Z" fill="black"/>
<path d="M53.4681 18.3498H38.8048C38.6792 18.3498 38.5587 18.2756 38.4698 18.1435C38.381 18.0114 38.3311 17.8323 38.3311 17.6455C38.3311 17.4587 38.381 17.2796 38.4698 17.1475C38.5587 17.0155 38.6792 16.9413 38.8048 16.9413H53.4681C53.5937 16.9413 53.7142 17.0155 53.8031 17.1475C53.8919 17.2796 53.9419 17.4587 53.9419 17.6455C53.9419 17.8323 53.8919 18.0114 53.8031 18.1435C53.7142 18.2756 53.5937 18.3498 53.4681 18.3498Z" fill="black"/>
<path d="M60.3773 23.7607H38.8048C38.6792 23.7607 38.5587 23.6865 38.4698 23.5544C38.381 23.4223 38.3311 23.2432 38.3311 23.0564C38.3311 22.8696 38.381 22.6905 38.4698 22.5584C38.5587 22.4264 38.6792 22.3522 38.8048 22.3522H60.3773C60.5029 22.3522 60.6234 22.4264 60.7123 22.5584C60.8011 22.6905 60.851 22.8696 60.851 23.0564C60.851 23.2432 60.8011 23.4223 60.7123 23.5544C60.6234 23.6865 60.5029 23.7607 60.3773 23.7607Z" fill="black"/>
<path d="M1.96483 66.5987H22.4456C22.7377 66.5987 23.0357 66.4789 23.1489 66.2096C23.6329 65.0586 22.4219 63.5405 20.8234 62.6034C16.929 60.3205 7.1259 61.0367 4.3058 62.3348C3.08413 62.8972 0.182625 64.6232 1.28619 66.28C1.43322 66.5007 1.69962 66.5987 1.96483 66.5987Z" stroke="black" stroke-width="1.3"/>
<path d="M26.3647 66.5987H46.7473C47.0675 66.5987 47.3868 66.4512 47.4962 66.1504C47.9902 64.7923 46.7771 62.9964 45.1745 61.8889C41.28 59.1977 31.477 60.042 28.6569 61.5723C27.4358 62.2349 24.5366 64.2678 25.6356 66.22C25.7797 66.4759 26.071 66.5987 26.3647 66.5987Z" stroke="black" stroke-width="1.3"/>
<path d="M2.99887 50.0488C2.99887 48.9415 2.98629 44.9726 3.83036 43.194C5.10706 40.5038 7.84273 39.2531 12.0376 39.2531C16.5656 39.2531 18.4667 40.6666 19.7668 43.194C20.5729 44.7611 20.9268 48.2033 20.9268 49.6797C20.9268 51.1561 20.6104 54.1616 21.7177 54.1616H21.9826C22.5933 54.1616 23.1275 54.7166 22.9708 55.3069C22.9008 55.5708 22.7927 55.8373 22.616 56.0782C20.2297 59.3323 15.5307 59.3112 12.0376 59.3611C8.54448 59.411 3.69368 59.3155 2.23455 57.4005C1.60426 56.5732 0.668342 54.0562 1.45928 54.1616C3.24534 54.3998 2.99887 50.948 2.99887 50.0488Z" stroke="black" stroke-width="1.3"/>
<path d="M50.6675 66.5987H71.1483C71.4404 66.5987 71.7383 66.4789 71.8515 66.2096C72.3355 65.0586 71.1246 63.5405 69.526 62.6034C65.6316 60.3205 55.8285 61.0367 53.0084 62.3348C51.7868 62.8972 48.8853 64.6232 49.9888 66.28C50.1359 66.5007 50.4023 66.5987 50.6675 66.5987Z" stroke="black" stroke-width="1.3"/>
<path d="M51.701 50.0488C51.701 48.9415 51.6884 44.9726 52.5325 43.194C53.8092 40.5038 56.5449 39.2531 60.7397 39.2531C65.2678 39.2531 67.1688 40.6666 68.4689 43.194C69.275 44.7611 69.6289 48.2033 69.6289 49.6797C69.6289 51.1561 69.3126 54.1616 70.4199 54.1616H70.6848C71.2954 54.1616 71.8296 54.7166 71.673 55.3069C71.603 55.5708 71.4948 55.8373 71.3181 56.0782C68.9319 59.3323 64.2329 59.3112 60.7398 59.3611C57.2466 59.411 52.3958 59.3155 50.9367 57.4005C50.3064 56.5732 49.3705 54.0562 50.1614 54.1616C51.9475 54.3998 51.701 50.948 51.701 50.0488Z" stroke="black" stroke-width="1.3"/>
<path d="M41.0907 39.1694C40.2908 39.1194 39.541 38.1195 38.6911 37.3697C35.4733 34.5304 30.0395 36.964 27.7857 39.5397C25.532 42.1153 26.0541 47.7844 28.528 50.3106C28.6643 50.4497 28.8467 50.529 29.0345 50.5803C30.3183 50.9307 31.2317 52.1576 31.4923 52.5671C32.6082 54.3207 40.2027 54.0211 40.8981 52.5671C42.2043 49.8359 44.7121 49.6526 45.5464 45.8531C46.1951 42.8984 43.8671 39.3429 41.0907 39.1694Z" stroke="black" stroke-width="1.3"/>
<path d="M26.6933 47.868C24.6068 49.3459 27.1171 51.6651 28.5358 52.6525C28.7804 52.8227 28.9496 53.0855 29.0141 53.3764C30.5066 60.111 42.2579 59.8959 43.2728 53.1544C43.3185 52.8505 43.4773 52.5694 43.7172 52.3774C45.062 51.3011 47.1099 48.9052 44.7761 47.868" stroke="black" stroke-width="1.3"/>
<path d="M43.3508 52.6895C43.4628 52.3537 43.851 50.1428 43.9854 49.1486M29.0448 53.4524L28.3999 50.099" stroke="black" stroke-width="1.3"/>
<path d="M4.69238 29.5765H58.6279H67.6924C68.2447 29.5765 68.6924 29.1288 68.6924 28.5765V6.40131C68.6924 5.84902 68.2447 5.40131 67.6924 5.40131H4.69238C4.1401 5.40131 3.69238 5.84902 3.69238 6.40131V28.5765C3.69238 29.1288 4.1401 29.5765 4.69238 29.5765Z" stroke="#48A6EB" stroke-width="1.3" stroke-linecap="round"/>
<path d="M9.75098 23.4358L11.927 20.2554C12.1134 19.983 12.4222 19.8201 12.7523 19.8201H15.3157C15.6443 19.8201 15.9519 19.6587 16.1386 19.3883L18.1764 16.437C18.4276 16.0731 18.8879 15.9175 19.3084 16.0541L21.8495 16.8801C22.1931 16.9917 22.5701 16.9094 22.8359 16.6647L28.4 11.5421" stroke="#48A6EB" stroke-width="1.3" stroke-linecap="round"/>
</svg>
