<svg width="73" height="72" viewBox="0 0 73 72" fill="none" xmlns="http://www.w3.org/2000/svg">
<g clip-path="url(#clip0_1915_2267)">
<path d="M54.6132 39.6099H18.396C18.0308 39.6097 17.6806 39.4644 17.4224 39.2061C17.1642 38.9477 17.0192 38.5974 17.0192 38.2322V13.9702C17.0167 13.7881 17.0505 13.6074 17.1188 13.4386C17.187 13.2698 17.2882 13.1163 17.4165 12.9871C17.5448 12.8579 17.6976 12.7557 17.866 12.6863C18.0343 12.6169 18.2148 12.5818 18.3968 12.5831H54.6132C54.9793 12.5858 55.3295 12.7331 55.5874 12.993C55.8453 13.2528 55.9901 13.6041 55.99 13.9702V28.4127H54.8095V13.9702C54.8108 13.9436 54.8067 13.917 54.7974 13.892C54.7881 13.8671 54.7739 13.8442 54.7555 13.8249C54.7372 13.8056 54.7151 13.7902 54.6907 13.7797C54.6662 13.7692 54.6399 13.7637 54.6132 13.7636H18.396C18.3689 13.7619 18.3417 13.7662 18.3165 13.7762C18.2912 13.7861 18.2684 13.8015 18.2497 13.8211C18.231 13.8408 18.2168 13.8644 18.2082 13.8901C18.1995 13.9159 18.1966 13.9432 18.1997 13.9702V38.2322C18.1975 38.2717 18.2079 38.3109 18.2294 38.3442C18.2508 38.3775 18.2823 38.4031 18.3192 38.4174C18.3437 38.4267 18.3698 38.4308 18.396 38.4294H54.6132C54.6645 38.4269 54.713 38.4054 54.7493 38.3691C54.7856 38.3328 54.8071 38.2843 54.8095 38.2331V29.8006H55.99V38.2322C55.99 38.5974 55.845 38.9477 55.5868 39.2061C55.3287 39.4644 54.9785 39.6097 54.6132 39.6099Z" fill="black"/>
<path d="M55.4002 16.361H17.5996V17.5415H55.4002V16.361Z" fill="black"/>
<path d="M38.467 20.9166H20.4821C20.3295 20.9108 20.185 20.846 20.079 20.736C19.9731 20.6259 19.9139 20.4791 19.9139 20.3263C19.9139 20.1736 19.9731 20.0267 20.079 19.9167C20.185 19.8066 20.3295 19.7419 20.4821 19.7361H38.467C38.5464 19.7331 38.6256 19.7461 38.6998 19.7744C38.7741 19.8027 38.8418 19.8457 38.8991 19.9008C38.9563 19.9559 39.0019 20.022 39.033 20.0951C39.0641 20.1682 39.0801 20.2469 39.0801 20.3263C39.0801 20.4058 39.0641 20.4844 39.033 20.5575C39.0019 20.6307 38.9563 20.6968 38.8991 20.7519C38.8418 20.807 38.7741 20.85 38.6998 20.8783C38.6256 20.9066 38.5464 20.9196 38.467 20.9166ZM32.9085 25.0291H20.4821C20.3295 25.0233 20.185 24.9586 20.079 24.8485C19.9731 24.7385 19.9139 24.5916 19.9139 24.4389C19.9139 24.2861 19.9731 24.1393 20.079 24.0292C20.185 23.9191 20.3295 23.8544 20.4821 23.8486H32.9085C33.0611 23.8544 33.2056 23.9191 33.3116 24.0292C33.4175 24.1393 33.4767 24.2861 33.4767 24.4389C33.4767 24.5916 33.4175 24.7385 33.3116 24.8485C33.2056 24.9586 33.0611 25.0233 32.9085 25.0291ZM31.9841 36.5891H20.8363C20.5756 36.5889 20.3256 36.4852 20.1413 36.3008C19.9569 36.1165 19.8533 35.8665 19.853 35.6058V31.5325C19.853 31.2716 19.9566 31.0214 20.141 30.8369C20.3254 30.6523 20.5755 30.5486 20.8363 30.5483H31.9841C32.2364 30.561 32.4742 30.6703 32.6482 30.8535C32.8222 31.0367 32.919 31.2798 32.9187 31.5325V35.6152C32.9164 35.8661 32.8184 36.1066 32.6447 36.2876C32.4709 36.4686 32.2346 36.5765 31.9841 36.5891ZM21.1607 35.4086H31.699V31.8082H21.0813L21.1607 35.4103V35.4086Z" fill="#48A6EB"/>
<path d="M52.0549 34.1982H51.9559C51.839 34.1775 51.7308 34.1226 51.6451 34.0404C51.5594 33.9582 51.5 33.8524 51.4745 33.7364L50.0473 26.9676C50.018 26.8159 50.0495 26.6588 50.1349 26.5301C50.2203 26.4015 50.3529 26.3115 50.504 26.2796C50.6035 26.2572 50.7071 26.2601 50.8053 26.2881L57.3778 28.4332C57.4624 28.4609 57.5396 28.5075 57.6037 28.5694C57.6677 28.6313 57.7168 28.707 57.7474 28.7906C57.7779 28.8742 57.7891 28.9637 57.7801 29.0523C57.7711 29.1409 57.7421 29.2263 57.6954 29.3021C57.6341 29.4036 57.5441 29.4847 57.4367 29.5351L54.2981 30.9418L52.5662 33.8935C52.5149 33.9846 52.4406 34.0608 52.3508 34.1144C52.261 34.168 52.1587 34.1972 52.0541 34.1991L52.0549 34.1982ZM51.4054 27.7247L52.3101 32.0045L53.3728 30.1847C53.4331 30.0764 53.5264 29.9903 53.6392 29.9389L55.6067 29.0725L51.4054 27.7247Z" fill="black"/>
<path d="M71.4373 54.7609H1.58233C1.44076 54.7622 1.30032 54.7355 1.16911 54.6823C1.03791 54.6291 0.918553 54.5504 0.817924 54.4508C0.717295 54.3512 0.63739 54.2327 0.582823 54.102C0.528256 53.9714 0.500106 53.8312 0.5 53.6896V4.07209C0.5 3.78776 0.612952 3.51506 0.814008 3.31401C1.01506 3.11295 1.28776 3 1.57209 3H71.4271C71.5679 2.99989 71.7074 3.02754 71.8376 3.08136C71.9678 3.13519 72.086 3.21414 72.1857 3.31371C72.2853 3.41327 72.3644 3.5315 72.4183 3.66162C72.4722 3.79175 72.5 3.93123 72.5 4.07209V53.6888C72.5 53.9716 72.3884 54.2429 72.1894 54.4439C71.9904 54.6448 71.7201 54.759 71.4373 54.7617V54.7609ZM1.6805 53.5915H71.3391V4.17964H1.6805V53.5915Z" fill="black"/>
<path d="M71.9185 46.2114H1.09131V47.3919H71.9185V46.2114ZM39.1361 51.1016H33.8729C33.7202 51.0958 33.5758 51.031 33.4698 50.921C33.3639 50.8109 33.3047 50.6641 33.3047 50.5113C33.3047 50.3585 33.3639 50.2117 33.4698 50.1017C33.5758 49.9916 33.7202 49.9269 33.8729 49.9211H39.1361C39.2887 49.9269 39.4332 49.9916 39.5391 50.1017C39.6451 50.2117 39.7043 50.3585 39.7043 50.5113C39.7043 50.6641 39.6451 50.8109 39.5391 50.921C39.4332 51.031 39.2887 51.0958 39.1361 51.1016Z" fill="black"/>
<path d="M31.1374 54.5H29.9569V64.5333H31.1374V54.5ZM43.0525 54.5H41.8728V64.5333H43.0533L43.0525 54.5ZM50.9429 69.6001H22.0665V65.6156C22.0651 65.4747 22.0915 65.335 22.1442 65.2044C22.1969 65.0737 22.2748 64.9547 22.3735 64.8542C22.4722 64.7537 22.5897 64.6736 22.7194 64.6185C22.8491 64.5635 22.9883 64.5345 23.1292 64.5333H49.8708C50.0125 64.5333 50.1528 64.5613 50.2835 64.6159C50.4142 64.6704 50.5329 64.7503 50.6326 64.8509C50.7323 64.9515 50.811 65.0709 50.8643 65.2022C50.9176 65.3334 50.9443 65.474 50.9429 65.6156V69.6001ZM23.2478 68.4196H49.8128V65.7138H23.2469L23.2478 68.4196Z" fill="black"/>
</g>
<defs>
<clipPath id="clip0_1915_2267">
<rect width="72" height="72" fill="white" transform="translate(0.5)"/>
</clipPath>
</defs>
</svg>
