<svg width="64" height="46" viewBox="0 0 64 46" fill="none" xmlns="http://www.w3.org/2000/svg">
<path d="M62.4587 38.5238C61.7238 41.3029 59.5714 43.4941 56.8415 44.2423C51.8543 45.6318 31.9054 45.6318 31.9054 45.6318C31.9054 45.6318 11.9565 45.6318 6.96924 44.2957C4.29188 43.5475 2.087 41.3029 1.35204 38.5238C0.0396118 33.4467 0.0396118 22.9183 0.0396118 22.9183C0.0396118 22.9183 0.0396118 12.3364 1.35204 7.31269C2.087 4.53362 4.23938 2.34243 6.96924 1.59422C12.009 0.204681 31.9054 0.204681 31.9054 0.204681C31.9054 0.204681 51.8543 0.204681 56.8415 1.54078C59.5714 2.28899 61.7238 4.48018 62.4587 7.25925C63.7712 12.3364 63.7712 22.8648 63.7712 22.8648C63.7712 22.8648 63.8237 33.4467 62.4587 38.5238Z" fill="#FF0000"/>
<path d="M25.5533 32.6444V13.1909L42.1423 22.9177L25.5533 32.6444Z" fill="white"/>
</svg>
