<svg width="136" height="40" viewBox="0 0 136 40" fill="none" xmlns="http://www.w3.org/2000/svg">
<g clip-path="url(#clip0_3066_26180)">
<path d="M130.664 0H5.66406C2.90264 0 0.664062 2.23858 0.664062 5V35C0.664062 37.7614 2.90264 40 5.66406 40H130.664C133.425 40 135.664 37.7614 135.664 35V5C135.664 2.23858 133.425 0 130.664 0Z" fill="white"/>
<path d="M130.664 0.8C131.778 0.8 132.846 1.2425 133.634 2.03015C134.422 2.8178 134.864 3.88609 134.864 5V35C134.864 36.1139 134.422 37.1822 133.634 37.9698C132.846 38.7575 131.778 39.2 130.664 39.2H5.66406C4.55015 39.2 3.48187 38.7575 2.69421 37.9698C1.90656 37.1822 1.46406 36.1139 1.46406 35V5C1.46406 3.88609 1.90656 2.8178 2.69421 2.03015C3.48187 1.2425 4.55015 0.8 5.66406 0.8H130.664ZM130.664 0H5.66406C4.33798 0 3.06621 0.526784 2.12853 1.46447C1.19085 2.40215 0.664063 3.67392 0.664062 5V35C0.664063 36.3261 1.19085 37.5979 2.12853 38.5355C3.06621 39.4732 4.33798 40 5.66406 40H130.664C131.99 40 133.262 39.4732 134.2 38.5355C135.137 37.5979 135.664 36.3261 135.664 35V5C135.664 3.67392 135.137 2.40215 134.2 1.46447C133.262 0.526784 131.99 0 130.664 0Z" fill="#A6A6A6"/>
<path d="M48.0846 10.24C48.101 10.6067 48.043 10.9729 47.9141 11.3167C47.7852 11.6604 47.5881 11.9745 47.3346 12.24C47.0505 12.5333 46.7077 12.7633 46.3285 12.9149C45.9494 13.0666 45.5426 13.1364 45.1346 13.12C44.7242 13.1291 44.3164 13.054 43.9362 12.8991C43.5561 12.7443 43.2118 12.5132 42.9246 12.22C42.3419 11.6239 42.0156 10.8235 42.0156 9.98996C42.0156 9.15643 42.3419 8.356 42.9246 7.75996C43.3701 7.32465 43.9343 7.0307 44.5463 6.91505C45.1584 6.79941 45.791 6.86722 46.3646 7.10997C46.7252 7.2582 47.0468 7.48745 47.3046 7.77997L46.7746 8.30996C46.576 8.07074 46.3244 7.8811 46.0397 7.75612C45.755 7.63113 45.4451 7.57424 45.1346 7.58996C44.7426 7.59268 44.3572 7.69136 44.0122 7.87738C43.6672 8.0634 43.373 8.33111 43.1553 8.65709C42.9376 8.98308 42.8031 9.35742 42.7635 9.7474C42.7239 10.1374 42.7804 10.5311 42.9281 10.8942C43.0758 11.2573 43.3102 11.5787 43.6107 11.8303C43.9113 12.0819 44.269 12.256 44.6524 12.3375C45.0358 12.419 45.4334 12.4053 45.8103 12.2976C46.1872 12.19 46.532 11.9916 46.8146 11.72C47.12 11.3851 47.2971 10.9529 47.3146 10.5H45.1346V9.77997H48.0446C48.0673 9.93233 48.0807 10.086 48.0846 10.24Z" fill="black" stroke="black" stroke-width="0.2" stroke-miterlimit="10"/>
<path d="M52.6636 7.74H49.9636V9.64H52.4236V10.36H49.9636V12.26H52.6636V13H49.1836V7H52.6636V7.74Z" fill="black" stroke="black" stroke-width="0.2" stroke-miterlimit="10"/>
<path d="M55.9441 13H55.1741V7.74H53.4941V7H57.6641V7.74H55.9441V13Z" fill="black" stroke="black" stroke-width="0.2" stroke-miterlimit="10"/>
<path d="M60.6035 13V7H61.3735V13H60.6035Z" fill="black" stroke="black" stroke-width="0.2" stroke-miterlimit="10"/>
<path d="M64.7937 13H64.0238V7.74H62.3438V7H66.4638V7.74H64.7937V13Z" fill="black" stroke="black" stroke-width="0.2" stroke-miterlimit="10"/>
<path d="M74.2742 12.22C73.9854 12.5091 73.6424 12.7384 73.265 12.8948C72.8875 13.0513 72.4829 13.1318 72.0742 13.1318C71.6656 13.1318 71.261 13.0513 70.8835 12.8948C70.506 12.7384 70.163 12.5091 69.8742 12.22C69.3089 11.6191 68.9941 10.8251 68.9941 10C68.9941 9.17496 69.3089 8.38097 69.8742 7.78002C70.1568 7.48282 70.4987 7.24825 70.8776 7.0915C71.2566 6.93474 71.6643 6.85929 72.0742 6.87002C72.4836 6.86355 72.89 6.94094 73.2684 7.09744C73.6467 7.25394 73.989 7.48624 74.2742 7.78002C74.5618 8.07251 74.7878 8.41965 74.9389 8.80095C75.0901 9.18224 75.1633 9.58996 75.1542 10C75.1673 10.4106 75.096 10.8195 74.9446 11.2014C74.7933 11.5832 74.5651 11.9299 74.2742 12.22ZM70.4442 11.72C70.6572 11.9359 70.911 12.1073 71.1908 12.2243C71.4707 12.3413 71.7709 12.4015 72.0742 12.4015C72.3775 12.4015 72.6778 12.3413 72.9576 12.2243C73.2374 12.1073 73.4912 11.9359 73.7042 11.72C74.1357 11.2511 74.3752 10.6372 74.3752 10C74.3752 9.36282 74.1357 8.74889 73.7042 8.28002C73.4912 8.06414 73.2374 7.89273 72.9576 7.77574C72.6778 7.65874 72.3775 7.5985 72.0742 7.5985C71.7709 7.5985 71.4707 7.65874 71.1908 7.77574C70.911 7.89273 70.6572 8.06414 70.4442 8.28002C70.0127 8.74889 69.7732 9.36282 69.7732 10C69.7732 10.6372 70.0127 11.2511 70.4442 11.72Z" fill="black" stroke="black" stroke-width="0.2" stroke-miterlimit="10"/>
<path d="M76.2441 13V7H77.1741L80.0941 11.67V10.51V7H80.8641V13H80.0641L77.0141 8.11V9.26V13H76.2441Z" fill="black" stroke="black" stroke-width="0.2" stroke-miterlimit="10"/>
<path d="M68.8042 21.75C67.9616 21.752 67.1386 22.0038 66.4391 22.4735C65.7397 22.9433 65.1952 23.6099 64.8746 24.389C64.554 25.1682 64.4717 26.025 64.638 26.8509C64.8043 27.6769 65.2118 28.435 65.809 29.0294C66.4061 29.6237 67.1662 30.0277 67.9929 30.1901C68.8196 30.3525 69.676 30.2662 70.4536 29.9419C71.2313 29.6177 71.8953 29.0701 72.3618 28.3684C72.8282 27.6668 73.0761 26.8426 73.0742 26C73.0823 25.438 72.9773 24.88 72.7653 24.3594C72.5534 23.8388 72.2388 23.3661 71.8404 22.9696C71.442 22.573 70.9679 22.2607 70.4463 22.0512C69.9246 21.8417 69.3662 21.7393 68.8042 21.75ZM68.8042 28.58C68.2877 28.6162 67.7724 28.4961 67.3251 28.2354C66.8779 27.9748 66.5193 27.5856 66.2962 27.1185C66.073 26.6514 65.9956 26.1279 66.0738 25.6162C66.1521 25.1045 66.3825 24.6281 66.7351 24.2491C67.0877 23.87 67.5462 23.6058 68.0509 23.4908C68.5557 23.3758 69.0833 23.4153 69.5653 23.6041C70.0474 23.793 70.4614 24.1225 70.7537 24.5498C71.0459 24.977 71.2029 25.4824 71.2042 26C71.2203 26.3281 71.1705 26.656 71.0579 26.9645C70.9452 27.273 70.772 27.5558 70.5483 27.7962C70.3246 28.0367 70.0551 28.2299 69.7555 28.3645C69.456 28.4992 69.1325 28.5724 68.8042 28.58ZM59.4842 21.75C58.6416 21.752 57.8186 22.0038 57.1191 22.4735C56.4197 22.9433 55.8752 23.6099 55.5546 24.389C55.234 25.1682 55.1517 26.025 55.318 26.8509C55.4843 27.6769 55.8918 28.435 56.489 29.0294C57.0861 29.6237 57.8462 30.0277 58.6729 30.1901C59.4996 30.3525 60.356 30.2662 61.1336 29.9419C61.9113 29.6177 62.5753 29.0701 63.0418 28.3684C63.5082 27.6668 63.7561 26.8426 63.7542 26C63.7623 25.438 63.6573 24.88 63.4453 24.3594C63.2334 23.8388 62.9188 23.3661 62.5204 22.9696C62.122 22.573 61.6479 22.2607 61.1263 22.0512C60.6046 21.8417 60.0462 21.7393 59.4842 21.75ZM59.4842 28.58C58.9677 28.6162 58.4524 28.4961 58.0051 28.2354C57.5579 27.9748 57.1993 27.5856 56.9762 27.1185C56.753 26.6514 56.6756 26.1279 56.7538 25.6162C56.8321 25.1045 57.0625 24.6281 57.4151 24.2491C57.7677 23.87 58.2262 23.6058 58.7309 23.4908C59.2357 23.3758 59.7633 23.4153 60.2453 23.6041C60.7274 23.793 61.1414 24.1225 61.4337 24.5498C61.7259 24.977 61.8829 25.4824 61.8842 26C61.9003 26.3281 61.8505 26.656 61.7379 26.9645C61.6252 27.273 61.452 27.5558 61.2283 27.7962C61.0046 28.0367 60.7351 28.2299 60.4355 28.3645C60.136 28.4992 59.8125 28.5724 59.4842 28.58ZM48.4042 23.06V24.86H52.7242C52.6564 25.7078 52.304 26.5078 51.7242 27.13C51.2908 27.5716 50.7696 27.9172 50.1943 28.1446C49.6189 28.3719 49.0023 28.476 48.3842 28.45C47.1111 28.45 45.8902 27.9443 44.99 27.0442C44.0899 26.144 43.5842 24.9231 43.5842 23.65C43.5842 22.377 44.0899 21.1561 44.99 20.2559C45.8902 19.3558 47.1111 18.85 48.3842 18.85C49.6046 18.8319 50.7831 19.2954 51.6642 20.14L52.9342 18.87C52.3381 18.2806 51.6305 17.8159 50.8526 17.5034C50.0748 17.1909 49.2424 17.0368 48.4042 17.05C47.5152 17.0154 46.6283 17.1607 45.7968 17.477C44.9652 17.7934 44.2061 18.2743 43.5649 18.8911C42.9237 19.5078 42.4136 20.2476 42.0652 21.0662C41.7167 21.8848 41.5371 22.7654 41.5371 23.655C41.5371 24.5447 41.7167 25.4252 42.0652 26.2438C42.4136 27.0625 42.9237 27.8023 43.5649 28.419C44.2061 29.0358 44.9652 29.5167 45.7968 29.8331C46.6283 30.1494 47.5152 30.2946 48.4042 30.26C49.2596 30.2942 50.1126 30.147 50.9071 29.8282C51.7016 29.5094 52.4197 29.0261 53.0142 28.41C54.0643 27.2565 54.6238 25.7392 54.5742 24.18C54.5777 23.8048 54.5476 23.4299 54.4842 23.06H48.4042ZM93.7142 24.46C93.4534 23.6928 92.9657 23.0228 92.3157 22.5389C91.6657 22.055 90.884 21.7799 90.0742 21.75C89.5272 21.749 88.9857 21.8601 88.4834 22.0766C87.981 22.293 87.5284 22.6102 87.1535 23.0086C86.7786 23.4069 86.4894 23.8779 86.3038 24.3924C86.1181 24.907 86.04 25.4541 86.0742 26C86.0656 26.9129 86.3526 27.804 86.8923 28.5403C87.432 29.2766 88.1953 29.8185 89.0684 30.0852C89.9415 30.3518 90.8774 30.3289 91.7364 30.0198C92.5953 29.7106 93.3312 29.1319 93.8342 28.37L92.3842 27.37C92.168 27.7303 91.8614 28.0278 91.4948 28.2331C91.1282 28.4383 90.7143 28.5441 90.2942 28.54C89.8607 28.5579 89.432 28.4443 89.0644 28.2141C88.6967 27.9838 88.4073 27.6478 88.2342 27.25L93.9242 24.9L93.7142 24.46ZM87.9142 25.88C87.8939 25.5694 87.9358 25.2579 88.0374 24.9637C88.1391 24.6694 88.2984 24.3985 88.5061 24.1666C88.7137 23.9347 88.9656 23.7466 89.2469 23.6132C89.5281 23.4799 89.8332 23.404 90.1442 23.39C90.4664 23.3704 90.7872 23.4462 91.0665 23.6081C91.3458 23.77 91.5711 24.0107 91.7142 24.3L87.9142 25.88ZM83.2942 30H85.1642V17.5H83.2942V30ZM80.2342 22.7H80.1642C79.8848 22.3819 79.54 22.1278 79.1534 21.9553C78.7668 21.7827 78.3475 21.6956 77.9242 21.7C76.8313 21.753 75.8008 22.2245 75.0461 23.0166C74.2915 23.8088 73.8705 24.8609 73.8705 25.955C73.8705 27.0491 74.2915 28.1013 75.0461 28.8935C75.8008 29.6856 76.8313 30.1571 77.9242 30.21C78.3481 30.2185 78.7687 30.1333 79.156 29.9605C79.5432 29.7876 79.8874 29.5314 80.1642 29.21H80.2342V29.82C80.2342 31.45 79.3642 32.32 77.9642 32.32C77.4965 32.3098 77.0424 32.1607 76.6596 31.8919C76.2768 31.623 75.9825 31.2465 75.8142 30.81L74.1942 31.48C74.4937 32.2323 75.0144 32.8759 75.6876 33.3259C76.3607 33.7758 77.1546 34.0109 77.9642 34C80.1542 34 81.9642 32.71 81.9642 29.57V22H80.2342V22.7ZM78.0842 28.58C77.429 28.5392 76.814 28.2501 76.3645 27.7717C75.9149 27.2933 75.6647 26.6615 75.6647 26.005C75.6647 25.3486 75.9149 24.7168 76.3645 24.2384C76.814 23.76 77.429 23.4709 78.0842 23.43C78.4044 23.4439 78.7186 23.522 79.008 23.6597C79.2975 23.7974 79.5562 23.9919 79.769 24.2317C79.9817 24.4715 80.144 24.7516 80.2462 25.0554C80.3485 25.3592 80.3886 25.6804 80.3642 26C80.3914 26.3207 80.3534 26.6436 80.2523 26.9492C80.1513 27.2548 79.9893 27.5367 79.7761 27.7778C79.563 28.019 79.3032 28.2144 79.0124 28.3523C78.7215 28.4902 78.4058 28.5677 78.0842 28.58ZM102.474 17.5H97.9942V30H99.8642V25.26H102.474C103.007 25.2983 103.542 25.2264 104.046 25.0488C104.55 24.8711 105.012 24.5916 105.403 24.2275C105.794 23.8635 106.106 23.4228 106.32 22.9329C106.533 22.443 106.643 21.9144 106.643 21.38C106.643 20.8457 106.533 20.3171 106.32 19.8272C106.106 19.3373 105.794 18.8966 105.403 18.5326C105.012 18.1685 104.55 17.889 104.046 17.7113C103.542 17.5337 103.007 17.4618 102.474 17.5ZM102.474 23.5H99.8642V19.24H102.514C102.795 19.24 103.073 19.2954 103.333 19.4029C103.593 19.5105 103.829 19.6681 104.027 19.8668C104.226 20.0656 104.384 20.3015 104.491 20.5611C104.599 20.8207 104.654 21.099 104.654 21.38C104.654 21.6611 104.599 21.9394 104.491 22.199C104.384 22.4586 104.226 22.6945 104.027 22.8933C103.829 23.092 103.593 23.2496 103.333 23.3571C103.073 23.4647 102.795 23.52 102.514 23.52L102.474 23.5ZM114.014 21.71C113.333 21.6681 112.655 21.8266 112.063 22.1661C111.471 22.5055 110.992 23.011 110.684 23.62L112.334 24.31C112.501 24.0094 112.751 23.7636 113.055 23.6021C113.358 23.4406 113.702 23.3704 114.044 23.4C114.282 23.3723 114.522 23.3921 114.752 23.4584C114.981 23.5246 115.196 23.6359 115.382 23.7858C115.568 23.9356 115.722 24.1211 115.836 24.3313C115.95 24.5415 116.021 24.7722 116.044 25.01V25.13C115.443 24.814 114.774 24.6492 114.094 24.65C112.314 24.65 110.494 25.65 110.494 27.47C110.512 27.8569 110.607 28.2362 110.774 28.5856C110.941 28.9349 111.177 29.2471 111.467 29.5037C111.757 29.7602 112.096 29.9558 112.463 30.0788C112.83 30.2019 113.218 30.2499 113.604 30.22C114.073 30.246 114.541 30.1467 114.959 29.9323C115.378 29.7179 115.731 29.3962 115.984 29H116.044V30H117.844V25.19C117.844 23 116.184 21.73 114.054 21.73L114.014 21.71ZM113.784 28.56C113.174 28.56 112.324 28.25 112.324 27.5C112.324 26.5 113.384 26.16 114.324 26.16C114.918 26.1454 115.505 26.2904 116.024 26.58C115.961 27.1231 115.704 27.625 115.299 27.9928C114.895 28.3605 114.371 28.5691 113.824 28.58L113.784 28.56ZM124.404 22L122.264 27.42H122.204L119.984 22H117.984L121.314 29.58L119.414 33.79H121.364L126.484 22H124.404ZM107.604 30H109.464V17.5H107.604V30Z" fill="black"/>
<path d="M11.1042 7.53997C10.7747 7.92959 10.6065 8.43043 10.6342 8.93997V31.06C10.6002 31.5704 10.7691 32.0735 11.1042 32.46L11.1742 32.54L23.5642 20.15V19.85L11.1742 7.46997L11.1042 7.53997Z" fill="url(#paint0_linear_3066_26180)"/>
<path d="M27.6645 24.28L23.5645 20.15V19.85L27.6645 15.72L27.7545 15.78L32.6645 18.56C34.0645 19.35 34.0645 20.65 32.6645 21.45L27.7745 24.23L27.6645 24.28Z" fill="url(#paint1_linear_3066_26180)"/>
<path d="M27.7835 24.22L23.5635 20L11.1035 32.46C11.3861 32.7115 11.7478 32.8562 12.1259 32.869C12.504 32.8818 12.8746 32.7619 13.1735 32.53L27.7835 24.22Z" fill="url(#paint2_linear_3066_26180)"/>
<path d="M27.7835 15.78L13.1735 7.47997C12.8765 7.24488 12.5062 7.12203 12.1276 7.133C11.749 7.14397 11.3864 7.28808 11.1035 7.53997L23.5635 20L27.7835 15.78Z" fill="url(#paint3_linear_3066_26180)"/>
<path opacity="0.2" d="M27.6635 24.13L13.1735 32.38C12.8855 32.5974 12.5344 32.715 12.1735 32.715C11.8126 32.715 11.4616 32.5974 11.1735 32.38L11.1035 32.45L11.1735 32.53C11.4616 32.7474 11.8126 32.865 12.1735 32.865C12.5344 32.865 12.8855 32.7474 13.1735 32.53L27.7835 24.22L27.6635 24.13Z" fill="white"/>
<path opacity="0.12" d="M11.1039 32.32C10.7827 31.9234 10.6253 31.419 10.6639 30.91V31.06C10.6299 31.5704 10.7988 32.0736 11.1339 32.46L11.2039 32.39L11.1039 32.32Z" fill="white"/>
<path opacity="0.12" d="M32.6641 21.3L27.6641 24.13L27.7541 24.22L32.6641 21.44C32.9539 21.3174 33.2053 21.119 33.3919 20.8656C33.5784 20.6122 33.6932 20.3132 33.7241 20C33.6615 20.2846 33.533 20.5505 33.3489 20.7763C33.1648 21.0021 32.9302 21.1815 32.6641 21.3Z" fill="white"/>
<path opacity="0.25" d="M13.1738 7.61998L32.6638 18.7C32.9299 18.8185 33.1645 18.9979 33.3487 19.2237C33.5328 19.4495 33.6613 19.7154 33.7238 20C33.6929 19.6868 33.5781 19.3878 33.3916 19.1344C33.205 18.881 32.9536 18.6825 32.6638 18.56L13.1738 7.47998C11.7838 6.67998 10.6338 7.33998 10.6338 8.93998V9.08998C10.6638 7.48998 11.7838 6.82998 13.1738 7.61998Z" fill="white"/>
</g>
<defs>
<linearGradient id="paint0_linear_3066_26180" x1="22.4642" y1="8.70997" x2="5.68418" y2="25.49" gradientUnits="userSpaceOnUse">
<stop stop-color="#00A0FF"/>
<stop offset="0.01" stop-color="#00A1FF"/>
<stop offset="0.26" stop-color="#00BEFF"/>
<stop offset="0.51" stop-color="#00D2FF"/>
<stop offset="0.76" stop-color="#00DFFF"/>
<stop offset="1" stop-color="#00E3FF"/>
</linearGradient>
<linearGradient id="paint1_linear_3066_26180" x1="34.4945" y1="20" x2="10.3045" y2="20" gradientUnits="userSpaceOnUse">
<stop stop-color="#FFE000"/>
<stop offset="0.41" stop-color="#FFBD00"/>
<stop offset="0.78" stop-color="#FFA500"/>
<stop offset="1" stop-color="#FF9C00"/>
</linearGradient>
<linearGradient id="paint2_linear_3066_26180" x1="25.4935" y1="22.3" x2="2.73351" y2="45.05" gradientUnits="userSpaceOnUse">
<stop stop-color="#FF3A44"/>
<stop offset="1" stop-color="#C31162"/>
</linearGradient>
<linearGradient id="paint3_linear_3066_26180" x1="7.96352" y1="0.17997" x2="18.1235" y2="10.34" gradientUnits="userSpaceOnUse">
<stop stop-color="#32A071"/>
<stop offset="0.07" stop-color="#2DA771"/>
<stop offset="0.48" stop-color="#15CF74"/>
<stop offset="0.8" stop-color="#06E775"/>
<stop offset="1" stop-color="#00F076"/>
</linearGradient>
<clipPath id="clip0_3066_26180">
<rect width="135" height="40" fill="white" transform="translate(0.664062)"/>
</clipPath>
</defs>
</svg>
